STARTFONT 2.1
COMMENT
COMMENT Converted from OpenType font "JF-Dot-Kappa20.ttf" by "otf2bdf 3.0".
COMMENT
FONT -FreeType-JF Dot Kappa 20-Medium-R-Normal--17-120-100-100-P-201-ISO10646-1
SIZE 12 100 100
FONTBOUNDINGBOX 20 20 0 -3
STARTPROPERTIES 19
FOUNDRY "FreeType"
FAMILY_NAME "JF Dot Kappa 20"
WEIGHT_NAME "Medium"
SLANT "R"
SETWIDTH_NAME "Normal"
ADD_STYLE_NAME ""
PIXEL_SIZE 17
POINT_SIZE 120
RESOLUTION_X 100
RESOLUTION_Y 100
SPACING "P"
AVERAGE_WIDTH 201
CHARSET_REGISTRY "ISO10646"
CHARSET_ENCODING "1"
FONT_ASCENT 17
FONT_DESCENT 2
COPYRIGHT "-FreeType-JF Dot Kappa 20-Medium-R-Normal--17-120-100-100-P-201-ISO10646-1"
_OTF_FONTFILE "JF-Dot-Kappa20.ttf"
_OTF_PSNAME "JF-Dot-Kappa-20-Regular"
ENDPROPERTIES
CHARS 7116
STARTCHAR 0020
ENCODING 32
SWIDTH 600 0
DWIDTH 10 0
BBX 10 20 0 -3
BITMAP
0000
0000
0000
0000
0000
0000
0000
0000
0000
0000
0000
0000
0000
0000
0000
0000
0000
0000
0000
0000
ENDCHAR
STARTCHAR 0021
ENCODING 33
SWIDTH 600 0
DWIDTH 10 0
BBX 10 20 0 -3
BITMAP
0000
0000
0800
1C00
1C00
1C00
0800
0800
0800
0800
0800
0800
0000
0000
0800
1C00
0800
0000
0000
0000
ENDCHAR
STARTCHAR 0022
ENCODING 34
SWIDTH 600 0
DWIDTH 10 0
BBX 10 20 0 -3
BITMAP
0000
0000
3600
3600
1200
2400
4800
0000
0000
0000
0000
0000
0000
0000
0000
0000
0000
0000
0000
0000
ENDCHAR
STARTCHAR 0023
ENCODING 35
SWIDTH 600 0
DWIDTH 10 0
BBX 10 20 0 -3
BITMAP
0000
0000
1100
1100
1100
1100
1100
7F80
2200
2200
2200
2200
FF00
4400
4400
4400
4400
4400
0000
0000
ENDCHAR
STARTCHAR 0024
ENCODING 36
SWIDTH 600 0
DWIDTH 10 0
BBX 10 20 0 -3
BITMAP
0000
0800
0800
3E00
4900
8880
8980
8800
6800
1C00
0B00
0880
C880
8880
4900
3E00
0800
0800
0000
0000
ENDCHAR
STARTCHAR 0025
ENCODING 37
SWIDTH 600 0
DWIDTH 10 0
BBX 10 20 0 -3
BITMAP
0000
0000
3080
4880
4900
4900
4A00
4A00
3400
0400
0800
0B00
1480
1480
2480
2480
4480
4300
0000
0000
ENDCHAR
STARTCHAR 0026
ENCODING 38
SWIDTH 600 0
DWIDTH 10 0
BBX 10 20 0 -3
BITMAP
0000
0000
0000
3C00
4200
4200
4400
2400
2800
11C0
2880
4880
8500
8500
8200
4640
3980
0000
0000
0000
ENDCHAR
STARTCHAR 0027
ENCODING 39
SWIDTH 600 0
DWIDTH 10 0
BBX 10 20 0 -3
BITMAP
0000
0000
1800
1800
0800
0800
1000
2000
0000
0000
0000
0000
0000
0000
0000
0000
0000
0000
0000
0000
ENDCHAR
STARTCHAR 0028
ENCODING 40
SWIDTH 600 0
DWIDTH 10 0
BBX 10 20 0 -3
BITMAP
0000
0100
0200
0400
0400
0800
0800
1800
1000
1000
1000
1000
1800
0800
0800
0400
0400
0200
0100
0000
ENDCHAR
STARTCHAR 0029
ENCODING 41
SWIDTH 600 0
DWIDTH 10 0
BBX 10 20 0 -3
BITMAP
0000
4000
2000
1000
1000
0800
0800
0C00
0400
0400
0400
0400
0C00
0800
0800
1000
1000
2000
4000
0000
ENDCHAR
STARTCHAR 002A
ENCODING 42
SWIDTH 600 0
DWIDTH 10 0
BBX 10 20 0 -3
BITMAP
0000
0000
0000
0000
0000
0800
4900
6B00
1C00
0800
1C00
6B00
4900
0800
0000
0000
0000
0000
0000
0000
ENDCHAR
STARTCHAR 002B
ENCODING 43
SWIDTH 600 0
DWIDTH 10 0
BBX 10 20 0 -3
BITMAP
0000
0000
0000
0000
0000
0800
0800
0800
0800
FF80
0800
0800
0800
0800
0000
0000
0000
0000
0000
0000
ENDCHAR
STARTCHAR 002C
ENCODING 44
SWIDTH 600 0
DWIDTH 10 0
BBX 10 20 0 -3
BITMAP
0000
0000
0000
0000
0000
0000
0000
0000
0000
0000
0000
0000
0000
0000
1800
1800
0800
0800
1000
2000
ENDCHAR
STARTCHAR 002D
ENCODING 45
SWIDTH 600 0
DWIDTH 10 0
BBX 10 20 0 -3
BITMAP
0000
0000
0000
0000
0000
0000
0000
0000
0000
7F80
0000
0000
0000
0000
0000
0000
0000
0000
0000
0000
ENDCHAR
STARTCHAR 002E
ENCODING 46
SWIDTH 600 0
DWIDTH 10 0
BBX 10 20 0 -3
BITMAP
0000
0000
0000
0000
0000
0000
0000
0000
0000
0000
0000
0000
0000
0000
1000
3800
1000
0000
0000
0000
ENDCHAR
STARTCHAR 002F
ENCODING 47
SWIDTH 600 0
DWIDTH 10 0
BBX 10 20 0 -3
BITMAP
0000
0080
0080
0100
0100
0200
0200
0400
0400
0800
0800
0800
1000
1000
2000
2000
4000
4000
8000
8000
ENDCHAR
STARTCHAR 0030
ENCODING 48
SWIDTH 600 0
DWIDTH 10 0
BBX 10 20 0 -3
BITMAP
0000
0000
0000
0C00
1200
2100
2100
4080
4080
4080
4080
4080
4080
2100
2100
1200
0C00
0000
0000
0000
ENDCHAR
STARTCHAR 0031
ENCODING 49
SWIDTH 600 0
DWIDTH 10 0
BBX 10 20 0 -3
BITMAP
0000
0000
0000
0400
0C00
3400
0400
0400
0400
0400
0400
0400
0400
0400
0400
0400
1F00
0000
0000
0000
ENDCHAR
STARTCHAR 0032
ENCODING 50
SWIDTH 600 0
DWIDTH 10 0
BBX 10 20 0 -3
BITMAP
0000
0000
0000
1E00
2100
4080
4080
0080
0100
0100
0200
0400
0800
1080
2080
4100
7F00
0000
0000
0000
ENDCHAR
STARTCHAR 0033
ENCODING 51
SWIDTH 600 0
DWIDTH 10 0
BBX 10 20 0 -3
BITMAP
0000
0000
0000
1E00
2100
4080
4080
0080
0100
0E00
0100
0080
0080
4080
4080
2100
1E00
0000
0000
0000
ENDCHAR
STARTCHAR 0034
ENCODING 52
SWIDTH 600 0
DWIDTH 10 0
BBX 10 20 0 -3
BITMAP
0000
0000
0000
0600
0600
0A00
0A00
1200
1200
2200
2200
4200
7F80
0200
0200
0200
0F80
0000
0000
0000
ENDCHAR
STARTCHAR 0035
ENCODING 53
SWIDTH 600 0
DWIDTH 10 0
BBX 10 20 0 -3
BITMAP
0000
0000
0000
3F80
2000
2000
2000
2000
2E00
3100
0080
0080
0080
4080
4080
2100
1E00
0000
0000
0000
ENDCHAR
STARTCHAR 0036
ENCODING 54
SWIDTH 600 0
DWIDTH 10 0
BBX 10 20 0 -3
BITMAP
0000
0000
0000
1E00
2100
4080
4000
4000
4E00
5100
6080
4080
4080
4080
4080
2100
1E00
0000
0000
0000
ENDCHAR
STARTCHAR 0037
ENCODING 55
SWIDTH 600 0
DWIDTH 10 0
BBX 10 20 0 -3
BITMAP
0000
0000
0000
3F80
2080
4100
4200
0200
0400
0400
0400
0400
0800
0800
0800
0800
0800
0000
0000
0000
ENDCHAR
STARTCHAR 0038
ENCODING 56
SWIDTH 600 0
DWIDTH 10 0
BBX 10 20 0 -3
BITMAP
0000
0000
0000
1E00
2100
4080
4080
4080
2100
1E00
2100
4080
4080
4080
4080
2100
1E00
0000
0000
0000
ENDCHAR
STARTCHAR 0039
ENCODING 57
SWIDTH 600 0
DWIDTH 10 0
BBX 10 20 0 -3
BITMAP
0000
0000
0000
1E00
2100
4080
4080
4080
4080
4080
2180
1E80
0080
0080
4080
2100
1E00
0000
0000
0000
ENDCHAR
STARTCHAR 003A
ENCODING 58
SWIDTH 600 0
DWIDTH 10 0
BBX 10 20 0 -3
BITMAP
0000
0000
0000
0000
0000
0000
0800
1C00
0800
0000
0000
0000
0000
0000
0800
1C00
0800
0000
0000
0000
ENDCHAR
STARTCHAR 003B
ENCODING 59
SWIDTH 600 0
DWIDTH 10 0
BBX 10 20 0 -3
BITMAP
0000
0000
0000
0000
0000
0000
0800
1C00
0800
0000
0000
0000
0000
0000
0C00
0C00
0400
0400
0800
1000
ENDCHAR
STARTCHAR 003C
ENCODING 60
SWIDTH 600 0
DWIDTH 10 0
BBX 10 20 0 -3
BITMAP
0000
0000
0000
0000
0100
0200
0400
0800
1000
2000
4000
2000
1000
0800
0400
0200
0100
0000
0000
0000
ENDCHAR
STARTCHAR 003D
ENCODING 61
SWIDTH 600 0
DWIDTH 10 0
BBX 10 20 0 -3
BITMAP
0000
0000
0000
0000
0000
0000
0000
0000
7F80
0000
0000
0000
7F80
0000
0000
0000
0000
0000
0000
0000
ENDCHAR
STARTCHAR 003E
ENCODING 62
SWIDTH 600 0
DWIDTH 10 0
BBX 10 20 0 -3
BITMAP
0000
0000
0000
0000
4000
2000
1000
0800
0400
0200
0100
0200
0400
0800
1000
2000
4000
0000
0000
0000
ENDCHAR
STARTCHAR 003F
ENCODING 63
SWIDTH 600 0
DWIDTH 10 0
BBX 10 20 0 -3
BITMAP
0000
0000
0000
3E00
4100
8080
8080
4080
0100
0200
0C00
0800
0800
0000
0800
1C00
0800
0000
0000
0000
ENDCHAR
STARTCHAR 0040
ENCODING 64
SWIDTH 600 0
DWIDTH 10 0
BBX 10 20 0 -3
BITMAP
0000
0000
1E00
2100
4100
4080
8C80
9480
A480
A480
A480
A480
A480
9B00
8000
4080
2100
1E00
0000
0000
ENDCHAR
STARTCHAR 0041
ENCODING 65
SWIDTH 600 0
DWIDTH 10 0
BBX 10 20 0 -3
BITMAP
0000
0000
0000
0C00
0C00
1400
1600
1200
1200
2300
2100
2100
3F00
4180
4080
4080
E3C0
0000
0000
0000
ENDCHAR
STARTCHAR 0042
ENCODING 66
SWIDTH 600 0
DWIDTH 10 0
BBX 10 20 0 -3
BITMAP
0000
0000
0000
FE00
4100
4080
4080
4080
4100
7E00
4100
4080
4080
4080
4080
4100
FE00
0000
0000
0000
ENDCHAR
STARTCHAR 0043
ENCODING 67
SWIDTH 600 0
DWIDTH 10 0
BBX 10 20 0 -3
BITMAP
0000
0000
0000
1C80
2280
4180
4080
8080
8000
8000
8000
8000
8000
4000
4080
2100
1E00
0000
0000
0000
ENDCHAR
STARTCHAR 0044
ENCODING 68
SWIDTH 600 0
DWIDTH 10 0
BBX 10 20 0 -3
BITMAP
0000
0000
0000
FC00
4200
4100
4100
4080
4080
4080
4080
4080
4080
4100
4100
4200
FC00
0000
0000
0000
ENDCHAR
STARTCHAR 0045
ENCODING 69
SWIDTH 600 0
DWIDTH 10 0
BBX 10 20 0 -3
BITMAP
0000
0000
0000
FF80
4080
4080
4080
4200
4200
7E00
4200
4200
4000
4080
4080
4080
FF80
0000
0000
0000
ENDCHAR
STARTCHAR 0046
ENCODING 70
SWIDTH 600 0
DWIDTH 10 0
BBX 10 20 0 -3
BITMAP
0000
0000
0000
FF80
4080
4080
4080
4400
4400
7C00
4400
4400
4000
4000
4000
4000
F000
0000
0000
0000
ENDCHAR
STARTCHAR 0047
ENCODING 71
SWIDTH 600 0
DWIDTH 10 0
BBX 10 20 0 -3
BITMAP
0000
0000
0000
1C80
2280
4180
4080
8080
8000
8000
8780
8080
8080
4080
4180
2280
1C80
0000
0000
0000
ENDCHAR
STARTCHAR 0048
ENCODING 72
SWIDTH 600 0
DWIDTH 10 0
BBX 10 20 0 -3
BITMAP
0000
0000
0000
F3C0
4080
4080
4080
4080
4080
7F80
4080
4080
4080
4080
4080
4080
F3C0
0000
0000
0000
ENDCHAR
STARTCHAR 0049
ENCODING 73
SWIDTH 600 0
DWIDTH 10 0
BBX 10 20 0 -3
BITMAP
0000
0000
0000
3E00
0800
0800
0800
0800
0800
0800
0800
0800
0800
0800
0800
0800
3E00
0000
0000
0000
ENDCHAR
STARTCHAR 004A
ENCODING 74
SWIDTH 600 0
DWIDTH 10 0
BBX 10 20 0 -3
BITMAP
0000
0000
0000
07C0
0100
0100
0100
0100
0100
0100
0100
0100
C100
8100
8100
4200
3C00
0000
0000
0000
ENDCHAR
STARTCHAR 004B
ENCODING 75
SWIDTH 600 0
DWIDTH 10 0
BBX 10 20 0 -3
BITMAP
0000
0000
0000
F3C0
4100
4200
4400
4800
5000
7000
5000
4800
4400
4200
4100
4080
F3C0
0000
0000
0000
ENDCHAR
STARTCHAR 004C
ENCODING 76
SWIDTH 600 0
DWIDTH 10 0
BBX 10 20 0 -3
BITMAP
0000
0000
0000
F800
2000
2000
2000
2000
2000
2000
2000
2000
2000
2080
2080
2080
7F80
0000
0000
0000
ENDCHAR
STARTCHAR 004D
ENCODING 77
SWIDTH 600 0
DWIDTH 10 0
BBX 10 20 0 -3
BITMAP
0000
0000
0000
C0C0
4080
4180
6180
6280
6280
5480
5480
5480
4880
4880
4880
4080
E3C0
0000
0000
0000
ENDCHAR
STARTCHAR 004E
ENCODING 78
SWIDTH 600 0
DWIDTH 10 0
BBX 10 20 0 -3
BITMAP
0000
0000
0000
C1C0
6080
6080
5080
5080
4880
4880
4480
4480
4280
4280
4180
4180
E080
0000
0000
0000
ENDCHAR
STARTCHAR 004F
ENCODING 79
SWIDTH 600 0
DWIDTH 10 0
BBX 10 20 0 -3
BITMAP
0000
0000
0000
3E00
4100
4100
8080
8080
8080
8080
8080
8080
8080
8080
4100
4100
3E00
0000
0000
0000
ENDCHAR
STARTCHAR 0050
ENCODING 80
SWIDTH 600 0
DWIDTH 10 0
BBX 10 20 0 -3
BITMAP
0000
0000
0000
FE00
4100
4080
4080
4080
4080
4100
7E00
4000
4000
4000
4000
4000
F000
0000
0000
0000
ENDCHAR
STARTCHAR 0051
ENCODING 81
SWIDTH 600 0
DWIDTH 10 0
BBX 10 20 0 -3
BITMAP
0000
0000
0000
3E00
4100
4100
8080
8080
8080
8080
8080
8080
8080
9880
6500
4300
3E00
0240
0180
0000
ENDCHAR
STARTCHAR 0052
ENCODING 82
SWIDTH 600 0
DWIDTH 10 0
BBX 10 20 0 -3
BITMAP
0000
0000
0000
FE00
4100
4080
4080
4080
4100
7E00
4800
4400
4200
4200
4100
4080
F3C0
0000
0000
0000
ENDCHAR
STARTCHAR 0053
ENCODING 83
SWIDTH 600 0
DWIDTH 10 0
BBX 10 20 0 -3
BITMAP
0000
0000
0000
1D00
2300
4080
4080
4000
3000
0C00
0300
0080
4080
4080
6080
5100
4E00
0000
0000
0000
ENDCHAR
STARTCHAR 0054
ENCODING 84
SWIDTH 600 0
DWIDTH 10 0
BBX 10 20 0 -3
BITMAP
0000
0000
0000
FF80
8880
8880
8880
0800
0800
0800
0800
0800
0800
0800
0800
0800
3E00
0000
0000
0000
ENDCHAR
STARTCHAR 0055
ENCODING 85
SWIDTH 600 0
DWIDTH 10 0
BBX 10 20 0 -3
BITMAP
0000
0000
0000
F1C0
4080
4080
4080
4080
4080
4080
4080
4080
4080
4080
4080
2100
1E00
0000
0000
0000
ENDCHAR
STARTCHAR 0056
ENCODING 86
SWIDTH 600 0
DWIDTH 10 0
BBX 10 20 0 -3
BITMAP
0000
0000
0000
F1C0
4080
4080
6100
2100
2100
3100
1200
1A00
0A00
0C00
0C00
0400
0400
0000
0000
0000
ENDCHAR
STARTCHAR 0057
ENCODING 87
SWIDTH 600 0
DWIDTH 10 0
BBX 10 20 0 -3
BITMAP
0000
0000
0000
E380
4100
4900
4900
4900
4900
5D00
5500
5500
7700
2200
2200
2200
2200
0000
0000
0000
ENDCHAR
STARTCHAR 0058
ENCODING 88
SWIDTH 600 0
DWIDTH 10 0
BBX 10 20 0 -3
BITMAP
0000
0000
0000
F3C0
4080
2100
2200
1200
1C00
0800
0C00
1400
1200
2100
2100
4080
F3C0
0000
0000
0000
ENDCHAR
STARTCHAR 0059
ENCODING 89
SWIDTH 600 0
DWIDTH 10 0
BBX 10 20 0 -3
BITMAP
0000
0000
0000
F380
4100
4100
2200
2200
1400
1400
0800
0800
0800
0800
0800
0800
3E00
0000
0000
0000
ENDCHAR
STARTCHAR 005A
ENCODING 90
SWIDTH 600 0
DWIDTH 10 0
BBX 10 20 0 -3
BITMAP
0000
0000
0000
7F80
4100
4200
4200
0400
0400
0800
0800
1000
1000
2080
2080
4080
FF80
0000
0000
0000
ENDCHAR
STARTCHAR 005B
ENCODING 91
SWIDTH 600 0
DWIDTH 10 0
BBX 10 20 0 -3
BITMAP
0000
0000
1F00
1000
1000
1000
1000
1000
1000
1000
1000
1000
1000
1000
1000
1000
1000
1F00
0000
0000
ENDCHAR
STARTCHAR 005C
ENCODING 92
SWIDTH 600 0
DWIDTH 10 0
BBX 10 20 0 -3
BITMAP
0000
8000
8000
4000
4000
2000
2000
1000
1000
0800
0800
0800
0400
0400
0200
0200
0100
0100
0080
0080
ENDCHAR
STARTCHAR 005D
ENCODING 93
SWIDTH 600 0
DWIDTH 10 0
BBX 10 20 0 -3
BITMAP
0000
0000
3E00
0200
0200
0200
0200
0200
0200
0200
0200
0200
0200
0200
0200
0200
0200
3E00
0000
0000
ENDCHAR
STARTCHAR 005E
ENCODING 94
SWIDTH 600 0
DWIDTH 10 0
BBX 10 20 0 -3
BITMAP
0000
0000
0800
1400
2200
4100
0000
0000
0000
0000
0000
0000
0000
0000
0000
0000
0000
0000
0000
0000
ENDCHAR
STARTCHAR 005F
ENCODING 95
SWIDTH 600 0
DWIDTH 10 0
BBX 10 20 0 -3
BITMAP
0000
0000
0000
0000
0000
0000
0000
0000
0000
0000
0000
0000
0000
0000
0000
0000
0000
FF80
0000
0000
ENDCHAR
STARTCHAR 0060
ENCODING 96
SWIDTH 600 0
DWIDTH 10 0
BBX 10 20 0 -3
BITMAP
0000
0000
1800
0C00
0200
0000
0000
0000
0000
0000
0000
0000
0000
0000
0000
0000
0000
0000
0000
0000
ENDCHAR
STARTCHAR 0061
ENCODING 97
SWIDTH 600 0
DWIDTH 10 0
BBX 10 20 0 -3
BITMAP
0000
0000
0000
0000
0000
0000
0000
1F00
2080
6080
0080
0F80
3080
4080
4080
4180
3EC0
0000
0000
0000
ENDCHAR
STARTCHAR 0062
ENCODING 98
SWIDTH 600 0
DWIDTH 10 0
BBX 10 20 0 -3
BITMAP
0000
0000
0000
E000
2000
2000
2000
2E00
3100
2080
2080
2080
2080
2080
2080
3100
2E00
0000
0000
0000
ENDCHAR
STARTCHAR 0063
ENCODING 99
SWIDTH 600 0
DWIDTH 10 0
BBX 10 20 0 -3
BITMAP
0000
0000
0000
0000
0000
0000
0000
1E00
2100
4180
4000
4000
4000
4000
4080
2100
1E00
0000
0000
0000
ENDCHAR
STARTCHAR 0064
ENCODING 100
SWIDTH 600 0
DWIDTH 10 0
BBX 10 20 0 -3
BITMAP
0000
0000
0000
0700
0100
0100
0100
1D00
2300
4100
4100
4100
4100
4100
4100
2300
1D80
0000
0000
0000
ENDCHAR
STARTCHAR 0065
ENCODING 101
SWIDTH 600 0
DWIDTH 10 0
BBX 10 20 0 -3
BITMAP
0000
0000
0000
0000
0000
0000
0000
1E00
2100
4080
4080
7F80
4000
4000
4080
2100
1E00
0000
0000
0000
ENDCHAR
STARTCHAR 0066
ENCODING 102
SWIDTH 600 0
DWIDTH 10 0
BBX 10 20 0 -3
BITMAP
0000
0000
0000
0F00
1080
1180
1000
7E00
1000
1000
1000
1000
1000
1000
1000
1000
7C00
0000
0000
0000
ENDCHAR
STARTCHAR 0067
ENCODING 103
SWIDTH 600 0
DWIDTH 10 0
BBX 10 20 0 -3
BITMAP
0000
0000
0000
0000
0000
0000
0080
3D80
4200
4200
4200
4200
3C00
4000
2000
5F00
8080
8080
8080
7F00
ENDCHAR
STARTCHAR 0068
ENCODING 104
SWIDTH 600 0
DWIDTH 10 0
BBX 10 20 0 -3
BITMAP
0000
0000
0000
E000
2000
2000
2000
2F00
3080
2080
2080
2080
2080
2080
2080
2080
F3C0
0000
0000
0000
ENDCHAR
STARTCHAR 0069
ENCODING 105
SWIDTH 600 0
DWIDTH 10 0
BBX 10 20 0 -3
BITMAP
0000
0000
0000
0C00
0C00
0000
0000
3C00
0400
0400
0400
0400
0400
0400
0400
0400
7F80
0000
0000
0000
ENDCHAR
STARTCHAR 006A
ENCODING 106
SWIDTH 600 0
DWIDTH 10 0
BBX 10 20 0 -3
BITMAP
0000
0000
0000
0180
0180
0000
0000
0F80
0080
0080
0080
0080
0080
0080
0080
0080
0080
6080
4100
3E00
ENDCHAR
STARTCHAR 006B
ENCODING 107
SWIDTH 600 0
DWIDTH 10 0
BBX 10 20 0 -3
BITMAP
0000
0000
0000
E000
2000
2000
2000
2780
2200
2400
2800
3000
2800
2400
2200
2100
F780
0000
0000
0000
ENDCHAR
STARTCHAR 006C
ENCODING 108
SWIDTH 600 0
DWIDTH 10 0
BBX 10 20 0 -3
BITMAP
0000
0000
0000
3C00
0400
0400
0400
0400
0400
0400
0400
0400
0400
0400
0400
0400
7F80
0000
0000
0000
ENDCHAR
STARTCHAR 006D
ENCODING 109
SWIDTH 600 0
DWIDTH 10 0
BBX 10 20 0 -3
BITMAP
0000
0000
0000
0000
0000
0000
0000
DB00
2480
2480
2480
2480
2480
2480
2480
2480
64C0
0000
0000
0000
ENDCHAR
STARTCHAR 006E
ENCODING 110
SWIDTH 600 0
DWIDTH 10 0
BBX 10 20 0 -3
BITMAP
0000
0000
0000
0000
0000
0000
0000
EF00
3080
2080
2080
2080
2080
2080
2080
2080
71C0
0000
0000
0000
ENDCHAR
STARTCHAR 006F
ENCODING 111
SWIDTH 600 0
DWIDTH 10 0
BBX 10 20 0 -3
BITMAP
0000
0000
0000
0000
0000
0000
0000
1E00
2100
4080
4080
4080
4080
4080
4080
2100
1E00
0000
0000
0000
ENDCHAR
STARTCHAR 0070
ENCODING 112
SWIDTH 600 0
DWIDTH 10 0
BBX 10 20 0 -3
BITMAP
0000
0000
0000
0000
0000
0000
0000
EE00
3100
2080
2080
2080
2080
2080
3100
2E00
2000
2000
2000
7000
ENDCHAR
STARTCHAR 0071
ENCODING 113
SWIDTH 600 0
DWIDTH 10 0
BBX 10 20 0 -3
BITMAP
0000
0000
0000
0000
0000
0000
0000
1D00
2300
4100
4100
4100
4100
4100
2300
1D00
0100
0100
0100
0380
ENDCHAR
STARTCHAR 0072
ENCODING 114
SWIDTH 600 0
DWIDTH 10 0
BBX 10 20 0 -3
BITMAP
0000
0000
0000
0000
0000
0000
0000
7700
1880
1180
1000
1000
1000
1000
1000
1000
7C00
0000
0000
0000
ENDCHAR
STARTCHAR 0073
ENCODING 115
SWIDTH 600 0
DWIDTH 10 0
BBX 10 20 0 -3
BITMAP
0000
0000
0000
0000
0000
0000
0000
3E80
4180
4080
6000
1C00
0300
4080
4080
6080
5F00
0000
0000
0000
ENDCHAR
STARTCHAR 0074
ENCODING 116
SWIDTH 600 0
DWIDTH 10 0
BBX 10 20 0 -3
BITMAP
0000
0000
0000
0800
0800
0800
0800
7F00
0800
0800
0800
0800
0800
0800
0880
0880
0700
0000
0000
0000
ENDCHAR
STARTCHAR 0075
ENCODING 117
SWIDTH 600 0
DWIDTH 10 0
BBX 10 20 0 -3
BITMAP
0000
0000
0000
0000
0000
0000
0000
E380
2080
2080
2080
2080
2080
2080
2080
2180
1EC0
0000
0000
0000
ENDCHAR
STARTCHAR 0076
ENCODING 118
SWIDTH 600 0
DWIDTH 10 0
BBX 10 20 0 -3
BITMAP
0000
0000
0000
0000
0000
0000
0000
F3C0
2080
2080
1100
1100
1100
0A00
0E00
0400
0400
0000
0000
0000
ENDCHAR
STARTCHAR 0077
ENCODING 119
SWIDTH 600 0
DWIDTH 10 0
BBX 10 20 0 -3
BITMAP
0000
0000
0000
0000
0000
0000
0000
E780
4100
4900
4900
4900
5D00
5500
5500
2200
2200
0000
0000
0000
ENDCHAR
STARTCHAR 0078
ENCODING 120
SWIDTH 600 0
DWIDTH 10 0
BBX 10 20 0 -3
BITMAP
0000
0000
0000
0000
0000
0000
0000
F780
2200
2200
1400
0800
0800
1400
2200
2200
F780
0000
0000
0000
ENDCHAR
STARTCHAR 0079
ENCODING 121
SWIDTH 600 0
DWIDTH 10 0
BBX 10 20 0 -3
BITMAP
0000
0000
0000
0000
0000
0000
0000
F1C0
2080
2080
2100
1100
1200
0A00
0A00
0400
0400
C800
8800
7000
ENDCHAR
STARTCHAR 007A
ENCODING 122
SWIDTH 600 0
DWIDTH 10 0
BBX 10 20 0 -3
BITMAP
0000
0000
0000
0000
0000
0000
0000
7F80
4100
4200
0200
0400
0800
0800
1080
2080
7F80
0000
0000
0000
ENDCHAR
STARTCHAR 007B
ENCODING 123
SWIDTH 600 0
DWIDTH 10 0
BBX 10 20 0 -3
BITMAP
0200
0400
0400
0800
0800
0800
0800
0800
0800
3000
0800
0800
0800
0800
0800
0800
0400
0400
0200
0000
ENDCHAR
STARTCHAR 007C
ENCODING 124
SWIDTH 600 0
DWIDTH 10 0
BBX 10 20 0 -3
BITMAP
0800
0800
0800
0800
0800
0800
0800
0800
0800
0800
0800
0800
0800
0800
0800
0800
0800
0800
0800
0800
ENDCHAR
STARTCHAR 007D
ENCODING 125
SWIDTH 600 0
DWIDTH 10 0
BBX 10 20 0 -3
BITMAP
1000
0800
0800
0400
0400
0400
0400
0400
0400
0300
0400
0400
0400
0400
0400
0400
0800
0800
1000
0000
ENDCHAR
STARTCHAR 007E
ENCODING 126
SWIDTH 600 0
DWIDTH 10 0
BBX 10 20 0 -3
BITMAP
0000
3000
4C80
0300
0000
0000
0000
0000
0000
0000
0000
0000
0000
0000
0000
0000
0000
0000
0000
0000
ENDCHAR
STARTCHAR 00A0
ENCODING 160
SWIDTH 600 0
DWIDTH 10 0
BBX 10 20 0 -3
BITMAP
0000
0000
0000
0C00
0C00
0000
0000
3C00
0400
0400
0400
0400
0400
0400
0400
0400
7F80
0000
0000
0000
ENDCHAR
STARTCHAR 00A1
ENCODING 161
SWIDTH 600 0
DWIDTH 10 0
BBX 10 20 0 -3
BITMAP
0000
0000
0000
0000
0000
0000
0000
3F80
0400
0400
0400
0400
0400
0400
0400
0400
3F80
0000
0000
0000
ENDCHAR
STARTCHAR 00A2
ENCODING 162
SWIDTH 600 0
DWIDTH 10 0
BBX 10 20 0 -3
BITMAP
0000
0000
0000
0000
0000
0000
0000
1E00
2100
4080
4080
7F80
4000
4000
4080
2100
1E00
0000
0000
0000
ENDCHAR
STARTCHAR 00A3
ENCODING 163
SWIDTH 600 0
DWIDTH 10 0
BBX 10 20 0 -3
BITMAP
0000
0000
0000
0000
0000
0000
0000
1E00
2100
4080
2000
1E00
2000
4000
4080
2100
1E00
0000
0000
0000
ENDCHAR
STARTCHAR 00A4
ENCODING 164
SWIDTH 600 0
DWIDTH 10 0
BBX 10 20 0 -3
BITMAP
0000
0000
0000
0000
0000
0000
0000
7B80
8C40
8840
0840
1FC0
6800
8800
8800
8C40
7380
0000
0000
0000
ENDCHAR
STARTCHAR 00A5
ENCODING 165
SWIDTH 600 0
DWIDTH 10 0
BBX 10 20 0 -3
BITMAP
0000
0000
0000
0000
0000
0000
0000
1F00
2080
6080
0080
0F80
3080
4080
4080
4180
3EC0
0000
0000
0000
ENDCHAR
STARTCHAR 00A6
ENCODING 166
SWIDTH 600 0
DWIDTH 10 0
BBX 10 20 0 -3
BITMAP
0000
0000
0000
0C00
0C00
0000
0000
3C00
0400
0400
0400
7F80
0400
0400
0400
0400
7F80
0000
0000
0000
ENDCHAR
STARTCHAR 00A7
ENCODING 167
SWIDTH 1200 0
DWIDTH 20 0
BBX 10 18 5 -2
BITMAP
3E00
4180
8040
C0C0
6000
3800
2F00
4180
80C0
C040
6080
3D00
0700
0180
C040
80C0
6080
1F00
ENDCHAR
STARTCHAR 00A8
ENCODING 168
SWIDTH 1200 0
DWIDTH 20 0
BBX 10 3 5 14
BITMAP
4080
E1C0
4080
ENDCHAR
STARTCHAR 00A9
ENCODING 169
SWIDTH 600 0
DWIDTH 10 0
BBX 10 10 0 0
BITMAP
C900
4900
4900
4900
4900
4900
4900
4900
4900
36C0
ENDCHAR
STARTCHAR 00AA
ENCODING 170
SWIDTH 600 0
DWIDTH 10 0
BBX 10 10 0 0
BITMAP
6080
B140
3100
1A00
1A00
0C00
0C00
1200
1200
0C00
ENDCHAR
STARTCHAR 00AB
ENCODING 171
SWIDTH 600 0
DWIDTH 10 0
BBX 10 10 0 0
BITMAP
0400
0400
0A00
0A00
1100
1100
1100
2080
2080
F3C0
ENDCHAR
STARTCHAR 00AC
ENCODING 172
SWIDTH 600 0
DWIDTH 10 0
BBX 9 10 1 0
BITMAP
3D00
4300
4100
8100
8100
8100
8100
8300
4500
3980
ENDCHAR
STARTCHAR 00AD
ENCODING 173
SWIDTH 600 0
DWIDTH 10 0
BBX 10 13 0 -3
BITMAP
F1C0
2080
2080
2100
1100
1200
0A00
0A00
0400
0400
C800
8800
7000
ENDCHAR
STARTCHAR 00AE
ENCODING 174
SWIDTH 600 0
DWIDTH 10 0
BBX 9 10 1 0
BITMAP
F380
2100
2100
3200
1200
1C00
0800
0800
0800
3E00
ENDCHAR
STARTCHAR 00AF
ENCODING 175
SWIDTH 600 0
DWIDTH 10 0
BBX 8 14 1 -2
BITMAP
02
02
3C
46
85
89
89
91
91
A1
62
3C
40
40
ENDCHAR
STARTCHAR 00B0
ENCODING 176
SWIDTH 1200 0
DWIDTH 20 0
BBX 4 4 2 11
BITMAP
60
90
90
60
ENDCHAR
STARTCHAR 00B1
ENCODING 177
SWIDTH 1200 0
DWIDTH 20 0
BBX 12 14 4 0
BITMAP
0400
0400
0400
0400
0400
FFF0
0400
0400
0400
0400
0400
0000
0000
FFF0
ENDCHAR
STARTCHAR 00B2
ENCODING 178
SWIDTH 600 0
DWIDTH 10 0
BBX 10 10 0 0
BITMAP
E380
2080
2080
2080
FFC0
2080
2080
2080
2180
1EC0
ENDCHAR
STARTCHAR 00B3
ENCODING 179
SWIDTH 600 0
DWIDTH 10 0
BBX 8 10 1 0
BITMAP
3C
42
81
81
FF
81
81
81
42
3C
ENDCHAR
STARTCHAR 00B4
ENCODING 180
SWIDTH 1200 0
DWIDTH 20 0
BBX 6 4 7 13
BITMAP
1C
30
40
80
ENDCHAR
STARTCHAR 00B5
ENCODING 181
SWIDTH 600 0
DWIDTH 10 0
BBX 10 10 0 0
BITMAP
F3C0
1200
1200
2100
4080
8040
8040
8040
6180
1E00
ENDCHAR
STARTCHAR 00B6
ENCODING 182
SWIDTH 1200 0
DWIDTH 20 0
BBX 10 19 4 -3
BITMAP
1FC0
7C40
7C40
FC40
FC40
7C40
7C40
1C40
0440
0440
0440
0440
0440
0440
0440
0440
0440
0440
0440
ENDCHAR
STARTCHAR 00B7
ENCODING 183
SWIDTH 600 0
DWIDTH 10 0
BBX 10 18 0 -3
BITMAP
0000
0000
0000
0000
0000
1E00
2100
4080
0080
0080
0080
0080
4080
2100
1E00
0000
0000
0000
ENDCHAR
STARTCHAR 00B8
ENCODING 184
SWIDTH 600 0
DWIDTH 10 0
BBX 10 18 0 -3
BITMAP
0000
0000
0000
0000
0000
6700
2880
3040
2040
2040
2040
2040
2080
3080
2F00
0000
0000
0000
ENDCHAR
STARTCHAR 00BA
ENCODING 186
SWIDTH 600 0
DWIDTH 10 0
BBX 10 18 0 -3
BITMAP
0000
0000
0000
0000
0000
3800
4400
8280
0380
0E80
3280
C240
8240
4400
3800
0000
0000
0000
ENDCHAR
STARTCHAR 00BB
ENCODING 187
SWIDTH 600 0
DWIDTH 10 0
BBX 10 18 0 -3
BITMAP
0000
1900
2600
0000
0000
1E00
2100
4080
2000
1E00
2000
4000
4080
2100
1E00
0000
0000
0000
ENDCHAR
STARTCHAR 00BC
ENCODING 188
SWIDTH 600 0
DWIDTH 10 0
BBX 10 18 0 -3
BITMAP
0000
1900
2600
0000
0000
1E80
2180
2080
4080
4080
4080
4080
4180
2280
1CC0
0000
0000
0000
ENDCHAR
STARTCHAR 00BD
ENCODING 189
SWIDTH 600 0
DWIDTH 10 0
BBX 10 18 0 -3
BITMAP
0000
1900
2600
0000
0000
7300
8C80
8840
8840
8FC0
8800
8800
8800
8C40
7380
0000
0000
0000
ENDCHAR
STARTCHAR 00BE
ENCODING 190
SWIDTH 600 0
DWIDTH 10 0
BBX 10 18 0 -3
BITMAP
0000
1900
2600
0000
0000
1E00
2100
4080
0080
0080
0080
0080
4080
2100
1E00
0000
0000
0000
ENDCHAR
STARTCHAR 00C0
ENCODING 192
SWIDTH 600 0
DWIDTH 10 0
BBX 10 18 0 -3
BITMAP
0000
0000
0000
0000
0000
EE00
3100
2080
2080
2080
2080
2080
3100
2E00
2000
2000
2000
7000
ENDCHAR
STARTCHAR 00C1
ENCODING 193
SWIDTH 600 0
DWIDTH 10 0
BBX 10 18 0 -3
BITMAP
0000
E000
2000
2000
2000
2E00
3100
2080
2080
2080
2080
2080
2080
3100
2E00
0000
0000
0000
ENDCHAR
STARTCHAR 00C2
ENCODING 194
SWIDTH 600 0
DWIDTH 10 0
BBX 10 18 0 -3
BITMAP
0000
0800
0800
0800
0800
7F00
0800
0800
0800
0800
0800
0800
0880
0880
0700
0000
0000
0000
ENDCHAR
STARTCHAR 00C3
ENCODING 195
SWIDTH 600 0
DWIDTH 10 0
BBX 10 18 0 -3
BITMAP
0000
0700
0100
0100
0100
1D00
2300
4100
4100
4100
4100
4100
4100
2300
1D80
0000
0000
0000
ENDCHAR
STARTCHAR 00C4
ENCODING 196
SWIDTH 600 0
DWIDTH 10 0
BBX 10 18 0 -3
BITMAP
0000
E000
2000
2000
2000
2780
2200
2400
2800
3000
2800
2400
2200
2100
F780
0000
0000
0000
ENDCHAR
STARTCHAR 00C5
ENCODING 197
SWIDTH 600 0
DWIDTH 10 0
BBX 10 18 0 -3
BITMAP
0000
0000
0000
0000
0000
1D80
2300
4100
4100
4100
4100
2300
1D00
0100
6100
4100
2200
1C00
ENDCHAR
STARTCHAR 00C6
ENCODING 198
SWIDTH 600 0
DWIDTH 10 0
BBX 10 18 0 -3
BITMAP
0000
0F00
1080
1180
1000
7E00
1000
1000
1000
1000
1000
1000
1000
1000
7C00
0000
0000
0000
ENDCHAR
STARTCHAR 00C7
ENCODING 199
SWIDTH 600 0
DWIDTH 10 0
BBX 10 18 0 -3
BITMAP
0000
0000
0000
0000
0000
F3C0
2080
2080
1100
1100
1100
0A00
0E00
0400
0400
0000
0000
0000
ENDCHAR
STARTCHAR 00C8
ENCODING 200
SWIDTH 600 0
DWIDTH 10 0
BBX 10 18 0 -3
BITMAP
0000
0E00
1100
2080
2080
2080
2080
3F80
2080
2080
2080
2080
2080
1100
0E00
0000
0000
0000
ENDCHAR
STARTCHAR 00C9
ENCODING 201
SWIDTH 600 0
DWIDTH 10 0
BBX 10 18 0 -3
BITMAP
6200
1400
0800
1400
6200
0100
1F00
2180
4080
4080
4080
4080
4080
2100
1E00
0000
0000
0000
ENDCHAR
STARTCHAR 00CA
ENCODING 202
SWIDTH 600 0
DWIDTH 10 0
BBX 10 18 0 -3
BITMAP
0000
0000
0000
0000
0000
3E80
4180
4080
6000
1C00
0300
4080
4080
6080
5F00
0000
0000
0000
ENDCHAR
STARTCHAR 00CB
ENCODING 203
SWIDTH 600 0
DWIDTH 10 0
BBX 10 18 0 -3
BITMAP
0000
0000
0000
0000
0000
7F80
4100
4200
0200
0400
0800
0800
1080
2080
7F80
0000
0000
0000
ENDCHAR
STARTCHAR 00CC
ENCODING 204
SWIDTH 600 0
DWIDTH 10 0
BBX 10 18 0 -3
BITMAP
0180
0280
0200
0200
0400
0400
0400
0400
0400
0400
0400
0400
0400
0400
0800
0800
2800
3000
ENDCHAR
STARTCHAR 00CD
ENCODING 205
SWIDTH 600 0
DWIDTH 10 0
BBX 10 18 0 -3
BITMAP
0000
0000
0000
0000
0000
7F80
4100
4200
0400
0800
1600
2100
0080
0080
6080
4080
4100
3E00
ENDCHAR
STARTCHAR 00CE
ENCODING 206
SWIDTH 600 0
DWIDTH 10 0
BBX 10 18 0 -3
BITMAP
0000
0000
0000
0000
0000
1E00
2100
4180
4000
4000
4000
4080
2100
1E00
0800
0600
0100
0E00
ENDCHAR
STARTCHAR 00CF
ENCODING 207
SWIDTH 600 0
DWIDTH 10 0
BBX 10 18 0 -3
BITMAP
0000
0000
0000
0000
0000
F780
2200
2200
1400
0800
0800
1400
2200
2200
F780
0000
0000
0000
ENDCHAR
STARTCHAR 00D0
ENCODING 208
SWIDTH 600 0
DWIDTH 10 0
BBX 10 18 0 -3
BITMAP
0000
0000
0000
0000
0000
F3C0
4100
4200
4200
4400
7F00
4080
4080
4080
FF00
0000
0000
0000
ENDCHAR
STARTCHAR 00D1
ENCODING 209
SWIDTH 600 0
DWIDTH 10 0
BBX 10 18 0 -3
BITMAP
0000
E000
2000
2000
2000
2F00
3080
2080
2080
2080
2080
2080
2080
2080
F3C0
0000
0000
0000
ENDCHAR
STARTCHAR 00D2
ENCODING 210
SWIDTH 600 0
DWIDTH 10 0
BBX 10 18 0 -3
BITMAP
0000
0000
0000
0000
0000
DB00
2480
2480
2480
2480
2480
2480
2480
2480
64C0
0000
0000
0000
ENDCHAR
STARTCHAR 00D3
ENCODING 211
SWIDTH 600 0
DWIDTH 10 0
BBX 10 18 0 -3
BITMAP
0000
0000
0000
0000
0000
EF00
3080
2080
2080
2080
2080
2080
2080
2080
71C0
0000
0000
0000
ENDCHAR
STARTCHAR 00D4
ENCODING 212
SWIDTH 600 0
DWIDTH 10 0
BBX 10 18 0 -3
BITMAP
0000
0000
0000
0000
0000
EF00
3080
2080
2080
2080
2080
2080
2080
2080
21C0
2000
A000
C000
ENDCHAR
STARTCHAR 00D5
ENCODING 213
SWIDTH 600 0
DWIDTH 10 0
BBX 10 18 0 -3
BITMAP
0000
0000
0000
0000
0000
EE00
3100
2080
2080
2080
2080
2080
2080
7080
0080
3100
2100
1E00
ENDCHAR
STARTCHAR 00D6
ENCODING 214
SWIDTH 600 0
DWIDTH 10 0
BBX 10 18 0 -3
BITMAP
0000
0000
0000
0000
0000
7700
1880
1180
1000
1000
1000
1000
1000
1000
7C00
0000
0000
0000
ENDCHAR
STARTCHAR 00D7
ENCODING 215
SWIDTH 1200 0
DWIDTH 20 0
BBX 10 10 5 2
BITMAP
8040
4080
2100
1200
0C00
0C00
1200
2100
4080
8040
ENDCHAR
STARTCHAR 00D8
ENCODING 216
SWIDTH 600 0
DWIDTH 10 0
BBX 8 10 1 0
BITMAP
1F
04
04
04
04
04
04
C4
8C
77
ENDCHAR
STARTCHAR 00D9
ENCODING 217
SWIDTH 600 0
DWIDTH 10 0
BBX 8 17 1 -3
BITMAP
03
03
00
00
1F
01
01
01
01
01
01
01
01
01
C1
82
7C
ENDCHAR
STARTCHAR 00DA
ENCODING 218
SWIDTH 600 0
DWIDTH 10 0
BBX 8 14 1 0
BITMAP
78
08
08
08
08
08
08
08
08
08
08
08
08
FF
ENDCHAR
STARTCHAR 00DB
ENCODING 219
SWIDTH 600 0
DWIDTH 10 0
BBX 10 13 0 0
BITMAP
0380
0440
04C0
0800
0800
1400
1400
1200
2200
2100
4100
4100
E3C0
ENDCHAR
STARTCHAR 00DC
ENCODING 220
SWIDTH 600 0
DWIDTH 10 0
BBX 9 10 0 0
BITMAP
F800
2000
2000
2000
2000
2000
2080
2080
2080
FF80
ENDCHAR
STARTCHAR 00DD
ENCODING 221
SWIDTH 600 0
DWIDTH 10 0
BBX 10 13 0 -3
BITMAP
F3C0
4100
4100
4100
4100
4100
4100
4300
3D00
0100
0100
0100
01C0
ENDCHAR
STARTCHAR 00DE
ENCODING 222
SWIDTH 600 0
DWIDTH 10 0
BBX 9 10 0 0
BITMAP
E780
4100
4900
4900
4900
5D00
5500
5500
2200
2200
ENDCHAR
STARTCHAR 00DF
ENCODING 223
SWIDTH 600 0
DWIDTH 10 0
BBX 9 10 0 0
BITMAP
2200
2200
5500
5500
5D00
4900
4900
4900
4100
F380
ENDCHAR
STARTCHAR 00F0
ENCODING 240
SWIDTH 600 0
DWIDTH 10 0
BBX 1 4 5 9
BITMAP
80
80
80
80
ENDCHAR
STARTCHAR 00F1
ENCODING 241
SWIDTH 600 0
DWIDTH 10 0
BBX 1 4 5 -3
BITMAP
80
80
80
80
ENDCHAR
STARTCHAR 00F2
ENCODING 242
SWIDTH 600 0
DWIDTH 10 0
BBX 5 12 2 -1
BITMAP
F8
70
20
20
00
00
00
00
20
20
70
F8
ENDCHAR
STARTCHAR 00F7
ENCODING 247
SWIDTH 1200 0
DWIDTH 20 0
BBX 20 20 0 -3
BITMAP
000000
000000
000000
000000
006000
006000
000000
000000
000000
0FFF80
000000
000000
000000
006000
006000
000000
000000
000000
000000
000000
ENDCHAR
STARTCHAR 0391
ENCODING 913
SWIDTH 1200 0
DWIDTH 20 0
BBX 20 20 0 -3
BITMAP
000000
000000
004000
004000
00E000
00A000
00A000
013000
011000
011800
020800
020800
07FC00
040400
040600
080200
080200
3E0F80
000000
000000
ENDCHAR
STARTCHAR 0392
ENCODING 914
SWIDTH 1200 0
DWIDTH 20 0
BBX 20 20 0 -3
BITMAP
000000
000000
0FF800
020400
020200
020200
020200
020400
020800
03F800
020400
020200
020100
020100
020100
020100
020200
0FFC00
000000
000000
ENDCHAR
STARTCHAR 0393
ENCODING 915
SWIDTH 1200 0
DWIDTH 20 0
BBX 20 20 0 -3
BITMAP
000000
000000
07FF80
010080
010080
010080
010000
010000
010000
010000
010000
010000
010000
010000
010000
010000
010000
07C000
000000
000000
ENDCHAR
STARTCHAR 0394
ENCODING 916
SWIDTH 1200 0
DWIDTH 20 0
BBX 20 20 0 -3
BITMAP
000000
000000
004000
004000
00E000
00A000
013000
011000
011800
020800
020C00
040400
040600
080200
080300
100100
100180
3FFF80
000000
000000
ENDCHAR
STARTCHAR 0395
ENCODING 917
SWIDTH 1200 0
DWIDTH 20 0
BBX 20 20 0 -3
BITMAP
000000
000000
0FFF00
020100
020100
020100
021000
021000
021000
03F000
021000
021000
021000
020000
020100
020100
020100
0FFF00
000000
000000
ENDCHAR
STARTCHAR 0396
ENCODING 918
SWIDTH 1200 0
DWIDTH 20 0
BBX 20 20 0 -3
BITMAP
000000
000000
0FFF00
080600
080C00
080800
001800
003000
002000
006000
00C000
008000
018000
030000
020100
060100
0C0100
1FFF00
000000
000000
ENDCHAR
STARTCHAR 0397
ENCODING 919
SWIDTH 1200 0
DWIDTH 20 0
BBX 20 20 0 -3
BITMAP
000000
000000
1F0F80
040200
040200
040200
040200
040200
040200
07FE00
040200
040200
040200
040200
040200
040200
040200
1F0F80
000000
000000
ENDCHAR
STARTCHAR 0398
ENCODING 920
SWIDTH 1200 0
DWIDTH 20 0
BBX 20 20 0 -3
BITMAP
000000
000000
00F000
030C00
040200
080100
080100
110880
110880
11F880
110880
110880
110880
080100
080100
040200
030C00
00F000
000000
000000
ENDCHAR
STARTCHAR 0399
ENCODING 921
SWIDTH 1200 0
DWIDTH 20 0
BBX 20 20 0 -3
BITMAP
000000
000000
01FC00
002000
002000
002000
002000
002000
002000
002000
002000
002000
002000
002000
002000
002000
002000
01FC00
000000
000000
ENDCHAR
STARTCHAR 039A
ENCODING 922
SWIDTH 1200 0
DWIDTH 20 0
BBX 20 20 0 -3
BITMAP
000000
000000
0F9F80
020200
020400
020800
021000
022000
024000
038000
02C000
026000
023000
021800
020C00
020600
020300
0F8FC0
000000
000000
ENDCHAR
STARTCHAR 039B
ENCODING 923
SWIDTH 1200 0
DWIDTH 20 0
BBX 20 20 0 -3
BITMAP
000000
000000
004000
004000
00E000
00A000
00B000
011000
011000
011800
020800
020C00
060400
040400
040600
080200
080200
3E0F80
000000
000000
ENDCHAR
STARTCHAR 039C
ENCODING 924
SWIDTH 1200 0
DWIDTH 20 0
BBX 20 20 0 -3
BITMAP
000000
000000
7001E0
100180
180280
180280
1C0480
140480
160880
120880
131080
111080
11A080
10A080
10C080
104080
104080
7C03E0
000000
000000
ENDCHAR
STARTCHAR 039D
ENCODING 925
SWIDTH 1200 0
DWIDTH 20 0
BBX 20 20 0 -3
BITMAP
000000
000000
1C0F80
0E0200
0A0200
0B0200
098200
088200
08C200
086200
082200
083200
081A00
080A00
080E00
080600
080200
3E0200
000000
000000
ENDCHAR
STARTCHAR 039E
ENCODING 926
SWIDTH 1200 0
DWIDTH 20 0
BBX 20 20 0 -3
BITMAP
000000
000000
0FFF80
080080
080080
080080
000000
010400
010400
01FC00
010400
010400
000000
080080
080080
080080
080080
0FFF80
000000
000000
ENDCHAR
STARTCHAR 039F
ENCODING 927
SWIDTH 1200 0
DWIDTH 20 0
BBX 20 20 0 -3
BITMAP
000000
000000
00F000
030C00
040200
080100
080100
180080
100080
100080
100080
100080
100180
080100
080100
040200
030C00
00F000
000000
000000
ENDCHAR
STARTCHAR 03A0
ENCODING 928
SWIDTH 1200 0
DWIDTH 20 0
BBX 20 20 0 -3
BITMAP
000000
000000
0FFF80
020200
020200
020200
020200
020200
020200
020200
020200
020200
020200
020200
020200
020200
020200
0F8F80
000000
000000
ENDCHAR
STARTCHAR 03A1
ENCODING 929
SWIDTH 1200 0
DWIDTH 20 0
BBX 20 20 0 -3
BITMAP
000000
000000
07FE00
010100
010080
010080
010080
010080
010100
01FE00
010000
010000
010000
010000
010000
010000
010000
07C000
000000
000000
ENDCHAR
STARTCHAR 03A3
ENCODING 931
SWIDTH 1200 0
DWIDTH 20 0
BBX 20 20 0 -3
BITMAP
000000
000000
1FFF00
0C0100
060100
030100
018000
00C000
006000
003000
004000
008000
010000
020100
040100
080100
100100
1FFF00
000000
000000
ENDCHAR
STARTCHAR 03A4
ENCODING 932
SWIDTH 1200 0
DWIDTH 20 0
BBX 20 20 0 -3
BITMAP
000000
000000
1FFFC0
102040
102040
102040
002000
002000
002000
002000
002000
002000
002000
002000
002000
002000
002000
00F800
000000
000000
ENDCHAR
STARTCHAR 03A5
ENCODING 933
SWIDTH 1200 0
DWIDTH 20 0
BBX 20 20 0 -3
BITMAP
000000
000000
038E00
0C5180
102040
102040
202020
202020
002000
002000
002000
002000
002000
002000
002000
002000
002000
01FC00
000000
000000
ENDCHAR
STARTCHAR 03A6
ENCODING 934
SWIDTH 1200 0
DWIDTH 20 0
BBX 20 20 0 -3
BITMAP
000000
000000
00F800
002000
002000
01FC00
062300
082080
102040
102040
102040
102040
082080
062300
01FC00
002000
002000
00F800
000000
000000
ENDCHAR
STARTCHAR 03A7
ENCODING 935
SWIDTH 1200 0
DWIDTH 20 0
BBX 20 20 0 -3
BITMAP
000000
000000
1F0F80
040200
060200
030400
010800
019000
00D000
006000
007000
009000
011800
010C00
020400
040600
040300
1F0FC0
000000
000000
ENDCHAR
STARTCHAR 03A8
ENCODING 936
SWIDTH 1200 0
DWIDTH 20 0
BBX 20 20 0 -3
BITMAP
000000
000000
00F800
1C21C0
222220
022200
022200
022200
022200
022200
012400
012400
00F800
002000
002000
002000
002000
00F800
000000
000000
ENDCHAR
STARTCHAR 03A9
ENCODING 937
SWIDTH 1200 0
DWIDTH 20 0
BBX 20 20 0 -3
BITMAP
000000
000000
01F800
060600
080100
080100
100080
100080
100080
080100
080100
040200
020400
110880
109080
109080
109080
1F9F80
000000
000000
ENDCHAR
STARTCHAR 03B1
ENCODING 945
SWIDTH 1200 0
DWIDTH 20 0
BBX 20 20 0 -3
BITMAP
000000
000000
000000
000000
000000
000000
000000
00E300
011200
021200
041400
041400
081800
081000
082900
044A00
038400
000000
000000
000000
ENDCHAR
STARTCHAR 03B2
ENCODING 946
SWIDTH 1200 0
DWIDTH 20 0
BBX 20 20 0 -3
BITMAP
000000
001E00
002100
004100
004100
008100
008200
013400
010800
020400
020200
040200
040200
040200
080400
090400
18F800
100000
100000
100000
ENDCHAR
STARTCHAR 03B3
ENCODING 947
SWIDTH 1200 0
DWIDTH 20 0
BBX 20 20 0 -3
BITMAP
000000
000000
000000
000000
000000
000000
000000
000000
078300
084600
104400
004800
005000
006000
004000
008000
008000
018000
010000
010000
ENDCHAR
STARTCHAR 03B4
ENCODING 948
SWIDTH 1200 0
DWIDTH 20 0
BBX 20 20 0 -3
BITMAP
000000
00F000
010C00
010200
008300
004100
002000
007000
018800
020800
040400
080400
080400
080800
080800
043000
03C000
000000
000000
000000
ENDCHAR
STARTCHAR 03B5
ENCODING 949
SWIDTH 1200 0
DWIDTH 20 0
BBX 20 20 0 -3
BITMAP
000000
000000
000000
000000
000000
000000
000000
00FC00
010200
020000
010000
00F800
030000
040000
040000
030600
00F800
000000
000000
000000
ENDCHAR
STARTCHAR 03B6
ENCODING 950
SWIDTH 1200 0
DWIDTH 20 0
BBX 20 20 0 -3
BITMAP
000000
010000
020200
040600
040800
03F000
002000
004000
008000
010000
020000
040000
040000
030000
00C000
003000
000800
000800
000800
007000
ENDCHAR
STARTCHAR 03B7
ENCODING 951
SWIDTH 1200 0
DWIDTH 20 0
BBX 20 20 0 -3
BITMAP
000000
000000
000000
000000
000000
000000
000000
071C00
08A200
00C100
018100
010200
020200
020400
040400
040800
0C0800
001000
001000
003000
ENDCHAR
STARTCHAR 03B8
ENCODING 952
SWIDTH 1200 0
DWIDTH 20 0
BBX 20 20 0 -3
BITMAP
000000
001C00
006200
008100
008100
010100
020100
020100
03FF00
040200
040200
040200
040400
040800
040800
023000
01C000
000000
000000
000000
ENDCHAR
STARTCHAR 03B9
ENCODING 953
SWIDTH 1200 0
DWIDTH 20 0
BBX 20 20 0 -3
BITMAP
000000
000000
000000
000000
000000
000000
000000
008000
008000
010000
010000
020000
020200
040400
040800
023000
01C000
000000
000000
000000
ENDCHAR
STARTCHAR 03BA
ENCODING 954
SWIDTH 1200 0
DWIDTH 20 0
BBX 20 20 0 -3
BITMAP
000000
000000
000000
000000
000000
000000
000000
010C00
011200
022200
024000
03C000
044000
044000
044200
082400
081800
000000
000000
000000
ENDCHAR
STARTCHAR 03BB
ENCODING 955
SWIDTH 1200 0
DWIDTH 20 0
BBX 20 20 0 -3
BITMAP
000000
006000
001000
001000
001000
001000
001000
003000
005800
004800
008800
010800
010400
020400
020600
040200
0C0300
000000
000000
000000
ENDCHAR
STARTCHAR 03BC
ENCODING 956
SWIDTH 1200 0
DWIDTH 20 0
BBX 20 20 0 -3
BITMAP
000000
000000
000000
000000
000000
000000
000000
030400
020400
020400
020800
040800
040800
041000
0C1080
0A2900
09C600
080000
100000
100000
ENDCHAR
STARTCHAR 03BD
ENCODING 957
SWIDTH 1200 0
DWIDTH 20 0
BBX 20 20 0 -3
BITMAP
000000
000000
000000
000000
000000
000000
000000
060100
020100
010200
010200
020400
020800
041000
046000
0D8000
060000
000000
000000
000000
ENDCHAR
STARTCHAR 03BE
ENCODING 958
SWIDTH 1200 0
DWIDTH 20 0
BBX 20 20 0 -3
BITMAP
000000
001E00
002000
004000
002000
00FE00
010000
020000
010000
00FE00
070000
080000
080000
040000
03C000
003800
000400
000400
001800
03E000
ENDCHAR
STARTCHAR 03BF
ENCODING 959
SWIDTH 1200 0
DWIDTH 20 0
BBX 20 20 0 -3
BITMAP
000000
000000
000000
000000
000000
000000
000000
007800
018400
020200
020200
040200
040200
040400
040400
021800
01E000
000000
000000
000000
ENDCHAR
STARTCHAR 03C0
ENCODING 960
SWIDTH 1200 0
DWIDTH 20 0
BBX 20 20 0 -3
BITMAP
000000
000000
000000
000000
000000
000000
000100
07FE00
088800
010800
011000
021000
022000
022000
042100
042200
0C1C00
000000
000000
000000
ENDCHAR
STARTCHAR 03C1
ENCODING 961
SWIDTH 1200 0
DWIDTH 20 0
BBX 20 20 0 -3
BITMAP
000000
000000
000000
000000
000000
000000
000000
003C00
004200
008100
010100
010100
020100
020200
020200
068C00
047000
040000
040000
0C0000
ENDCHAR
STARTCHAR 03C3
ENCODING 963
SWIDTH 1200 0
DWIDTH 20 0
BBX 20 20 0 -3
BITMAP
000000
000000
000000
000000
000000
000100
000180
007F00
018800
020400
020200
040200
040400
040400
040800
021000
01E000
000000
000000
000000
ENDCHAR
STARTCHAR 03C4
ENCODING 964
SWIDTH 1200 0
DWIDTH 20 0
BBX 20 20 0 -3
BITMAP
000000
000000
000000
000000
000000
000000
000100
07FE00
084000
008000
008000
010000
010000
020400
020800
013000
00C000
000000
000000
000000
ENDCHAR
STARTCHAR 03C5
ENCODING 965
SWIDTH 1200 0
DWIDTH 20 0
BBX 20 20 0 -3
BITMAP
000000
000000
000000
000000
000000
000000
000000
060400
010200
010200
020200
040200
040400
040400
040800
023000
01C000
000000
000000
000000
ENDCHAR
STARTCHAR 03C6
ENCODING 966
SWIDTH 1200 0
DWIDTH 20 0
BBX 20 20 0 -3
BITMAP
000000
000C00
000800
000800
001000
001000
001000
01FC00
062200
042100
082100
084100
084200
044600
03F800
008000
008000
010000
010000
030000
ENDCHAR
STARTCHAR 03C7
ENCODING 967
SWIDTH 1200 0
DWIDTH 20 0
BBX 20 20 0 -3
BITMAP
000000
000000
000000
000000
000000
000000
000000
038300
044600
004400
004800
005000
006000
004000
00C000
014000
024000
044000
082200
101C00
ENDCHAR
STARTCHAR 03C8
ENCODING 968
SWIDTH 1200 0
DWIDTH 20 0
BBX 20 20 0 -3
BITMAP
000000
000600
000400
000400
000800
000800
000800
061100
091100
011100
012100
022200
042200
044400
024800
01F000
008000
008000
008000
018000
ENDCHAR
STARTCHAR 03C9
ENCODING 969
SWIDTH 1200 0
DWIDTH 20 0
BBX 20 20 0 -3
BITMAP
000000
000000
000000
000000
000000
000000
000000
030100
042080
082080
082040
104040
104080
104080
10C100
092200
061C00
000000
000000
000000
ENDCHAR
STARTCHAR 0401
ENCODING 1025
SWIDTH 1200 0
DWIDTH 20 0
BBX 20 20 0 -3
BITMAP
030C00
030C00
000000
0FFF00
020100
020080
020080
021000
021000
021000
03D000
023000
021000
021000
020080
020080
020100
0FFF00
000000
000000
ENDCHAR
STARTCHAR 0410
ENCODING 1040
SWIDTH 1200 0
DWIDTH 20 0
BBX 20 20 0 -3
BITMAP
000000
000000
004000
004000
00E000
00A000
00A000
013000
011000
011800
020800
020800
07FC00
040400
040600
080200
080200
3E0F80
000000
000000
ENDCHAR
STARTCHAR 0411
ENCODING 1041
SWIDTH 1200 0
DWIDTH 20 0
BBX 20 20 0 -3
BITMAP
000000
000000
0FFE00
020200
020200
020200
020000
020000
020000
03FC00
020200
020100
020100
020100
020100
020100
020200
0FFC00
000000
000000
ENDCHAR
STARTCHAR 0412
ENCODING 1042
SWIDTH 1200 0
DWIDTH 20 0
BBX 20 20 0 -3
BITMAP
000000
000000
0FF800
020400
020200
020200
020200
020400
020800
03F800
020400
020200
020100
020100
020100
020100
020200
0FFC00
000000
000000
ENDCHAR
STARTCHAR 0413
ENCODING 1043
SWIDTH 1200 0
DWIDTH 20 0
BBX 20 20 0 -3
BITMAP
000000
000000
07FF00
010100
010080
010080
010000
010000
010000
010000
010000
010000
010000
010000
010000
010000
010000
07C000
000000
000000
ENDCHAR
STARTCHAR 0414
ENCODING 1044
SWIDTH 1200 0
DWIDTH 20 0
BBX 20 20 0 -3
BITMAP
000000
000000
03FF80
008200
008200
008200
008200
008200
010200
010200
010200
020200
020200
020200
040200
040200
080200
3FFF80
200080
200080
ENDCHAR
STARTCHAR 0415
ENCODING 1045
SWIDTH 1200 0
DWIDTH 20 0
BBX 20 20 0 -3
BITMAP
000000
000000
0FFF00
020100
020080
020080
021000
021000
021000
03F000
021000
021000
021000
020080
020080
020080
020100
0FFF00
000000
000000
ENDCHAR
STARTCHAR 0416
ENCODING 1046
SWIDTH 1200 0
DWIDTH 20 0
BBX 20 20 0 -3
BITMAP
000000
000000
18F8C0
242120
342160
022200
022200
022200
012400
00F800
00A800
012400
012400
022200
022200
042100
082080
3E73E0
000000
000000
ENDCHAR
STARTCHAR 0417
ENCODING 1047
SWIDTH 1200 0
DWIDTH 20 0
BBX 20 20 0 -3
BITMAP
000000
000000
03F800
040400
080200
080300
000300
000200
000400
00F800
000400
000200
000300
000100
080300
080200
040400
03F800
000000
000000
ENDCHAR
STARTCHAR 0418
ENCODING 1048
SWIDTH 1200 0
DWIDTH 20 0
BBX 20 20 0 -3
BITMAP
000000
000000
1E07C0
040300
040500
040900
040900
041100
042100
042100
044100
044100
048100
050100
050100
060100
040100
1F07C0
000000
000000
ENDCHAR
STARTCHAR 0419
ENCODING 1049
SWIDTH 1200 0
DWIDTH 20 0
BBX 20 20 0 -3
BITMAP
019800
010800
00F000
1E07C0
040100
040300
040500
040900
041100
041100
042100
044100
044100
048100
050100
060100
040100
1F07C0
000000
000000
ENDCHAR
STARTCHAR 041A
ENCODING 1050
SWIDTH 1200 0
DWIDTH 20 0
BBX 20 20 0 -3
BITMAP
000000
000000
0F8300
020480
020980
021000
021000
022000
024000
038000
024000
022000
021000
020800
020400
020200
020300
0F87C0
000000
000000
ENDCHAR
STARTCHAR 041B
ENCODING 1051
SWIDTH 1200 0
DWIDTH 20 0
BBX 20 20 0 -3
BITMAP
000000
000000
03FF80
008200
008200
008200
008200
008200
008200
008200
010200
010200
010200
010200
020200
320200
240200
180F80
000000
000000
ENDCHAR
STARTCHAR 041C
ENCODING 1052
SWIDTH 1200 0
DWIDTH 20 0
BBX 20 20 0 -3
BITMAP
000000
000000
3C01E0
0C0180
0E0180
0A0280
0A0280
0B0480
090480
098880
0888C0
10D040
105040
106040
102040
102040
100040
7C01F0
000000
000000
ENDCHAR
STARTCHAR 041D
ENCODING 1053
SWIDTH 1200 0
DWIDTH 20 0
BBX 20 20 0 -3
BITMAP
000000
000000
1F07C0
040100
040100
040100
040100
040100
040100
07FF00
040100
040100
040100
040100
040100
040100
040100
1F07C0
000000
000000
ENDCHAR
STARTCHAR 041E
ENCODING 1054
SWIDTH 1200 0
DWIDTH 20 0
BBX 20 20 0 -3
BITMAP
000000
000000
00F000
030C00
040200
080100
080100
180080
100080
100080
100080
100080
100180
080100
080100
040200
030C00
00F000
000000
000000
ENDCHAR
STARTCHAR 041F
ENCODING 1055
SWIDTH 1200 0
DWIDTH 20 0
BBX 20 20 0 -3
BITMAP
000000
000000
1FFF80
040200
040200
040200
040200
040200
040200
040200
040200
040200
040200
040200
040200
040200
040200
1F0F80
000000
000000
ENDCHAR
STARTCHAR 0420
ENCODING 1056
SWIDTH 1200 0
DWIDTH 20 0
BBX 20 20 0 -3
BITMAP
000000
000000
0FFC00
020200
020100
020100
020100
020100
020200
03FC00
020000
020000
020000
020000
020000
020000
020000
0F8000
000000
000000
ENDCHAR
STARTCHAR 0421
ENCODING 1057
SWIDTH 1200 0
DWIDTH 20 0
BBX 20 20 0 -3
BITMAP
000000
000000
01FC00
020300
040100
080100
080080
100000
100000
100000
100000
100000
100000
080000
080080
040100
020600
01F800
000000
000000
ENDCHAR
STARTCHAR 0422
ENCODING 1058
SWIDTH 1200 0
DWIDTH 20 0
BBX 20 20 0 -3
BITMAP
000000
000000
1FFFC0
102040
102040
102040
002000
002000
002000
002000
002000
002000
002000
002000
002000
002000
002000
00F800
000000
000000
ENDCHAR
STARTCHAR 0423
ENCODING 1059
SWIDTH 1200 0
DWIDTH 20 0
BBX 20 20 0 -3
BITMAP
000000
000000
1F87C0
040100
060100
020200
030200
010400
018400
008800
00C800
005000
003000
002000
182000
184000
108000
0F0000
000000
000000
ENDCHAR
STARTCHAR 0424
ENCODING 1060
SWIDTH 1200 0
DWIDTH 20 0
BBX 20 20 0 -3
BITMAP
000000
000000
00F800
002000
002000
01FC00
062300
082080
102040
102040
102040
102040
082080
062300
01FC00
002000
002000
00F800
000000
000000
ENDCHAR
STARTCHAR 0425
ENCODING 1061
SWIDTH 1200 0
DWIDTH 20 0
BBX 20 20 0 -3
BITMAP
000000
000000
0F87C0
020100
030200
010400
018400
00C800
005000
006000
003000
005800
008800
008C00
010600
020200
020300
0F87C0
000000
000000
ENDCHAR
STARTCHAR 0426
ENCODING 1062
SWIDTH 1200 0
DWIDTH 20 0
BBX 20 20 0 -3
BITMAP
000000
000000
1F0F80
040200
040200
040200
040200
040200
040200
040200
040200
040200
040200
040200
040200
040200
040200
1FFF80
000080
000080
ENDCHAR
STARTCHAR 0427
ENCODING 1063
SWIDTH 1200 0
DWIDTH 20 0
BBX 20 20 0 -3
BITMAP
000000
000000
0F87C0
020100
020100
020100
020100
020100
020100
020100
020700
010900
00F100
000100
000100
000100
000100
0007C0
000000
000000
ENDCHAR
STARTCHAR 0428
ENCODING 1064
SWIDTH 1200 0
DWIDTH 20 0
BBX 20 20 0 -3
BITMAP
000000
000000
7CF9F0
102040
102040
102040
102040
102040
102040
102040
102040
102040
102040
102040
102040
102040
102040
7FFFF0
000000
000000
ENDCHAR
STARTCHAR 0429
ENCODING 1065
SWIDTH 1200 0
DWIDTH 20 0
BBX 20 20 0 -3
BITMAP
000000
000000
7CF9F0
102040
102040
102040
102040
102040
102040
102040
102040
102040
102040
102040
102040
102040
102040
7FFFF0
000010
000010
ENDCHAR
STARTCHAR 042A
ENCODING 1066
SWIDTH 1200 0
DWIDTH 20 0
BBX 20 20 0 -3
BITMAP
000000
000000
3FC000
210000
210000
210000
010000
010000
010000
01FE00
010100
010080
010080
010080
010080
010080
010100
07FE00
000000
000000
ENDCHAR
STARTCHAR 042B
ENCODING 1067
SWIDTH 1200 0
DWIDTH 20 0
BBX 20 20 0 -3
BITMAP
000000
000000
3E03E0
080080
080080
080080
080080
080080
080080
0FE080
081080
080880
080880
080880
080880
081080
081080
3FE3E0
000000
000000
ENDCHAR
STARTCHAR 042C
ENCODING 1068
SWIDTH 1200 0
DWIDTH 20 0
BBX 20 20 0 -3
BITMAP
000000
000000
0F8000
020000
020000
020000
020000
020000
020000
03FC00
020200
020100
020100
020100
020100
020100
020600
0FF800
000000
000000
ENDCHAR
STARTCHAR 042D
ENCODING 1069
SWIDTH 1200 0
DWIDTH 20 0
BBX 20 20 0 -3
BITMAP
000000
000000
01F800
060600
080100
000100
000080
000080
01C080
022380
001C80
000080
000080
000080
000100
080100
060600
01F800
000000
000000
ENDCHAR
STARTCHAR 042E
ENCODING 1070
SWIDTH 1200 0
DWIDTH 20 0
BBX 20 20 0 -3
BITMAP
000000
000000
3E0F00
081080
082040
082040
084020
084020
084020
0FC020
084020
084020
084020
084020
082040
082040
081080
3E0F00
000000
000000
ENDCHAR
STARTCHAR 042F
ENCODING 1071
SWIDTH 1200 0
DWIDTH 20 0
BBX 20 20 0 -3
BITMAP
000000
000000
01FFC0
020100
040100
040100
040100
040100
020100
01FF00
004100
004100
008100
008100
010100
020100
040100
1807C0
000000
000000
ENDCHAR
STARTCHAR 0430
ENCODING 1072
SWIDTH 1200 0
DWIDTH 20 0
BBX 20 20 0 -3
BITMAP
000000
000000
000000
000000
000000
000000
000000
00F000
030800
020400
060400
003C00
01C400
020400
040400
040400
021D00
01E600
000000
000000
ENDCHAR
STARTCHAR 0431
ENCODING 1073
SWIDTH 1200 0
DWIDTH 20 0
BBX 20 20 0 -3
BITMAP
000000
000200
000C00
007000
018000
020000
020000
04F800
070400
040400
040200
040200
040200
040200
040200
020400
030800
00F000
000000
000000
ENDCHAR
STARTCHAR 0432
ENCODING 1074
SWIDTH 1200 0
DWIDTH 20 0
BBX 20 20 0 -3
BITMAP
000000
000000
000000
000000
000000
000000
000000
03F800
008400
008200
008200
008400
00FC00
008200
008200
008200
008200
03FC00
000000
000000
ENDCHAR
STARTCHAR 0433
ENCODING 1075
SWIDTH 1200 0
DWIDTH 20 0
BBX 20 20 0 -3
BITMAP
000000
000000
000000
000000
000000
000000
000000
03FE00
008200
008200
008200
008000
008000
008000
008000
008000
008000
03E000
000000
000000
ENDCHAR
STARTCHAR 0434
ENCODING 1076
SWIDTH 1200 0
DWIDTH 20 0
BBX 20 20 0 -3
BITMAP
000000
000000
000000
000000
000000
000000
000000
03FF00
008400
008400
008400
008400
010400
010400
010400
020400
020400
0FFF00
080100
080100
ENDCHAR
STARTCHAR 0435
ENCODING 1077
SWIDTH 1200 0
DWIDTH 20 0
BBX 20 20 0 -3
BITMAP
000000
000000
000000
000000
000000
000000
000000
00F800
010400
020200
020200
03FE00
020000
020000
020000
020200
010400
00F800
000000
000000
ENDCHAR
STARTCHAR 0436
ENCODING 1078
SWIDTH 1200 0
DWIDTH 20 0
BBX 20 20 0 -3
BITMAP
000000
000000
000000
000000
000000
000000
000000
0CF980
122240
1924C0
012400
00A800
00F800
012400
022200
042100
082080
3EFBE0
000000
000000
ENDCHAR
STARTCHAR 0437
ENCODING 1079
SWIDTH 1200 0
DWIDTH 20 0
BBX 20 20 0 -3
BITMAP
000000
000000
000000
000000
000000
000000
000000
00F800
010400
020200
000200
000400
003800
000400
000200
020200
010400
00F800
000000
000000
ENDCHAR
STARTCHAR 0438
ENCODING 1080
SWIDTH 1200 0
DWIDTH 20 0
BBX 20 20 0 -3
BITMAP
000000
000000
000000
000000
000000
000000
000000
07CF80
010600
010A00
011200
011200
012200
014200
014200
018200
010200
07CF80
000000
000000
ENDCHAR
STARTCHAR 0439
ENCODING 1081
SWIDTH 1200 0
DWIDTH 20 0
BBX 20 20 0 -3
BITMAP
000000
000000
000000
01CE00
010200
00FC00
000000
07CF80
010600
010A00
011200
011200
012200
014200
014200
018200
010200
078F80
000000
000000
ENDCHAR
STARTCHAR 043A
ENCODING 1082
SWIDTH 1200 0
DWIDTH 20 0
BBX 20 20 0 -3
BITMAP
000000
000000
000000
000000
000000
000000
000000
07C600
010B00
011200
011000
012000
01C000
012000
011000
010800
010400
079F00
000000
000000
ENDCHAR
STARTCHAR 043B
ENCODING 1083
SWIDTH 1200 0
DWIDTH 20 0
BBX 20 20 0 -3
BITMAP
000000
000000
000000
000000
000000
000000
000000
01FF00
004400
004400
004400
004400
004400
008400
008400
048400
0D0400
061F00
000000
000000
ENDCHAR
STARTCHAR 043C
ENCODING 1084
SWIDTH 1200 0
DWIDTH 20 0
BBX 20 20 0 -3
BITMAP
000000
000000
000000
000000
000000
000000
000000
0F9F80
020600
020E00
050A00
051200
049200
04A300
086100
084100
084100
3E07C0
000000
000000
ENDCHAR
STARTCHAR 043D
ENCODING 1085
SWIDTH 1200 0
DWIDTH 20 0
BBX 20 20 0 -3
BITMAP
000000
000000
000000
000000
000000
000000
000000
0F9F00
020400
020400
020400
020400
03FC00
020400
020400
020400
020400
0F9F00
000000
000000
ENDCHAR
STARTCHAR 043E
ENCODING 1086
SWIDTH 1200 0
DWIDTH 20 0
BBX 20 20 0 -3
BITMAP
000000
000000
000000
000000
000000
000000
000000
00F800
010400
020200
020200
020200
020200
020200
020200
020200
010400
00F800
000000
000000
ENDCHAR
STARTCHAR 043F
ENCODING 1087
SWIDTH 1200 0
DWIDTH 20 0
BBX 20 20 0 -3
BITMAP
000000
000000
000000
000000
000000
000000
000000
0FFF00
020400
020400
020400
020400
020400
020400
020400
020400
020400
0F9F00
000000
000000
ENDCHAR
STARTCHAR 0440
ENCODING 1088
SWIDTH 1200 0
DWIDTH 20 0
BBX 20 20 0 -3
BITMAP
000000
000000
000000
000000
000000
000000
000000
077800
018600
010200
010100
010100
010100
010100
010200
018600
017800
010000
010000
07C000
ENDCHAR
STARTCHAR 0441
ENCODING 1089
SWIDTH 1200 0
DWIDTH 20 0
BBX 20 20 0 -3
BITMAP
000000
000000
000000
000000
000000
000000
000000
00F800
010400
020200
020600
020000
020000
020000
020000
020200
010400
00F800
000000
000000
ENDCHAR
STARTCHAR 0442
ENCODING 1090
SWIDTH 1200 0
DWIDTH 20 0
BBX 20 20 0 -3
BITMAP
000000
000000
000000
000000
000000
000000
000000
07FF00
042100
042100
042100
002000
002000
002000
002000
002000
002000
00F800
000000
000000
ENDCHAR
STARTCHAR 0443
ENCODING 1091
SWIDTH 1200 0
DWIDTH 20 0
BBX 20 20 0 -3
BITMAP
000000
000000
000000
000000
000000
000000
000000
078F00
020400
020400
010800
010800
009000
009000
006000
006000
004000
0C4000
088000
070000
ENDCHAR
STARTCHAR 0444
ENCODING 1092
SWIDTH 1200 0
DWIDTH 20 0
BBX 20 20 0 -3
BITMAP
000000
002000
00E000
002000
002000
002000
002000
03AE00
047100
082080
082080
082080
082080
082080
047100
03AE00
002000
002000
002000
00F800
ENDCHAR
STARTCHAR 0445
ENCODING 1093
SWIDTH 1200 0
DWIDTH 20 0
BBX 20 20 0 -3
BITMAP
000000
000000
000000
000000
000000
000000
000000
0F9F00
020400
030800
019000
00E000
006000
007000
009800
010C00
020400
0F9F00
000000
000000
ENDCHAR
STARTCHAR 0446
ENCODING 1094
SWIDTH 1200 0
DWIDTH 20 0
BBX 20 20 0 -3
BITMAP
000000
000000
000000
000000
000000
000000
000000
07CF80
010200
010200
010200
010200
010200
010200
010200
010200
010200
07FF80
000080
000080
ENDCHAR
STARTCHAR 0447
ENCODING 1095
SWIDTH 1200 0
DWIDTH 20 0
BBX 20 20 0 -3
BITMAP
000000
000000
000000
000000
000000
000000
000000
0F9F00
020400
020400
020400
020400
020400
021C00
01E400
000400
000400
001F00
000000
000000
ENDCHAR
STARTCHAR 0448
ENCODING 1096
SWIDTH 1200 0
DWIDTH 20 0
BBX 20 20 0 -3
BITMAP
000000
000000
000000
000000
000000
000000
000000
3EFBE0
082080
082080
082080
082080
082080
082080
082080
082080
082080
3FFFE0
000000
000000
ENDCHAR
STARTCHAR 0449
ENCODING 1097
SWIDTH 1200 0
DWIDTH 20 0
BBX 20 20 0 -3
BITMAP
000000
000000
000000
000000
000000
000000
000000
3EFBE0
082080
082080
082080
082080
082080
082080
082080
082080
082080
3FFFE0
000020
000020
ENDCHAR
STARTCHAR 044A
ENCODING 1098
SWIDTH 1200 0
DWIDTH 20 0
BBX 20 20 0 -3
BITMAP
000000
000000
000000
000000
000000
000000
000000
0FF000
084000
084000
084000
004000
007E00
004100
004080
004080
004100
01FE00
000000
000000
ENDCHAR
STARTCHAR 044B
ENCODING 1099
SWIDTH 1200 0
DWIDTH 20 0
BBX 20 20 0 -3
BITMAP
000000
000000
000000
000000
000000
000000
000000
1F07C0
040100
040100
040100
040100
07C100
042100
041100
041100
042100
1FC7C0
000000
000000
ENDCHAR
STARTCHAR 044C
ENCODING 1100
SWIDTH 1200 0
DWIDTH 20 0
BBX 20 20 0 -3
BITMAP
000000
000000
000000
000000
000000
000000
000000
07C000
010000
010000
010000
010000
01F800
010400
010200
010200
010400
07F800
000000
000000
ENDCHAR
STARTCHAR 044D
ENCODING 1101
SWIDTH 1200 0
DWIDTH 20 0
BBX 20 20 0 -3
BITMAP
000000
000000
000000
000000
000000
000000
000000
03F000
040800
000400
000200
00CE00
013200
000200
000200
000400
040800
03F000
000000
000000
ENDCHAR
STARTCHAR 044E
ENCODING 1102
SWIDTH 1200 0
DWIDTH 20 0
BBX 20 20 0 -3
BITMAP
000000
000000
000000
000000
000000
000000
000000
0F9E00
022100
022100
024080
024080
03C080
024080
024080
022100
022100
0F9E00
000000
000000
ENDCHAR
STARTCHAR 044F
ENCODING 1103
SWIDTH 1200 0
DWIDTH 20 0
BBX 20 20 0 -3
BITMAP
000000
000000
000000
000000
000000
000000
000000
01FF00
020400
040400
040400
020400
01FC00
004400
008400
010400
020400
0C1F00
000000
000000
ENDCHAR
STARTCHAR 0451
ENCODING 1105
SWIDTH 1200 0
DWIDTH 20 0
BBX 20 20 0 -3
BITMAP
000000
000000
000000
018C00
018C00
000000
000000
00F800
010400
020200
020200
03FE00
020000
020000
020000
020200
010400
00F800
000000
000000
ENDCHAR
STARTCHAR 2000
ENCODING 8192
SWIDTH 1200 0
DWIDTH 20 0
BBX 20 20 0 -3
BITMAP
000000
000000
000000
000000
000000
000000
000000
000000
000000
000000
000000
000000
000000
000000
000000
000000
000000
000000
000000
000000
ENDCHAR
STARTCHAR 2001
ENCODING 8193
SWIDTH 1200 0
DWIDTH 20 0
BBX 20 20 0 -3
BITMAP
000000
000000
000000
000000
000000
000000
000000
000000
000000
000000
000000
000000
000000
000000
000000
000000
000000
000000
000000
000000
ENDCHAR
STARTCHAR 2002
ENCODING 8194
SWIDTH 1200 0
DWIDTH 20 0
BBX 20 20 0 -3
BITMAP
000000
000000
000000
000000
000000
000000
000000
000000
000000
000000
000000
000000
000000
000000
000000
000000
000000
000000
000000
000000
ENDCHAR
STARTCHAR 2003
ENCODING 8195
SWIDTH 1200 0
DWIDTH 20 0
BBX 20 20 0 -3
BITMAP
000000
000000
000000
000000
000000
000000
000000
000000
000000
000000
000000
000000
000000
000000
000000
000000
000000
000000
000000
000000
ENDCHAR
STARTCHAR 2004
ENCODING 8196
SWIDTH 1200 0
DWIDTH 20 0
BBX 20 20 0 -3
BITMAP
000000
000000
000000
000000
000000
000000
000000
000000
000000
000000
000000
000000
000000
000000
000000
000000
000000
000000
000000
000000
ENDCHAR
STARTCHAR 2005
ENCODING 8197
SWIDTH 1200 0
DWIDTH 20 0
BBX 20 20 0 -3
BITMAP
000000
000000
000000
000000
000000
000000
000000
000000
000000
000000
000000
000000
000000
000000
000000
000000
000000
000000
000000
000000
ENDCHAR
STARTCHAR 2006
ENCODING 8198
SWIDTH 1200 0
DWIDTH 20 0
BBX 20 20 0 -3
BITMAP
000000
000000
000000
000000
000000
000000
000000
000000
000000
000000
000000
000000
000000
000000
000000
000000
000000
000000
000000
000000
ENDCHAR
STARTCHAR 2007
ENCODING 8199
SWIDTH 1200 0
DWIDTH 20 0
BBX 20 20 0 -3
BITMAP
000000
000000
000000
000000
000000
000000
000000
000000
000000
000000
000000
000000
000000
000000
000000
000000
000000
000000
000000
000000
ENDCHAR
STARTCHAR 2008
ENCODING 8200
SWIDTH 1200 0
DWIDTH 20 0
BBX 20 20 0 -3
BITMAP
000000
000000
000000
000000
000000
000000
000000
000000
000000
000000
000000
000000
000000
000000
000000
000000
000000
000000
000000
000000
ENDCHAR
STARTCHAR 2009
ENCODING 8201
SWIDTH 1200 0
DWIDTH 20 0
BBX 20 20 0 -3
BITMAP
000000
000000
000000
000000
000000
000000
000000
000000
000000
000000
000000
000000
000000
000000
000000
000000
000000
000000
000000
000000
ENDCHAR
STARTCHAR 200A
ENCODING 8202
SWIDTH 1200 0
DWIDTH 20 0
BBX 20 20 0 -3
BITMAP
000000
000000
000000
000000
000000
000000
000000
000000
000000
000000
000000
000000
000000
000000
000000
000000
000000
000000
000000
000000
ENDCHAR
STARTCHAR 200B
ENCODING 8203
SWIDTH 600 0
DWIDTH 10 0
BBX 1 1 0 0
BITMAP
00
ENDCHAR
STARTCHAR 200C
ENCODING 8204
SWIDTH 600 0
DWIDTH 10 0
BBX 1 1 0 0
BITMAP
00
ENDCHAR
STARTCHAR 200D
ENCODING 8205
SWIDTH 600 0
DWIDTH 10 0
BBX 1 1 0 0
BITMAP
00
ENDCHAR
STARTCHAR 200E
ENCODING 8206
SWIDTH 600 0
DWIDTH 10 0
BBX 1 1 0 0
BITMAP
00
ENDCHAR
STARTCHAR 200F
ENCODING 8207
SWIDTH 600 0
DWIDTH 10 0
BBX 1 1 0 0
BITMAP
00
ENDCHAR
STARTCHAR 2010
ENCODING 8208
SWIDTH 1200 0
DWIDTH 20 0
BBX 20 20 0 -3
BITMAP
000000
000000
000000
000000
000000
000000
000000
000000
000000
01FC00
000000
000000
000000
000000
000000
000000
000000
000000
000000
000000
ENDCHAR
STARTCHAR 2014
ENCODING 8212
SWIDTH 1200 0
DWIDTH 20 0
BBX 20 20 0 -3
BITMAP
000000
000000
000000
000000
000000
000000
000000
000000
000000
FFFFF0
000000
000000
000000
000000
000000
000000
000000
000000
000000
000000
ENDCHAR
STARTCHAR 2015
ENCODING 8213
SWIDTH 1200 0
DWIDTH 20 0
BBX 20 20 0 -3
BITMAP
000000
000000
000000
000000
000000
000000
000000
000000
000000
FFFFF0
000000
000000
000000
000000
000000
000000
000000
000000
000000
000000
ENDCHAR
STARTCHAR 2016
ENCODING 8214
SWIDTH 1200 0
DWIDTH 20 0
BBX 20 20 0 -3
BITMAP
010400
010400
010400
010400
010400
010400
010400
010400
010400
010400
010400
010400
010400
010400
010400
010400
010400
010400
010400
010400
ENDCHAR
STARTCHAR 2018
ENCODING 8216
SWIDTH 1200 0
DWIDTH 20 0
BBX 20 20 0 -3
BITMAP
000080
000100
000300
000380
000380
000000
000000
000000
000000
000000
000000
000000
000000
000000
000000
000000
000000
000000
000000
000000
ENDCHAR
STARTCHAR 2019
ENCODING 8217
SWIDTH 1200 0
DWIDTH 20 0
BBX 20 20 0 -3
BITMAP
380000
380000
180000
100000
200000
000000
000000
000000
000000
000000
000000
000000
000000
000000
000000
000000
000000
000000
000000
000000
ENDCHAR
STARTCHAR 201C
ENCODING 8220
SWIDTH 1200 0
DWIDTH 20 0
BBX 20 20 0 -3
BITMAP
000440
000880
001980
001DC0
001DC0
000000
000000
000000
000000
000000
000000
000000
000000
000000
000000
000000
000000
000000
000000
000000
ENDCHAR
STARTCHAR 201D
ENCODING 8221
SWIDTH 1200 0
DWIDTH 20 0
BBX 20 20 0 -3
BITMAP
3B8000
3B8000
198000
110000
220000
000000
000000
000000
000000
000000
000000
000000
000000
000000
000000
000000
000000
000000
000000
000000
ENDCHAR
STARTCHAR 2020
ENCODING 8224
SWIDTH 1200 0
DWIDTH 20 0
BBX 20 20 0 -3
BITMAP
004000
00E000
00E000
044400
0FFE00
044400
004000
004000
03F800
01F000
00E000
00E000
00E000
00E000
00E000
004000
004000
004000
004000
004000
ENDCHAR
STARTCHAR 2021
ENCODING 8225
SWIDTH 1200 0
DWIDTH 20 0
BBX 20 20 0 -3
BITMAP
004000
00E000
00E000
044400
0FFE00
044400
00E000
00E000
00E000
004000
004000
00E000
00E000
00E000
044400
0FFE00
044400
00E000
00E000
004000
ENDCHAR
STARTCHAR 2025
ENCODING 8229
SWIDTH 1200 0
DWIDTH 20 0
BBX 20 20 0 -3
BITMAP
000000
000000
000000
000000
000000
000000
000000
000000
1C0700
1C0700
1C0700
000000
000000
000000
000000
000000
000000
000000
000000
000000
ENDCHAR
STARTCHAR 2026
ENCODING 8230
SWIDTH 1200 0
DWIDTH 20 0
BBX 20 20 0 -3
BITMAP
000000
000000
000000
000000
000000
000000
000000
000000
70E1C0
70E1C0
70E1C0
000000
000000
000000
000000
000000
000000
000000
000000
000000
ENDCHAR
STARTCHAR 2030
ENCODING 8240
SWIDTH 1200 0
DWIDTH 20 0
BBX 20 20 0 -3
BITMAP
000000
380800
441000
441000
442000
444000
444000
448000
450000
390000
0271C0
048A20
048A20
088A20
108A20
108A20
208A20
408A20
4071C0
000000
ENDCHAR
STARTCHAR 2032
ENCODING 8242
SWIDTH 1200 0
DWIDTH 20 0
BBX 20 20 0 -3
BITMAP
000000
060000
040000
0C0000
080000
080000
100000
100000
000000
000000
000000
000000
000000
000000
000000
000000
000000
000000
000000
000000
ENDCHAR
STARTCHAR 2033
ENCODING 8243
SWIDTH 1200 0
DWIDTH 20 0
BBX 20 20 0 -3
BITMAP
000000
1B0000
120000
360000
240000
240000
480000
480000
000000
000000
000000
000000
000000
000000
000000
000000
000000
000000
000000
000000
ENDCHAR
STARTCHAR 203B
ENCODING 8251
SWIDTH 1200 0
DWIDTH 20 0
BBX 20 20 0 -3
BITMAP
000000
000000
000000
106080
086100
040200
020400
010800
009000
186180
186180
009000
010800
020400
040200
086100
106080
000000
000000
000000
ENDCHAR
STARTCHAR 203E
ENCODING 8254
SWIDTH 1200 0
DWIDTH 20 0
BBX 20 20 0 -3
BITMAP
7FFFF0
000000
000000
000000
000000
000000
000000
000000
000000
000000
000000
000000
000000
000000
000000
000000
000000
000000
000000
000000
ENDCHAR
STARTCHAR 2103
ENCODING 8451
SWIDTH 1200 0
DWIDTH 20 0
BBX 20 20 0 -3
BITMAP
000000
380000
440000
441E40
4461C0
388040
008060
010020
010000
010000
010000
010000
010000
010000
008020
008020
0060C0
001F00
000000
000000
ENDCHAR
STARTCHAR 212B
ENCODING 8491
SWIDTH 1200 0
DWIDTH 20 0
BBX 20 20 0 -3
BITMAP
000000
006000
009000
009000
006000
000000
006000
006000
00B000
009000
011800
010800
020C00
03FC00
040600
040200
080300
1F0FC0
000000
000000
ENDCHAR
STARTCHAR 2190
ENCODING 8592
SWIDTH 1200 0
DWIDTH 20 0
BBX 20 20 0 -3
BITMAP
000000
000000
000000
000000
000000
000000
020000
040000
180000
7FFFF0
180000
040000
020000
000000
000000
000000
000000
000000
000000
000000
ENDCHAR
STARTCHAR 2191
ENCODING 8593
SWIDTH 1200 0
DWIDTH 20 0
BBX 20 20 0 -3
BITMAP
004000
004000
00E000
00E000
015000
024800
004000
004000
004000
004000
004000
004000
004000
004000
004000
004000
004000
004000
004000
000000
ENDCHAR
STARTCHAR 2192
ENCODING 8594
SWIDTH 1200 0
DWIDTH 20 0
BBX 20 20 0 -3
BITMAP
000000
000000
000000
000000
000000
000000
000400
000200
000180
FFFFE0
000180
000200
000400
000000
000000
000000
000000
000000
000000
000000
ENDCHAR
STARTCHAR 2193
ENCODING 8595
SWIDTH 1200 0
DWIDTH 20 0
BBX 20 20 0 -3
BITMAP
004000
004000
004000
004000
004000
004000
004000
004000
004000
004000
004000
004000
004000
024800
015000
00E000
00E000
004000
004000
000000
ENDCHAR
STARTCHAR 21D2
ENCODING 8658
SWIDTH 1200 0
DWIDTH 20 0
BBX 20 20 0 -3
BITMAP
000000
000000
000000
000000
000400
000200
000100
7FFF80
000040
000020
000040
7FFF80
000100
000200
000400
000000
000000
000000
000000
000000
ENDCHAR
STARTCHAR 21D4
ENCODING 8660
SWIDTH 1200 0
DWIDTH 20 0
BBX 20 20 0 -3
BITMAP
000000
000000
000000
000000
040400
080200
100100
3FFF80
400040
800020
400040
3FFF80
100100
080200
040400
000000
000000
000000
000000
000000
ENDCHAR
STARTCHAR 2200
ENCODING 8704
SWIDTH 1200 0
DWIDTH 20 0
BBX 20 20 0 -3
BITMAP
000000
000000
200080
200080
100100
100100
080200
0FFE00
040400
040400
020800
020800
011000
011000
00A000
00A000
004000
004000
000000
000000
ENDCHAR
STARTCHAR 2202
ENCODING 8706
SWIDTH 1200 0
DWIDTH 20 0
BBX 20 20 0 -3
BITMAP
000000
000000
007000
018800
020400
000400
000400
000400
00E400
031400
040C00
040800
080800
080800
081000
081000
042000
03C000
000000
000000
ENDCHAR
STARTCHAR 2203
ENCODING 8707
SWIDTH 1200 0
DWIDTH 20 0
BBX 20 20 0 -3
BITMAP
000000
000000
000000
07FE00
000200
000200
000200
000200
000200
07FE00
000200
000200
000200
000200
000200
07FE00
000000
000000
000000
000000
ENDCHAR
STARTCHAR 2207
ENCODING 8711
SWIDTH 1200 0
DWIDTH 20 0
BBX 20 20 0 -3
BITMAP
000000
000000
3FFFE0
300040
180040
080080
0C0080
040100
060100
020200
030200
010400
018400
008800
00C800
005000
007000
002000
002000
000000
ENDCHAR
STARTCHAR 2208
ENCODING 8712
SWIDTH 1200 0
DWIDTH 20 0
BBX 20 20 0 -3
BITMAP
000000
000000
000000
000000
00FF00
030000
040000
040000
080000
0FFF00
080000
040000
040000
030000
00FF00
000000
000000
000000
000000
000000
ENDCHAR
STARTCHAR 220B
ENCODING 8715
SWIDTH 1200 0
DWIDTH 20 0
BBX 20 20 0 -3
BITMAP
000000
000000
000000
000000
07F000
000C00
000200
000200
000100
07FF00
000100
000200
000200
000C00
07F000
000000
000000
000000
000000
000000
ENDCHAR
STARTCHAR 2212
ENCODING 8722
SWIDTH 1200 0
DWIDTH 20 0
BBX 20 20 0 -3
BITMAP
000000
000000
000000
000000
000000
000000
000000
000000
000000
1FFF80
000000
000000
000000
000000
000000
000000
000000
000000
000000
000000
ENDCHAR
STARTCHAR 221A
ENCODING 8730
SWIDTH 1200 0
DWIDTH 20 0
BBX 20 20 0 -3
BITMAP
003FF0
002000
002000
002000
004000
004000
004000
004000
008000
008000
008000
108000
310000
590000
890000
0D0000
060000
060000
020000
020000
ENDCHAR
STARTCHAR 221D
ENCODING 8733
SWIDTH 1200 0
DWIDTH 20 0
BBX 20 20 0 -3
BITMAP
000000
000000
000000
000000
000000
0E0F00
111080
20A040
404000
404000
404000
404000
20A040
111080
0E0F00
000000
000000
000000
000000
000000
ENDCHAR
STARTCHAR 221E
ENCODING 8734
SWIDTH 1200 0
DWIDTH 20 0
BBX 20 20 0 -3
BITMAP
000000
000000
000000
000000
000000
1E0780
210840
409020
40D020
406020
406020
40B020
409020
210840
1E0780
000000
000000
000000
000000
000000
ENDCHAR
STARTCHAR 2220
ENCODING 8736
SWIDTH 1200 0
DWIDTH 20 0
BBX 20 20 0 -3
BITMAP
000000
000000
000000
000100
000200
000400
000800
001000
002000
004000
008000
010000
020000
040000
080000
1FFFC0
000000
000000
000000
000000
ENDCHAR
STARTCHAR 2225
ENCODING 8741
SWIDTH 1200 0
DWIDTH 20 0
BBX 20 20 0 -3
BITMAP
010400
010400
010400
010400
010400
010400
010400
010400
010400
010400
010400
010400
010400
010400
010400
010400
010400
010400
010400
010400
ENDCHAR
STARTCHAR 2227
ENCODING 8743
SWIDTH 1200 0
DWIDTH 20 0
BBX 20 20 0 -3
BITMAP
000000
000000
000000
004000
004000
00A000
00A000
011000
011000
020800
020800
040400
040400
080200
080200
100100
100100
000000
000000
000000
ENDCHAR
STARTCHAR 2228
ENCODING 8744
SWIDTH 1200 0
DWIDTH 20 0
BBX 20 20 0 -3
BITMAP
000000
000000
000000
100100
100100
080200
080200
040400
040400
020800
020800
011000
011000
00A000
00A000
004000
004000
000000
000000
000000
ENDCHAR
STARTCHAR 2229
ENCODING 8745
SWIDTH 1200 0
DWIDTH 20 0
BBX 20 20 0 -3
BITMAP
000000
000000
000000
00F000
030C00
040200
040200
080100
080100
080100
080100
080100
080100
080100
080100
080100
080100
080100
000000
000000
ENDCHAR
STARTCHAR 222A
ENCODING 8746
SWIDTH 1200 0
DWIDTH 20 0
BBX 20 20 0 -3
BITMAP
000000
000000
000000
080100
080100
080100
080100
080100
080100
080100
080100
080100
080100
040200
040200
030C00
00F000
000000
000000
000000
ENDCHAR
STARTCHAR 222B
ENCODING 8747
SWIDTH 1200 0
DWIDTH 20 0
BBX 20 20 0 -3
BITMAP
007000
008800
011800
010000
010000
018000
008000
00C000
004000
006000
006000
002000
003000
001000
001800
000800
000800
018800
011000
00E000
ENDCHAR
STARTCHAR 222C
ENCODING 8748
SWIDTH 1200 0
DWIDTH 20 0
BBX 20 20 0 -3
BITMAP
070E00
089100
11A300
102000
102000
183000
081000
0C1800
040800
060C00
060C00
020400
030600
010200
018300
008100
008100
18B100
112200
0E1C00
ENDCHAR
STARTCHAR 2234
ENCODING 8756
SWIDTH 1200 0
DWIDTH 20 0
BBX 20 20 0 -3
BITMAP
000000
000000
000000
00E000
00E000
00E000
000000
000000
000000
000000
000000
000000
000000
1C0700
1C0700
1C0700
000000
000000
000000
000000
ENDCHAR
STARTCHAR 2235
ENCODING 8757
SWIDTH 1200 0
DWIDTH 20 0
BBX 20 20 0 -3
BITMAP
000000
000000
000000
000000
1C0700
1C0700
1C0700
000000
000000
000000
000000
000000
000000
000000
00E000
00E000
00E000
000000
000000
000000
ENDCHAR
STARTCHAR 223D
ENCODING 8765
SWIDTH 1200 0
DWIDTH 20 0
BBX 20 20 0 -3
BITMAP
000000
000000
000000
000000
000000
0E0700
100880
201040
402020
402020
404020
404020
208040
110080
0E0700
000000
000000
000000
000000
000000
ENDCHAR
STARTCHAR 2252
ENCODING 8786
SWIDTH 1200 0
DWIDTH 20 0
BBX 20 20 0 -3
BITMAP
000000
000000
000000
030000
030000
000000
000000
0FFFC0
000000
000000
000000
0FFFC0
000000
000000
000300
000300
000000
000000
000000
000000
ENDCHAR
STARTCHAR 2260
ENCODING 8800
SWIDTH 1200 0
DWIDTH 20 0
BBX 20 20 0 -3
BITMAP
000000
000000
000000
000800
000800
001000
001000
0FFF80
002000
004000
004000
0FFF80
008000
008000
010000
010000
000000
000000
000000
000000
ENDCHAR
STARTCHAR 2261
ENCODING 8801
SWIDTH 1200 0
DWIDTH 20 0
BBX 20 20 0 -3
BITMAP
000000
000000
000000
000000
0FFFC0
000000
000000
000000
000000
0FFFC0
000000
000000
000000
000000
0FFFC0
000000
000000
000000
000000
000000
ENDCHAR
STARTCHAR 2266
ENCODING 8806
SWIDTH 1200 0
DWIDTH 20 0
BBX 20 20 0 -3
BITMAP
000000
000000
000000
0003C0
003C00
03C000
3C0000
3C0000
03C000
003C00
0003C0
000000
000000
1FFFC0
000000
000000
1FFFC0
000000
000000
000000
ENDCHAR
STARTCHAR 2267
ENCODING 8807
SWIDTH 1200 0
DWIDTH 20 0
BBX 20 20 0 -3
BITMAP
000000
000000
000000
1C0000
03C000
003C00
0003C0
0003C0
003C00
03C000
1C0000
000000
000000
1FFFC0
000000
000000
1FFFC0
000000
000000
000000
ENDCHAR
STARTCHAR 226A
ENCODING 8810
SWIDTH 1200 0
DWIDTH 20 0
BBX 20 20 0 -3
BITMAP
000000
000000
000820
0030C0
004100
018600
020800
0C3000
104000
618000
618000
104000
0C3000
020800
018600
004100
0030C0
000820
000000
000000
ENDCHAR
STARTCHAR 226B
ENCODING 8811
SWIDTH 1200 0
DWIDTH 20 0
BBX 20 20 0 -3
BITMAP
000000
000000
410000
30C000
082000
061800
010400
00C300
002080
001860
001860
002080
00C300
010400
061800
082000
30C000
410000
000000
000000
ENDCHAR
STARTCHAR 2282
ENCODING 8834
SWIDTH 1200 0
DWIDTH 20 0
BBX 20 20 0 -3
BITMAP
000000
000000
000000
000000
01FF80
060000
080000
080000
100000
100000
100000
100000
080000
080000
060000
01FF80
000000
000000
000000
000000
ENDCHAR
STARTCHAR 2283
ENCODING 8835
SWIDTH 1200 0
DWIDTH 20 0
BBX 20 20 0 -3
BITMAP
000000
000000
000000
000000
0FF800
000600
000100
000100
000080
000080
000080
000080
000100
000100
000600
0FF800
000000
000000
000000
000000
ENDCHAR
STARTCHAR 2286
ENCODING 8838
SWIDTH 1200 0
DWIDTH 20 0
BBX 20 20 0 -3
BITMAP
000000
000000
000000
01FF80
060000
080000
080000
100000
100000
080000
080000
060000
01FF80
000000
000000
0FFF80
000000
000000
000000
000000
ENDCHAR
STARTCHAR 2287
ENCODING 8839
SWIDTH 1200 0
DWIDTH 20 0
BBX 20 20 0 -3
BITMAP
000000
000000
000000
0FF800
000600
000100
000100
000080
000080
000100
000100
000600
0FF800
000000
000000
0FFF80
000000
000000
000000
000000
ENDCHAR
STARTCHAR 22A5
ENCODING 8869
SWIDTH 1200 0
DWIDTH 20 0
BBX 20 20 0 -3
BITMAP
000000
000000
000000
004000
004000
004000
004000
004000
004000
004000
004000
004000
004000
004000
004000
1FFF80
000000
000000
000000
000000
ENDCHAR
STARTCHAR 2312
ENCODING 8978
SWIDTH 1200 0
DWIDTH 20 0
BBX 20 20 0 -3
BITMAP
03F800
1C0700
6000C0
800020
000000
000000
000000
000000
000000
000000
000000
000000
000000
000000
000000
000000
000000
000000
000000
000000
ENDCHAR
STARTCHAR 2500
ENCODING 9472
SWIDTH 1200 0
DWIDTH 20 0
BBX 20 20 0 -3
BITMAP
000000
000000
000000
000000
000000
000000
000000
000000
000000
7FFFF0
000000
000000
000000
000000
000000
000000
000000
000000
000000
000000
ENDCHAR
STARTCHAR 2501
ENCODING 9473
SWIDTH 1200 0
DWIDTH 20 0
BBX 20 20 0 -3
BITMAP
000000
000000
000000
000000
000000
000000
000000
000000
000000
FFFFF0
FFFFF0
000000
000000
000000
000000
000000
000000
000000
000000
000000
ENDCHAR
STARTCHAR 2502
ENCODING 9474
SWIDTH 1200 0
DWIDTH 20 0
BBX 20 20 0 -3
BITMAP
004000
004000
004000
004000
004000
004000
004000
004000
004000
004000
004000
004000
004000
004000
004000
004000
004000
004000
004000
004000
ENDCHAR
STARTCHAR 2503
ENCODING 9475
SWIDTH 1200 0
DWIDTH 20 0
BBX 20 20 0 -3
BITMAP
006000
006000
006000
006000
006000
006000
006000
006000
006000
006000
006000
006000
006000
006000
006000
006000
006000
006000
006000
006000
ENDCHAR
STARTCHAR 250C
ENCODING 9484
SWIDTH 1200 0
DWIDTH 20 0
BBX 20 20 0 -3
BITMAP
000000
000000
000000
000000
000000
000000
000000
000000
000000
007FF0
004000
004000
004000
004000
004000
004000
004000
004000
004000
004000
ENDCHAR
STARTCHAR 250F
ENCODING 9487
SWIDTH 1200 0
DWIDTH 20 0
BBX 20 20 0 -3
BITMAP
000000
000000
000000
000000
000000
000000
000000
000000
000000
007FF0
007FF0
006000
006000
006000
006000
006000
006000
006000
006000
006000
ENDCHAR
STARTCHAR 2510
ENCODING 9488
SWIDTH 1200 0
DWIDTH 20 0
BBX 20 20 0 -3
BITMAP
000000
000000
000000
000000
000000
000000
000000
000000
000000
7FC000
004000
004000
004000
004000
004000
004000
004000
004000
004000
004000
ENDCHAR
STARTCHAR 2513
ENCODING 9491
SWIDTH 1200 0
DWIDTH 20 0
BBX 20 20 0 -3
BITMAP
000000
000000
000000
000000
000000
000000
000000
000000
000000
FFE000
FFE000
006000
006000
006000
006000
006000
006000
006000
006000
006000
ENDCHAR
STARTCHAR 2514
ENCODING 9492
SWIDTH 1200 0
DWIDTH 20 0
BBX 20 20 0 -3
BITMAP
004000
004000
004000
004000
004000
004000
004000
004000
004000
007FF0
000000
000000
000000
000000
000000
000000
000000
000000
000000
000000
ENDCHAR
STARTCHAR 2517
ENCODING 9495
SWIDTH 1200 0
DWIDTH 20 0
BBX 20 20 0 -3
BITMAP
006000
006000
006000
006000
006000
006000
006000
006000
006000
007FF0
007FF0
000000
000000
000000
000000
000000
000000
000000
000000
000000
ENDCHAR
STARTCHAR 2518
ENCODING 9496
SWIDTH 1200 0
DWIDTH 20 0
BBX 20 20 0 -3
BITMAP
004000
004000
004000
004000
004000
004000
004000
004000
004000
7FC000
000000
000000
000000
000000
000000
000000
000000
000000
000000
000000
ENDCHAR
STARTCHAR 251B
ENCODING 9499
SWIDTH 1200 0
DWIDTH 20 0
BBX 20 20 0 -3
BITMAP
006000
006000
006000
006000
006000
006000
006000
006000
006000
FFE000
FFE000
000000
000000
000000
000000
000000
000000
000000
000000
000000
ENDCHAR
STARTCHAR 251C
ENCODING 9500
SWIDTH 1200 0
DWIDTH 20 0
BBX 20 20 0 -3
BITMAP
004000
004000
004000
004000
004000
004000
004000
004000
004000
007FF0
004000
004000
004000
004000
004000
004000
004000
004000
004000
004000
ENDCHAR
STARTCHAR 251D
ENCODING 9501
SWIDTH 1200 0
DWIDTH 20 0
BBX 20 20 0 -3
BITMAP
006000
006000
006000
006000
006000
006000
006000
006000
006000
007FF0
007FF0
006000
006000
006000
006000
006000
006000
006000
006000
006000
ENDCHAR
STARTCHAR 2520
ENCODING 9504
SWIDTH 1200 0
DWIDTH 20 0
BBX 20 20 0 -3
BITMAP
006000
006000
006000
006000
006000
006000
006000
006000
006000
007FF0
007FF0
006000
006000
006000
006000
006000
006000
006000
006000
006000
ENDCHAR
STARTCHAR 2523
ENCODING 9507
SWIDTH 1200 0
DWIDTH 20 0
BBX 20 20 0 -3
BITMAP
006000
006000
006000
006000
006000
006000
006000
006000
006000
007FF0
007FF0
006000
006000
006000
006000
006000
006000
006000
006000
006000
ENDCHAR
STARTCHAR 2524
ENCODING 9508
SWIDTH 1200 0
DWIDTH 20 0
BBX 20 20 0 -3
BITMAP
004000
004000
004000
004000
004000
004000
004000
004000
004000
7FC000
004000
004000
004000
004000
004000
004000
004000
004000
004000
004000
ENDCHAR
STARTCHAR 2525
ENCODING 9509
SWIDTH 1200 0
DWIDTH 20 0
BBX 20 20 0 -3
BITMAP
006000
006000
006000
006000
006000
006000
006000
006000
006000
FFE000
FFE000
006000
006000
006000
006000
006000
006000
006000
006000
006000
ENDCHAR
STARTCHAR 2528
ENCODING 9512
SWIDTH 1200 0
DWIDTH 20 0
BBX 20 20 0 -3
BITMAP
006000
006000
006000
006000
006000
006000
006000
006000
006000
FFE000
FFE000
006000
006000
006000
006000
006000
006000
006000
006000
006000
ENDCHAR
STARTCHAR 252B
ENCODING 9515
SWIDTH 1200 0
DWIDTH 20 0
BBX 20 20 0 -3
BITMAP
006000
006000
006000
006000
006000
006000
006000
006000
006000
FFE000
FFE000
006000
006000
006000
006000
006000
006000
006000
006000
006000
ENDCHAR
STARTCHAR 252C
ENCODING 9516
SWIDTH 1200 0
DWIDTH 20 0
BBX 20 20 0 -3
BITMAP
000000
000000
000000
000000
000000
000000
000000
000000
000000
7FFFF0
004000
004000
004000
004000
004000
004000
004000
004000
004000
004000
ENDCHAR
STARTCHAR 252F
ENCODING 9519
SWIDTH 1200 0
DWIDTH 20 0
BBX 20 20 0 -3
BITMAP
000000
000000
000000
000000
000000
000000
000000
000000
000000
FFFFF0
FFFFF0
006000
006000
006000
006000
006000
006000
006000
006000
006000
ENDCHAR
STARTCHAR 2530
ENCODING 9520
SWIDTH 1200 0
DWIDTH 20 0
BBX 20 20 0 -3
BITMAP
000000
000000
000000
000000
000000
000000
000000
000000
000000
FFFFF0
FFFFF0
006000
006000
006000
006000
006000
006000
006000
006000
006000
ENDCHAR
STARTCHAR 2533
ENCODING 9523
SWIDTH 1200 0
DWIDTH 20 0
BBX 20 20 0 -3
BITMAP
000000
000000
000000
000000
000000
000000
000000
000000
000000
FFFFF0
FFFFF0
006000
006000
006000
006000
006000
006000
006000
006000
006000
ENDCHAR
STARTCHAR 2534
ENCODING 9524
SWIDTH 1200 0
DWIDTH 20 0
BBX 20 20 0 -3
BITMAP
004000
004000
004000
004000
004000
004000
004000
004000
004000
7FFFF0
000000
000000
000000
000000
000000
000000
000000
000000
000000
000000
ENDCHAR
STARTCHAR 2537
ENCODING 9527
SWIDTH 1200 0
DWIDTH 20 0
BBX 20 20 0 -3
BITMAP
006000
006000
006000
006000
006000
006000
006000
006000
006000
FFFFF0
FFFFF0
000000
000000
000000
000000
000000
000000
000000
000000
000000
ENDCHAR
STARTCHAR 2538
ENCODING 9528
SWIDTH 1200 0
DWIDTH 20 0
BBX 20 20 0 -3
BITMAP
006000
006000
006000
006000
006000
006000
006000
006000
006000
FFFFF0
FFFFF0
000000
000000
000000
000000
000000
000000
000000
000000
000000
ENDCHAR
STARTCHAR 253B
ENCODING 9531
SWIDTH 1200 0
DWIDTH 20 0
BBX 20 20 0 -3
BITMAP
006000
006000
006000
006000
006000
006000
006000
006000
006000
FFFFF0
FFFFF0
000000
000000
000000
000000
000000
000000
000000
000000
000000
ENDCHAR
STARTCHAR 253C
ENCODING 9532
SWIDTH 1200 0
DWIDTH 20 0
BBX 20 20 0 -3
BITMAP
004000
004000
004000
004000
004000
004000
004000
004000
004000
7FFFF0
004000
004000
004000
004000
004000
004000
004000
004000
004000
004000
ENDCHAR
STARTCHAR 253F
ENCODING 9535
SWIDTH 1200 0
DWIDTH 20 0
BBX 20 20 0 -3
BITMAP
006000
006000
006000
006000
006000
006000
006000
006000
006000
FFFFF0
FFFFF0
006000
006000
006000
006000
006000
006000
006000
006000
006000
ENDCHAR
STARTCHAR 2542
ENCODING 9538
SWIDTH 1200 0
DWIDTH 20 0
BBX 20 20 0 -3
BITMAP
006000
006000
006000
006000
006000
006000
006000
006000
006000
FFFFF0
FFFFF0
006000
006000
006000
006000
006000
006000
006000
006000
006000
ENDCHAR
STARTCHAR 254B
ENCODING 9547
SWIDTH 1200 0
DWIDTH 20 0
BBX 20 20 0 -3
BITMAP
006000
006000
006000
006000
006000
006000
006000
006000
006000
FFFFF0
FFFFF0
006000
006000
006000
006000
006000
006000
006000
006000
006000
ENDCHAR
STARTCHAR 25A0
ENCODING 9632
SWIDTH 1200 0
DWIDTH 20 0
BBX 20 20 0 -3
BITMAP
000000
7FFFE0
7FFFE0
7FFFE0
7FFFE0
7FFFE0
7FFFE0
7FFFE0
7FFFE0
7FFFE0
7FFFE0
7FFFE0
7FFFE0
7FFFE0
7FFFE0
7FFFE0
7FFFE0
7FFFE0
7FFFE0
000000
ENDCHAR
STARTCHAR 25A1
ENCODING 9633
SWIDTH 1200 0
DWIDTH 20 0
BBX 20 20 0 -3
BITMAP
000000
7FFFE0
400020
400020
400020
400020
400020
400020
400020
400020
400020
400020
400020
400020
400020
400020
400020
400020
7FFFE0
000000
ENDCHAR
STARTCHAR 25B2
ENCODING 9650
SWIDTH 1200 0
DWIDTH 20 0
BBX 20 20 0 -3
BITMAP
000000
004000
004000
00E000
00E000
01F000
01F000
03F800
03F800
07FC00
07FC00
0FFE00
0FFE00
1FFF00
1FFF00
3FFF80
3FFF80
7FFFC0
000000
000000
ENDCHAR
STARTCHAR 25B3
ENCODING 9651
SWIDTH 1200 0
DWIDTH 20 0
BBX 20 20 0 -3
BITMAP
000000
004000
004000
00A000
00A000
011000
011000
020800
020800
040400
040400
080200
080200
100100
100100
200080
200080
7FFFC0
000000
000000
ENDCHAR
STARTCHAR 25BC
ENCODING 9660
SWIDTH 1200 0
DWIDTH 20 0
BBX 20 20 0 -3
BITMAP
000000
000000
7FFFC0
3FFF80
3FFF80
1FFF00
1FFF00
0FFE00
0FFE00
07FC00
07FC00
03F800
03F800
01F000
01F000
00E000
00E000
004000
004000
000000
ENDCHAR
STARTCHAR 25BD
ENCODING 9661
SWIDTH 1200 0
DWIDTH 20 0
BBX 20 20 0 -3
BITMAP
000000
000000
7FFFC0
200080
200080
100100
100100
080200
080200
040400
040400
020800
020800
011000
011000
00A000
00A000
004000
004000
000000
ENDCHAR
STARTCHAR 25C6
ENCODING 9670
SWIDTH 1200 0
DWIDTH 20 0
BBX 20 20 0 -3
BITMAP
004000
00E000
01F000
03F800
07FC00
0FFE00
1FFF00
3FFF80
7FFFC0
FFFFE0
7FFFC0
3FFF80
1FFF00
0FFE00
07FC00
03F800
01F000
00E000
004000
000000
ENDCHAR
STARTCHAR 25C7
ENCODING 9671
SWIDTH 1200 0
DWIDTH 20 0
BBX 20 20 0 -3
BITMAP
004000
00A000
011000
020800
040400
080200
100100
200080
400040
800020
400040
200080
100100
080200
040400
020800
011000
00A000
004000
000000
ENDCHAR
STARTCHAR 25CB
ENCODING 9675
SWIDTH 1200 0
DWIDTH 20 0
BBX 20 20 0 -3
BITMAP
000000
01F800
060600
080100
100080
200040
200040
400020
400020
400020
400020
400020
400020
200040
200040
100080
080100
060600
01F800
000000
ENDCHAR
STARTCHAR 25CE
ENCODING 9678
SWIDTH 1200 0
DWIDTH 20 0
BBX 20 20 0 -3
BITMAP
000000
01F800
060600
080100
100080
20F040
230C40
420420
440220
440220
440220
440220
420420
230C40
20F040
100080
080100
060600
01F800
000000
ENDCHAR
STARTCHAR 25CF
ENCODING 9679
SWIDTH 1200 0
DWIDTH 20 0
BBX 20 20 0 -3
BITMAP
000000
01F800
07FE00
0FFF00
1FFF80
3FFFC0
3FFFC0
7FFFE0
7FFFE0
7FFFE0
7FFFE0
7FFFE0
7FFFE0
3FFFC0
3FFFC0
1FFF80
0FFF00
07FE00
01F800
000000
ENDCHAR
STARTCHAR 25EF
ENCODING 9711
SWIDTH 1200 0
DWIDTH 20 0
BBX 20 20 0 -3
BITMAP
03FC00
0C0300
100080
200040
400020
400020
800010
800010
800010
800010
800010
800010
800010
800010
400020
400020
200040
100080
0C0300
03FC00
ENDCHAR
STARTCHAR 2605
ENCODING 9733
SWIDTH 1200 0
DWIDTH 20 0
BBX 20 20 0 -3
BITMAP
000000
000000
004000
004000
00E000
00E000
00E000
01F000
7FFFC0
1FFF00
0FFE00
07FC00
03F800
07FC00
07BC00
0F1E00
0C0600
100100
000000
000000
ENDCHAR
STARTCHAR 2606
ENCODING 9734
SWIDTH 1200 0
DWIDTH 20 0
BBX 20 20 0 -3
BITMAP
000000
000000
004000
004000
00A000
00A000
00A000
011000
7F1FC0
100100
080200
040400
020800
044400
04A400
0B1A00
0C0600
100100
000000
000000
ENDCHAR
STARTCHAR 2640
ENCODING 9792
SWIDTH 1200 0
DWIDTH 20 0
BBX 20 20 0 -3
BITMAP
01F000
020800
040400
080200
080200
080200
080200
080200
040400
020800
01F000
004000
004000
1FFF80
004000
004000
004000
004000
004000
000000
ENDCHAR
STARTCHAR 2642
ENCODING 9794
SWIDTH 1200 0
DWIDTH 20 0
BBX 20 20 0 -3
BITMAP
000000
001FE0
000060
0000A0
000120
000220
000420
000820
0F9020
106020
202000
401000
401000
401000
401000
401000
202000
104000
0F8000
000000
ENDCHAR
STARTCHAR 266A
ENCODING 9834
SWIDTH 1200 0
DWIDTH 20 0
BBX 20 20 0 -3
BITMAP
004000
004000
006000
007000
007800
005C00
004E00
004600
004300
004100
004100
004200
004200
004400
03C800
0FC000
1F8000
1F8000
0E0000
000000
ENDCHAR
STARTCHAR 266D
ENCODING 9837
SWIDTH 1200 0
DWIDTH 20 0
BBX 20 20 0 -3
BITMAP
010000
010000
010000
010000
010000
010000
010000
010000
013800
014400
018200
010200
010600
010C00
011800
013000
016000
018000
010000
000000
ENDCHAR
STARTCHAR 266F
ENCODING 9839
SWIDTH 1200 0
DWIDTH 20 0
BBX 20 20 0 -3
BITMAP
000800
020800
020800
020800
020800
020F00
03F800
1E0800
020800
020800
020800
020800
020F00
03F800
1E0800
020800
020800
020800
020000
000000
ENDCHAR
STARTCHAR 3000
ENCODING 12288
SWIDTH 1200 0
DWIDTH 20 0
BBX 20 20 0 -3
BITMAP
000000
000000
000000
000000
000000
000000
000000
000000
000000
000000
000000
000000
000000
000000
000000
000000
000000
000000
000000
000000
ENDCHAR
STARTCHAR 3001
ENCODING 12289
SWIDTH 1200 0
DWIDTH 20 0
BBX 20 20 0 -3
BITMAP
000000
000000
000000
000000
000000
000000
000000
000000
000000
000000
000000
000000
000000
000000
600000
100000
080000
0C0000
0C0000
000000
ENDCHAR
STARTCHAR 3002
ENCODING 12290
SWIDTH 1200 0
DWIDTH 20 0
BBX 20 20 0 -3
BITMAP
000000
000000
000000
000000
000000
000000
000000
000000
000000
000000
000000
000000
000000
000000
380000
440000
440000
440000
380000
000000
ENDCHAR
STARTCHAR 3003
ENCODING 12291
SWIDTH 1200 0
DWIDTH 20 0
BBX 20 20 0 -3
BITMAP
000000
000000
000000
000000
000000
008400
008400
008400
008400
010800
010800
010800
021000
021000
042000
000000
000000
000000
000000
000000
ENDCHAR
STARTCHAR 3005
ENCODING 12293
SWIDTH 1200 0
DWIDTH 20 0
BBX 20 20 0 -3
BITMAP
000000
000000
00C000
006000
004000
008100
00FF80
010300
020200
040400
080800
119000
206000
001000
000800
000C00
000C00
000000
000000
000000
ENDCHAR
STARTCHAR 3006
ENCODING 12294
SWIDTH 1200 0
DWIDTH 20 0
BBX 20 20 0 -3
BITMAP
000020
000030
000070
0000C0
000100
01C200
022400
041800
042800
084400
088600
090200
120000
140000
180000
100000
300000
600000
400000
000000
ENDCHAR
STARTCHAR 3007
ENCODING 12295
SWIDTH 1200 0
DWIDTH 20 0
BBX 20 20 0 -3
BITMAP
000000
000000
000000
01F800
060600
080100
100080
200040
200040
400020
400020
400020
200040
200040
100080
080100
060600
01F800
000000
000000
ENDCHAR
STARTCHAR 3008
ENCODING 12296
SWIDTH 1200 0
DWIDTH 20 0
BBX 20 20 0 -3
BITMAP
000100
000200
000200
000400
000800
000800
001000
002000
002000
004000
004000
002000
002000
001000
000800
000800
000400
000200
000200
000100
ENDCHAR
STARTCHAR 3009
ENCODING 12297
SWIDTH 1200 0
DWIDTH 20 0
BBX 20 20 0 -3
BITMAP
080000
040000
040000
020000
010000
010000
008000
004000
004000
002000
002000
004000
004000
008000
010000
010000
020000
040000
040000
080000
ENDCHAR
STARTCHAR 300A
ENCODING 12298
SWIDTH 1200 0
DWIDTH 20 0
BBX 20 20 0 -3
BITMAP
000240
000480
000480
000900
001200
001200
002400
004800
004800
009000
009000
004800
004800
002400
001200
001200
000900
000480
000480
000240
ENDCHAR
STARTCHAR 300B
ENCODING 12299
SWIDTH 1200 0
DWIDTH 20 0
BBX 20 20 0 -3
BITMAP
240000
120000
120000
090000
048000
048000
024000
012000
012000
009000
009000
012000
012000
024000
048000
048000
090000
120000
120000
240000
ENDCHAR
STARTCHAR 300C
ENCODING 12300
SWIDTH 1200 0
DWIDTH 20 0
BBX 20 20 0 -3
BITMAP
003F80
002000
002000
002000
002000
002000
002000
002000
002000
002000
002000
002000
002000
002000
002000
002000
002000
002000
000000
000000
ENDCHAR
STARTCHAR 300D
ENCODING 12301
SWIDTH 1200 0
DWIDTH 20 0
BBX 20 20 0 -3
BITMAP
000000
000000
002000
002000
002000
002000
002000
002000
002000
002000
002000
002000
002000
002000
002000
002000
002000
002000
002000
1FE000
ENDCHAR
STARTCHAR 300E
ENCODING 12302
SWIDTH 1200 0
DWIDTH 20 0
BBX 20 20 0 -3
BITMAP
00FF80
008080
00BF80
00A000
00A000
00A000
00A000
00A000
00A000
00A000
00A000
00A000
00A000
00A000
00A000
00A000
00A000
00E000
000000
000000
ENDCHAR
STARTCHAR 300F
ENCODING 12303
SWIDTH 1200 0
DWIDTH 20 0
BBX 20 20 0 -3
BITMAP
000000
000000
007000
005000
005000
005000
005000
005000
005000
005000
005000
005000
005000
005000
005000
005000
005000
1FD000
101000
1FF000
ENDCHAR
STARTCHAR 3010
ENCODING 12304
SWIDTH 1200 0
DWIDTH 20 0
BBX 20 20 0 -3
BITMAP
003F00
003E00
003C00
003800
003800
003800
003000
003000
003000
003000
003000
003000
003000
003000
003800
003800
003800
003C00
003E00
003F00
ENDCHAR
STARTCHAR 3011
ENCODING 12305
SWIDTH 1200 0
DWIDTH 20 0
BBX 20 20 0 -3
BITMAP
0FC000
07C000
03C000
01C000
01C000
01C000
00C000
00C000
00C000
00C000
00C000
00C000
00C000
00C000
01C000
01C000
01C000
03C000
07C000
0FC000
ENDCHAR
STARTCHAR 3012
ENCODING 12306
SWIDTH 1200 0
DWIDTH 20 0
BBX 20 20 0 -3
BITMAP
000000
000000
000000
7FFFE0
000000
000000
000000
000000
7FFFE0
002000
002000
002000
002000
002000
002000
002000
002000
002000
002000
000000
ENDCHAR
STARTCHAR 3013
ENCODING 12307
SWIDTH 1200 0
DWIDTH 20 0
BBX 20 20 0 -3
BITMAP
000000
000000
000000
000000
3FFFC0
3FFFC0
3FFFC0
3FFFC0
000000
000000
000000
000000
3FFFC0
3FFFC0
3FFFC0
3FFFC0
000000
000000
000000
000000
ENDCHAR
STARTCHAR 3014
ENCODING 12308
SWIDTH 1200 0
DWIDTH 20 0
BBX 20 20 0 -3
BITMAP
000300
000C00
001000
001000
001000
001000
001000
001000
001000
001000
001000
001000
001000
001000
001000
001000
001000
001000
000C00
000300
ENDCHAR
STARTCHAR 3015
ENCODING 12309
SWIDTH 1200 0
DWIDTH 20 0
BBX 20 20 0 -3
BITMAP
0C0000
030000
00C000
004000
004000
004000
004000
004000
004000
004000
004000
004000
004000
004000
004000
004000
004000
00C000
030000
0C0000
ENDCHAR
STARTCHAR 301C
ENCODING 12316
SWIDTH 1200 0
DWIDTH 20 0
BBX 20 20 0 -3
BITMAP
000000
000000
000000
000000
000000
000000
000000
000000
078000
184010
207020
4010C0
000F00
000000
000000
000000
000000
000000
000000
000000
ENDCHAR
STARTCHAR 3041
ENCODING 12353
SWIDTH 1200 0
DWIDTH 20 0
BBX 20 20 0 -3
BITMAP
000000
000000
000000
000000
018000
008000
009C00
1FE000
090000
011000
01F800
032600
052100
094100
118100
110100
128200
0C0C00
003000
000000
ENDCHAR
STARTCHAR 3042
ENCODING 12354
SWIDTH 1200 0
DWIDTH 20 0
BBX 20 20 0 -3
BITMAP
018000
00C000
008000
008600
10B800
1FC000
090800
010800
017E00
038980
051040
092020
114020
108020
208020
214040
120080
1C0300
001C00
000000
ENDCHAR
STARTCHAR 3043
ENCODING 12355
SWIDTH 1200 0
DWIDTH 20 0
BBX 20 20 0 -3
BITMAP
000000
000000
000000
000000
000000
000000
180000
0C0800
080400
080200
080100
080100
080680
044180
048100
050000
030000
010000
000000
000000
ENDCHAR
STARTCHAR 3044
ENCODING 12356
SWIDTH 1200 0
DWIDTH 20 0
BBX 20 20 0 -3
BITMAP
000000
000000
000000
400000
200400
300200
200100
200080
200080
200040
200040
2081A0
110060
120040
120000
0C0000
040000
000000
000000
000000
ENDCHAR
STARTCHAR 3045
ENCODING 12357
SWIDTH 1200 0
DWIDTH 20 0
BBX 20 20 0 -3
BITMAP
000000
000000
000000
000000
038000
006000
01B000
000000
00E000
131800
0C0400
000400
000400
000800
000800
001000
002000
00C000
030000
000000
ENDCHAR
STARTCHAR 3046
ENCODING 12358
SWIDTH 1200 0
DWIDTH 20 0
BBX 20 20 0 -3
BITMAP
00C000
003000
001C00
006600
000000
000000
003C00
08C200
0F0100
040080
000080
000080
000080
000100
000100
000200
000400
000800
003000
00C000
ENDCHAR
STARTCHAR 3047
ENCODING 12359
SWIDTH 1200 0
DWIDTH 20 0
BBX 20 20 0 -3
BITMAP
000000
000000
000000
000000
01C000
007000
004000
008800
083C00
07C800
021000
002000
004000
00C000
012000
022000
042000
082000
181F00
000000
ENDCHAR
STARTCHAR 3048
ENCODING 12360
SWIDTH 1200 0
DWIDTH 20 0
BBX 20 20 0 -3
BITMAP
010000
00C000
003C00
002000
004000
000200
083F00
07C600
020800
001000
006000
008000
01C000
032000
062000
0C2000
182000
301060
300FC0
000000
ENDCHAR
STARTCHAR 3049
ENCODING 12361
SWIDTH 1200 0
DWIDTH 20 0
BBX 20 20 0 -3
BITMAP
000000
000000
000000
000000
060000
030C00
020300
024180
238200
1E0000
020000
023C00
02C600
030100
060100
2A0100
324200
0A3C00
040000
000000
ENDCHAR
STARTCHAR 304A
ENCODING 12362
SWIDTH 1200 0
DWIDTH 20 0
BBX 20 20 0 -3
BITMAP
000000
060000
030000
020300
0230C0
026060
2380A0
1E0100
020000
020000
023E00
02C180
030040
060040
4A0040
320080
2A6180
061E00
040000
000000
ENDCHAR
STARTCHAR 304B
ENCODING 12363
SWIDTH 1200 0
DWIDTH 20 0
BBX 20 20 0 -3
BITMAP
000000
030000
018000
010000
010400
010200
43E100
3E1080
2210C0
021040
041060
0411E0
081040
081000
102000
222000
612000
40C000
008000
000000
ENDCHAR
STARTCHAR 304C
ENCODING 12364
SWIDTH 1200 0
DWIDTH 20 0
BBX 20 20 0 -3
BITMAP
000040
030230
018190
010080
010400
010200
43E100
3E1080
2210C0
021040
041060
0411E0
081040
081000
102000
222000
612000
40C000
008000
000000
ENDCHAR
STARTCHAR 304D
ENCODING 12365
SWIDTH 1200 0
DWIDTH 20 0
BBX 20 20 0 -3
BITMAP
00C000
004000
002000
002700
081C00
07F000
0009C0
000700
187C00
0F8400
000200
000200
01F900
060780
080180
080000
040000
030000
00FC00
000000
ENDCHAR
STARTCHAR 304E
ENCODING 12366
SWIDTH 1200 0
DWIDTH 20 0
BBX 20 20 0 -3
BITMAP
00C040
004030
002110
0026C0
081C40
07F000
0009C0
000700
187C00
0F8400
000200
000200
01F900
060780
080180
080000
040000
030000
00FC00
000000
ENDCHAR
STARTCHAR 304F
ENCODING 12367
SWIDTH 1200 0
DWIDTH 20 0
BBX 20 20 0 -3
BITMAP
000800
000C00
000800
001000
002000
004000
018000
060000
080000
080000
060000
010000
008000
004000
002000
001000
000800
000400
000400
000000
ENDCHAR
STARTCHAR 3050
ENCODING 12368
SWIDTH 1200 0
DWIDTH 20 0
BBX 20 20 0 -3
BITMAP
001000
001840
001230
002190
004080
008000
030000
0C0000
100000
100000
0C0000
020000
010000
008000
004000
002000
001000
000800
000800
000000
ENDCHAR
STARTCHAR 3051
ENCODING 12369
SWIDTH 1200 0
DWIDTH 20 0
BBX 20 20 0 -3
BITMAP
000800
100600
180300
100200
100200
1003C0
213E60
20C200
200200
200200
240200
240200
280200
280600
300400
100400
100800
100800
001000
002000
ENDCHAR
STARTCHAR 3052
ENCODING 12370
SWIDTH 1200 0
DWIDTH 20 0
BBX 20 20 0 -3
BITMAP
001040
200C30
300510
2004C0
200440
200700
427CC0
418400
400400
400400
480400
480400
500400
500C00
600800
200800
201000
201000
002000
004000
ENDCHAR
STARTCHAR 3053
ENCODING 12371
SWIDTH 1200 0
DWIDTH 20 0
BBX 20 20 0 -3
BITMAP
000000
000000
000000
060000
01FC00
000F00
003000
004000
000000
000000
000000
000000
100000
200000
200000
200000
100000
0C0180
03FF00
000000
ENDCHAR
STARTCHAR 3054
ENCODING 12372
SWIDTH 1200 0
DWIDTH 20 0
BBX 20 20 0 -3
BITMAP
000040
000130
0000D0
060040
01FC00
000F00
003000
004000
000000
000000
000000
000000
100000
200000
200000
200000
100000
0C0180
03FF00
000000
ENDCHAR
STARTCHAR 3055
ENCODING 12373
SWIDTH 1200 0
DWIDTH 20 0
BBX 20 20 0 -3
BITMAP
006000
002000
002200
001180
001380
180E00
0FF800
000800
000400
000400
00FA00
030700
040300
080180
080000
0C0000
040000
038000
007C00
000000
ENDCHAR
STARTCHAR 3056
ENCODING 12374
SWIDTH 1200 0
DWIDTH 20 0
BBX 20 20 0 -3
BITMAP
006040
002130
0020D0
001040
001300
180E00
0FF800
000800
000400
000400
00FA00
030700
040300
080180
080000
0C0000
040000
038000
007C00
000000
ENDCHAR
STARTCHAR 3057
ENCODING 12375
SWIDTH 1200 0
DWIDTH 20 0
BBX 20 20 0 -3
BITMAP
000000
180000
0C0000
040000
040000
040000
040000
040000
0C0000
080000
080000
080000
080000
080080
080100
080200
040400
071800
01E000
000000
ENDCHAR
STARTCHAR 3058
ENCODING 12376
SWIDTH 1200 0
DWIDTH 20 0
BBX 20 20 0 -3
BITMAP
000000
180200
0C0180
040880
040600
040200
040000
040000
0C0000
080000
080000
080000
080000
080080
080100
080200
040400
071800
01E000
000000
ENDCHAR
STARTCHAR 3059
ENCODING 12377
SWIDTH 1200 0
DWIDTH 20 0
BBX 20 20 0 -3
BITMAP
006000
001000
001800
001000
0010C0
40FFE0
7F1000
101000
00F000
011000
011800
011800
011800
00E800
001000
001000
002000
004000
008000
010000
ENDCHAR
STARTCHAR 305A
ENCODING 12378
SWIDTH 1200 0
DWIDTH 20 0
BBX 20 20 0 -3
BITMAP
006040
001230
001990
001080
001000
40FFE0
7F1000
101000
00F000
011000
011800
011800
011800
00E800
001000
001000
002000
004000
008000
010000
ENDCHAR
STARTCHAR 305B
ENCODING 12379
SWIDTH 1200 0
DWIDTH 20 0
BBX 20 20 0 -3
BITMAP
000000
000C00
000600
000600
060400
030400
0204C0
021FF0
43E400
7F0400
320400
022400
021C00
020800
020000
020000
010000
018000
007F00
000000
ENDCHAR
STARTCHAR 305C
ENCODING 12380
SWIDTH 1200 0
DWIDTH 20 0
BBX 20 20 0 -3
BITMAP
000040
001930
000CD0
000C40
0C0800
060800
040980
043FE0
87C800
FE0800
640800
044800
043800
041000
040000
040000
020000
030000
00FE00
000000
ENDCHAR
STARTCHAR 305D
ENCODING 12381
SWIDTH 1200 0
DWIDTH 20 0
BBX 20 20 0 -3
BITMAP
000000
000C00
047600
078800
021000
002000
004000
008380
017FE0
47B000
784000
208000
008000
010000
010000
008000
008000
006000
001E00
000000
ENDCHAR
STARTCHAR 305E
ENCODING 12382
SWIDTH 1200 0
DWIDTH 20 0
BBX 20 20 0 -3
BITMAP
000040
000C30
047610
078880
021060
002020
004000
008380
017FE0
47B000
784000
208000
008000
010000
010000
008000
008000
006000
001E00
000000
ENDCHAR
STARTCHAR 305F
ENCODING 12383
SWIDTH 1200 0
DWIDTH 20 0
BBX 20 20 0 -3
BITMAP
000000
060000
030000
010000
013000
43C000
7E1F00
2401C0
040300
040400
080000
080000
080000
100000
108000
308000
208000
606000
601FC0
000000
ENDCHAR
STARTCHAR 3060
ENCODING 12384
SWIDTH 1200 0
DWIDTH 20 0
BBX 20 20 0 -3
BITMAP
000080
060060
030220
010180
013080
43C000
7E1F00
2401C0
040300
040400
080000
080000
080000
100000
108000
308000
208000
606000
601FC0
000000
ENDCHAR
STARTCHAR 3061
ENCODING 12385
SWIDTH 1200 0
DWIDTH 20 0
BBX 20 20 0 -3
BITMAP
030000
018000
010000
010000
010C00
223800
1FC000
020000
020000
060000
043E00
04C100
0D0080
0E0080
0C0080
000180
000300
000C00
00F000
000000
ENDCHAR
STARTCHAR 3062
ENCODING 12386
SWIDTH 1200 0
DWIDTH 20 0
BBX 20 20 0 -3
BITMAP
030040
018030
010110
0100C0
010C40
223800
1FC000
020000
020000
060000
043E00
04C100
0D0080
0E0080
0C0080
000180
000300
000C00
00F000
000000
ENDCHAR
STARTCHAR 3063
ENCODING 12387
SWIDTH 1200 0
DWIDTH 20 0
BBX 20 20 0 -3
BITMAP
000000
000000
000000
000000
000000
000000
000000
000000
000000
003E00
11C100
1E0080
080080
000080
000080
000100
000600
001800
00E000
000000
ENDCHAR
STARTCHAR 3064
ENCODING 12388
SWIDTH 1200 0
DWIDTH 20 0
BBX 20 20 0 -3
BITMAP
000000
000000
000000
000000
001E00
00E180
470040
7C0020
200020
000020
000020
000040
000080
000300
000C00
007000
000000
000000
000000
000000
ENDCHAR
STARTCHAR 3065
ENCODING 12389
SWIDTH 1200 0
DWIDTH 20 0
BBX 20 20 0 -3
BITMAP
000040
000230
000190
000080
000000
001E00
00E180
470040
7C0020
200020
000020
000020
000040
000080
000300
000C00
007000
000000
000000
000000
ENDCHAR
STARTCHAR 3066
ENCODING 12390
SWIDTH 1200 0
DWIDTH 20 0
BBX 20 20 0 -3
BITMAP
000000
000000
0001C0
001FE0
41EC00
7E1000
102000
004000
004000
008000
008000
008000
008000
008000
004000
006000
003800
000F00
000000
000000
ENDCHAR
STARTCHAR 3067
ENCODING 12391
SWIDTH 1200 0
DWIDTH 20 0
BBX 20 20 0 -3
BITMAP
000000
000000
0001C0
001FE0
41EC00
7E1080
102060
004220
004180
008080
008000
008000
008000
008000
004000
006000
003800
000F00
000000
000000
ENDCHAR
STARTCHAR 3068
ENCODING 12392
SWIDTH 1200 0
DWIDTH 20 0
BBX 20 20 0 -3
BITMAP
000000
030000
018000
008000
008000
008000
008200
008100
008600
005800
006000
018000
020000
040000
080000
080000
080000
060100
01FE00
000000
ENDCHAR
STARTCHAR 3069
ENCODING 12393
SWIDTH 1200 0
DWIDTH 20 0
BBX 20 20 0 -3
BITMAP
000000
030080
018460
008320
008100
008000
008200
008100
008600
005800
006000
018000
020000
040000
080000
080000
080000
060100
01FE00
000000
ENDCHAR
STARTCHAR 306A
ENCODING 12394
SWIDTH 1200 0
DWIDTH 20 0
BBX 20 20 0 -3
BITMAP
000000
018000
00C000
008000
00B000
1FC380
090040
0100E0
020120
020200
040200
080400
180400
300400
200400
00FF00
0104C0
018440
007800
000000
ENDCHAR
STARTCHAR 306B
ENCODING 12395
SWIDTH 1200 0
DWIDTH 20 0
BBX 20 20 0 -3
BITMAP
000000
000000
200000
100000
181F00
1061C0
100300
200400
200000
200000
200000
240000
240000
288000
288000
308000
106000
101FC0
100000
000000
ENDCHAR
STARTCHAR 306C
ENCODING 12396
SWIDTH 1200 0
DWIDTH 20 0
BBX 20 20 0 -3
BITMAP
000000
003000
001800
001000
101000
087E00
09A180
0A2040
044040
0C4020
148020
258020
230020
420040
451F80
492140
302260
001C20
000000
000000
ENDCHAR
STARTCHAR 306D
ENCODING 12397
SWIDTH 1200 0
DWIDTH 20 0
BBX 20 20 0 -3
BITMAP
060000
030000
020000
020000
020000
028F00
4F30C0
324040
028020
030020
020020
060020
0A0020
120040
220FC0
521060
4A10B0
060F10
040000
040000
ENDCHAR
STARTCHAR 306E
ENCODING 12398
SWIDTH 1200 0
DWIDTH 20 0
BBX 20 20 0 -3
BITMAP
000000
000000
000000
00FC00
034300
046180
0840C0
104040
208060
208020
410020
410020
420040
220040
3C0080
080100
000600
003800
000000
000000
ENDCHAR
STARTCHAR 306F
ENCODING 12399
SWIDTH 1200 0
DWIDTH 20 0
BBX 20 20 0 -3
BITMAP
000000
200600
100300
180200
100200
108260
10FF80
204200
200200
200200
200200
240200
240200
280200
287F00
3882C0
108660
107C20
100000
000000
ENDCHAR
STARTCHAR 3070
ENCODING 12400
SWIDTH 1200 0
DWIDTH 20 0
BBX 20 20 0 -3
BITMAP
000040
400D30
2004D0
300640
200400
2104C0
21FF00
408400
400400
400400
400400
480400
480400
500400
50FE00
710580
210CC0
20F840
200000
000000
ENDCHAR
STARTCHAR 3071
ENCODING 12401
SWIDTH 1200 0
DWIDTH 20 0
BBX 20 20 0 -3
BITMAP
000060
400C90
200690
300460
200400
2104C0
21FF00
408400
400400
400400
400400
480400
480400
500400
50FE00
710580
210CC0
20F840
200000
000000
ENDCHAR
STARTCHAR 3072
ENCODING 12402
SWIDTH 1200 0
DWIDTH 20 0
BBX 20 20 0 -3
BITMAP
000000
000000
008400
038400
6D0200
320200
040300
040280
0802C0
080260
100220
100400
100400
100400
100800
100800
081000
0C2000
03C000
000000
ENDCHAR
STARTCHAR 3073
ENCODING 12403
SWIDTH 1200 0
DWIDTH 20 0
BBX 20 20 0 -3
BITMAP
000040
000030
008410
038480
6D0260
320220
040300
040280
0802C0
080260
100220
100400
100400
100400
100800
100800
081000
0C2000
03C000
000000
ENDCHAR
STARTCHAR 3074
ENCODING 12404
SWIDTH 1200 0
DWIDTH 20 0
BBX 20 20 0 -3
BITMAP
000000
000060
008490
038490
6D0260
320200
040300
040280
0802C0
080260
100220
100400
100400
100400
100800
100800
081000
0C2000
03C000
000000
ENDCHAR
STARTCHAR 3075
ENCODING 12405
SWIDTH 1200 0
DWIDTH 20 0
BBX 20 20 0 -3
BITMAP
000000
008000
004000
002000
003000
006000
008000
010000
010000
008000
004000
007E00
01A180
461040
281060
3811E0
11F020
106000
000000
000000
ENDCHAR
STARTCHAR 3076
ENCODING 12406
SWIDTH 1200 0
DWIDTH 20 0
BBX 20 20 0 -3
BITMAP
000000
008080
004060
002220
003180
006080
008000
010000
010000
008000
004000
007E00
01A180
461040
281060
3811E0
11F020
106000
000000
000000
ENDCHAR
STARTCHAR 3077
ENCODING 12407
SWIDTH 1200 0
DWIDTH 20 0
BBX 20 20 0 -3
BITMAP
000000
008000
004180
002240
003240
006180
008000
010000
010000
008000
004000
007E00
01A180
461040
281060
3811E0
11F020
106000
000000
000000
ENDCHAR
STARTCHAR 3078
ENCODING 12408
SWIDTH 1200 0
DWIDTH 20 0
BBX 20 20 0 -3
BITMAP
000000
000000
000000
000000
000000
030000
048000
084000
084000
102000
701000
200C00
000600
000300
0001C0
000060
000000
000000
000000
000000
ENDCHAR
STARTCHAR 3079
ENCODING 12409
SWIDTH 1200 0
DWIDTH 20 0
BBX 20 20 0 -3
BITMAP
000000
000080
000060
000220
000180
030080
048000
084000
084000
102000
701000
200C00
000600
000300
0001C0
000060
000000
000000
000000
000000
ENDCHAR
STARTCHAR 307A
ENCODING 12410
SWIDTH 1200 0
DWIDTH 20 0
BBX 20 20 0 -3
BITMAP
000000
000000
000300
000480
000480
030300
048000
084000
084000
102000
701000
200C00
000600
000300
0001C0
000060
000000
000000
000000
000000
ENDCHAR
STARTCHAR 307B
ENCODING 12411
SWIDTH 1200 0
DWIDTH 20 0
BBX 20 20 0 -3
BITMAP
000000
200000
1047C0
183C80
100600
100200
302200
20C2C0
207F80
200200
200200
240200
240200
280200
287F00
3082C0
308260
107C20
100000
000000
ENDCHAR
STARTCHAR 307C
ENCODING 12412
SWIDTH 1200 0
DWIDTH 20 0
BBX 20 20 0 -3
BITMAP
000000
400000
208F40
307830
200C90
200460
204420
618580
40FF00
400400
400400
480400
480400
500400
50FE00
610580
6104C0
20F840
200000
000000
ENDCHAR
STARTCHAR 307D
ENCODING 12413
SWIDTH 1200 0
DWIDTH 20 0
BBX 20 20 0 -3
BITMAP
000000
400000
208F60
307890
200C90
200460
204400
618580
40FF00
400400
400400
480400
480400
500400
50FE00
610580
6104C0
20F840
200000
000000
ENDCHAR
STARTCHAR 307E
ENCODING 12414
SWIDTH 1200 0
DWIDTH 20 0
BBX 20 20 0 -3
BITMAP
006000
003000
002000
007F80
3FA1C0
082200
002000
022000
0C2700
07FC00
002000
002000
002000
002000
002000
07FC00
182780
082080
07C000
000000
ENDCHAR
STARTCHAR 307F
ENCODING 12415
SWIDTH 1200 0
DWIDTH 20 0
BBX 20 20 0 -3
BITMAP
000000
000000
082000
07F000
062000
004000
004200
004180
008180
008100
07F900
190700
220280
420240
440460
380420
000800
001000
006000
000000
ENDCHAR
STARTCHAR 3080
ENCODING 12416
SWIDTH 1200 0
DWIDTH 20 0
BBX 20 20 0 -3
BITMAP
000000
0E0000
030000
020000
028000
63C180
3E0240
020220
0202A0
1A0260
260220
220200
220100
240100
1C0080
080080
080080
040300
03FC00
000000
ENDCHAR
STARTCHAR 3081
ENCODING 12417
SWIDTH 1200 0
DWIDTH 20 0
BBX 20 20 0 -3
BITMAP
000000
003000
001800
001000
101000
10FC00
0B2300
0C2080
084040
144040
248020
230020
410020
428040
424040
240180
180600
003800
000000
000000
ENDCHAR
STARTCHAR 3082
ENCODING 12418
SWIDTH 1200 0
DWIDTH 20 0
BBX 20 20 0 -3
BITMAP
018000
00C000
00C000
008000
108000
0E8000
03E000
050000
090000
090200
050100
03F100
020080
020080
020080
020080
020100
010100
008600
007800
ENDCHAR
STARTCHAR 3083
ENCODING 12419
SWIDTH 1200 0
DWIDTH 20 0
BBX 20 20 0 -3
BITMAP
000000
000000
000000
000000
008000
007000
082000
045E00
026100
038080
050080
391100
108E00
008000
004000
004000
006000
002000
002000
000000
ENDCHAR
STARTCHAR 3084
ENCODING 12420
SWIDTH 1200 0
DWIDTH 20 0
BBX 20 20 0 -3
BITMAP
000000
00C000
003000
003800
184000
0C0F00
0230C0
02C020
030020
4D0020
7890C0
208F00
004000
004000
002000
002000
003000
001000
001000
000000
ENDCHAR
STARTCHAR 3085
ENCODING 12421
SWIDTH 1200 0
DWIDTH 20 0
BBX 20 20 0 -3
BITMAP
000000
000000
000000
000000
00C000
012000
012000
42F000
232C00
262200
2A2200
2A2200
322200
122200
112400
10F800
004000
004000
008000
010000
ENDCHAR
STARTCHAR 3086
ENCODING 12422
SWIDTH 1200 0
DWIDTH 20 0
BBX 20 20 0 -3
BITMAP
000000
003800
004400
008400
40BE00
21C580
330440
350440
250420
290420
290420
288840
308840
304980
103E00
101000
001000
002000
004000
018000
ENDCHAR
STARTCHAR 3087
ENCODING 12423
SWIDTH 1200 0
DWIDTH 20 0
BBX 20 20 0 -3
BITMAP
000000
000000
000000
000000
000000
008000
004000
006000
004000
004C00
007000
004000
004000
004000
004000
0FE000
105800
104400
0F8400
000000
ENDCHAR
STARTCHAR 3088
ENCODING 12424
SWIDTH 1200 0
DWIDTH 20 0
BBX 20 20 0 -3
BITMAP
004000
002000
003000
002000
002000
002100
002F80
003800
002000
002000
002000
002000
002000
002000
0FF000
182E00
102180
106080
0F8000
000000
ENDCHAR
STARTCHAR 3089
ENCODING 12425
SWIDTH 1200 0
DWIDTH 20 0
BBX 20 20 0 -3
BITMAP
008000
006000
001800
000C00
007C00
018000
020000
020000
020000
040000
043E00
04C180
050080
060040
020040
000080
000080
000700
007800
000000
ENDCHAR
STARTCHAR 308A
ENCODING 12426
SWIDTH 1200 0
DWIDTH 20 0
BBX 20 20 0 -3
BITMAP
080000
043800
064400
048200
050200
050100
050100
0A0100
0A0100
0A0100
0E0100
040200
040200
040200
000400
000400
000800
001000
002000
00C000
ENDCHAR
STARTCHAR 308B
ENCODING 12427
SWIDTH 1200 0
DWIDTH 20 0
BBX 20 20 0 -3
BITMAP
000000
000400
043E00
03C400
010800
001000
002000
004000
008000
017C00
038300
060080
0C0040
180040
180040
00F040
010880
018B00
00FC00
000000
ENDCHAR
STARTCHAR 308C
ENCODING 12428
SWIDTH 1200 0
DWIDTH 20 0
BBX 20 20 0 -3
BITMAP
060000
030000
020000
020000
020000
038E00
6EB100
334100
028100
030100
020200
060200
0A0400
120400
220400
620410
420220
0A01C0
060000
040000
ENDCHAR
STARTCHAR 308D
ENCODING 12429
SWIDTH 1200 0
DWIDTH 20 0
BBX 20 20 0 -3
BITMAP
000000
000400
043E00
03C400
010800
001000
002000
004000
008000
017C00
038300
060080
0C0040
180040
100040
000080
000100
000600
007800
000000
ENDCHAR
STARTCHAR 308E
ENCODING 12430
SWIDTH 1200 0
DWIDTH 20 0
BBX 20 20 0 -3
BITMAP
000000
000000
000000
000000
060000
030000
020000
030000
363C00
1AC200
030100
020100
060100
0A0100
120100
320200
2A0C00
063000
040000
000000
ENDCHAR
STARTCHAR 308F
ENCODING 12431
SWIDTH 1200 0
DWIDTH 20 0
BBX 20 20 0 -3
BITMAP
060000
030000
030000
020000
020000
038000
6E9E00
336180
028040
030040
020020
060020
0A0020
120040
220040
620080
420300
0A1C00
060000
040000
ENDCHAR
STARTCHAR 3090
ENCODING 12432
SWIDTH 1200 0
DWIDTH 20 0
BBX 20 20 0 -3
BITMAP
000000
000800
043C00
03C800
010800
001000
001000
002000
00FE00
034180
044040
088040
108020
210020
220020
221C40
242240
182180
001E00
000000
ENDCHAR
STARTCHAR 3091
ENCODING 12433
SWIDTH 1200 0
DWIDTH 20 0
BBX 20 20 0 -3
BITMAP
000000
000800
03FC00
011000
002000
004000
00F800
030600
0C0100
08C100
012200
012C00
00F000
008000
030000
040780
0B1840
30A060
204180
000200
ENDCHAR
STARTCHAR 3092
ENCODING 12434
SWIDTH 1200 0
DWIDTH 20 0
BBX 20 20 0 -3
BITMAP
008000
006000
004000
004000
109C00
1FE000
088080
0100C0
03C180
062600
0C1800
187000
109000
011000
021000
040000
040000
020000
01FE00
000000
ENDCHAR
STARTCHAR 3093
ENCODING 12435
SWIDTH 1200 0
DWIDTH 20 0
BBX 20 20 0 -3
BITMAP
000000
00C000
006000
004000
008000
008000
010000
010000
020000
020000
058000
064020
0C2020
082020
102040
102040
201080
601100
400E00
000000
ENDCHAR
STARTCHAR 309B
ENCODING 12443
SWIDTH 1200 0
DWIDTH 20 0
BBX 20 20 0 -3
BITMAP
040000
420000
230000
310000
110000
100000
000000
000000
000000
000000
000000
000000
000000
000000
000000
000000
000000
000000
000000
000000
ENDCHAR
STARTCHAR 309C
ENCODING 12444
SWIDTH 1200 0
DWIDTH 20 0
BBX 20 20 0 -3
BITMAP
000000
000000
380000
440000
440000
440000
380000
000000
000000
000000
000000
000000
000000
000000
000000
000000
000000
000000
000000
000000
ENDCHAR
STARTCHAR 309D
ENCODING 12445
SWIDTH 1200 0
DWIDTH 20 0
BBX 20 20 0 -3
BITMAP
000000
000000
000000
000000
000000
020000
010000
008000
004000
002000
001800
000C00
003C00
00C000
000000
000000
000000
000000
000000
000000
ENDCHAR
STARTCHAR 309E
ENCODING 12446
SWIDTH 1200 0
DWIDTH 20 0
BBX 20 20 0 -3
BITMAP
000000
000000
000100
0008C0
000640
020200
010000
008000
004000
002000
001800
000C00
003C00
00C000
000000
000000
000000
000000
000000
000000
ENDCHAR
STARTCHAR 30A1
ENCODING 12449
SWIDTH 1200 0
DWIDTH 20 0
BBX 20 20 0 -3
BITMAP
000000
000000
000000
000000
000000
000000
000600
1FFF00
0C0400
008800
005000
004000
004000
004000
008000
008000
010000
020000
040000
000000
ENDCHAR
STARTCHAR 30A2
ENCODING 12450
SWIDTH 1200 0
DWIDTH 20 0
BBX 20 20 0 -3
BITMAP
000000
000000
000180
203FE0
1FC0C0
0C0100
004200
003400
003000
002000
006000
004000
004000
008000
008000
010000
010000
020000
040000
000000
ENDCHAR
STARTCHAR 30A3
ENCODING 12451
SWIDTH 1200 0
DWIDTH 20 0
BBX 20 20 0 -3
BITMAP
000000
000000
000000
000000
000000
000800
000C00
001800
003000
006000
00C000
016000
023000
0C2000
302000
002000
002000
002000
002000
000000
ENDCHAR
STARTCHAR 30A4
ENCODING 12452
SWIDTH 1200 0
DWIDTH 20 0
BBX 20 20 0 -3
BITMAP
000200
000100
000180
000300
000600
000C00
001800
003000
004800
018C00
020800
0C0800
300800
000800
000800
000800
000800
000800
000800
000000
ENDCHAR
STARTCHAR 30A5
ENCODING 12453
SWIDTH 1200 0
DWIDTH 20 0
BBX 20 20 0 -3
BITMAP
000000
000000
000000
000000
00C000
006000
004000
004200
18FF00
0F0200
080200
080200
080400
000400
000800
001000
002000
00C000
030000
000000
ENDCHAR
STARTCHAR 30A6
ENCODING 12454
SWIDTH 1200 0
DWIDTH 20 0
BBX 20 20 0 -3
BITMAP
000000
006000
003000
002000
102040
087FE0
0F8040
080040
0800C0
080080
080180
000100
000200
000200
000400
000800
001000
006000
018000
000000
ENDCHAR
STARTCHAR 30A7
ENCODING 12455
SWIDTH 1200 0
DWIDTH 20 0
BBX 20 20 0 -3
BITMAP
000000
000000
000000
000000
000000
000000
000000
000400
0FFE00
044000
006000
004000
004000
004000
004000
01FF00
3E0180
100000
000000
000000
ENDCHAR
STARTCHAR 30A8
ENCODING 12456
SWIDTH 1200 0
DWIDTH 20 0
BBX 20 20 0 -3
BITMAP
000000
000000
000000
000000
000600
1FFF00
084000
006000
006000
004000
004000
004000
004000
004000
00FFC0
7F0060
100000
000000
000000
000000
ENDCHAR
STARTCHAR 30A9
ENCODING 12457
SWIDTH 1200 0
DWIDTH 20 0
BBX 20 20 0 -3
BITMAP
000000
000000
000000
000000
002000
001800
001000
001000
001100
1FFF80
083000
005000
009000
011000
021000
041000
189000
007000
002000
000000
ENDCHAR
STARTCHAR 30AA
ENCODING 12458
SWIDTH 1200 0
DWIDTH 20 0
BBX 20 20 0 -3
BITMAP
001000
000800
000C00
000800
000800
0008C0
7FFFE0
181800
003800
006800
00C800
018800
030800
060800
080800
100800
604800
003800
001000
000000
ENDCHAR
STARTCHAR 30AB
ENCODING 12459
SWIDTH 1200 0
DWIDTH 20 0
BBX 20 20 0 -3
BITMAP
000000
00C000
006000
004000
004000
004080
007FC0
7FC080
188080
008080
018180
010100
030100
020300
040200
080600
106400
201C00
400800
000000
ENDCHAR
STARTCHAR 30AC
ENCODING 12460
SWIDTH 1200 0
DWIDTH 20 0
BBX 20 20 0 -3
BITMAP
000040
00C030
006110
0040C0
004040
004080
007FC0
7FC080
188080
008080
018180
010100
030100
020300
040200
080600
106400
201C00
400800
000000
ENDCHAR
STARTCHAR 30AD
ENCODING 12461
SWIDTH 1200 0
DWIDTH 20 0
BBX 20 20 0 -3
BITMAP
000000
018000
00C000
004000
004700
007C00
3FE000
182000
002040
0027E0
007800
039000
7C1000
301000
001800
000800
000800
000C00
000800
000000
ENDCHAR
STARTCHAR 30AE
ENCODING 12462
SWIDTH 1200 0
DWIDTH 20 0
BBX 20 20 0 -3
BITMAP
000040
018130
00C0D0
004040
004700
007C00
3FE000
182000
002040
0027E0
007800
039000
7C1000
301000
001800
000800
000800
000C00
000800
000000
ENDCHAR
STARTCHAR 30AF
ENCODING 12463
SWIDTH 1200 0
DWIDTH 20 0
BBX 20 20 0 -3
BITMAP
000000
00C000
006000
004080
00CFC0
01B080
010180
020100
040300
080200
100400
000400
000800
001000
002000
004000
008000
030000
0C0000
000000
ENDCHAR
STARTCHAR 30B0
ENCODING 12464
SWIDTH 1200 0
DWIDTH 20 0
BBX 20 20 0 -3
BITMAP
000040
018030
00C090
008060
019F20
036100
020300
040200
080600
100400
200800
000800
001000
002000
004000
008000
010000
060000
180000
000000
ENDCHAR
STARTCHAR 30B1
ENCODING 12465
SWIDTH 1200 0
DWIDTH 20 0
BBX 20 20 0 -3
BITMAP
000000
030000
018000
010000
030000
020180
063FE0
07C800
080C00
100800
201800
401000
001000
002000
002000
004000
008000
010000
060000
000000
ENDCHAR
STARTCHAR 30B2
ENCODING 12466
SWIDTH 1200 0
DWIDTH 20 0
BBX 20 20 0 -3
BITMAP
000040
030230
018190
010080
030000
020180
063FE0
07C800
080C00
100800
201800
401000
001000
002000
002000
004000
008000
010000
060000
000000
ENDCHAR
STARTCHAR 30B3
ENCODING 12467
SWIDTH 1200 0
DWIDTH 20 0
BBX 20 20 0 -3
BITMAP
000000
000000
000000
000000
000080
1FFFC0
0C0080
000080
000100
000100
000100
000200
000200
000200
3FFF00
180100
000000
000000
000000
000000
ENDCHAR
STARTCHAR 30B4
ENCODING 12468
SWIDTH 1200 0
DWIDTH 20 0
BBX 20 20 0 -3
BITMAP
000040
000230
000190
000080
000000
1FFF80
0C0080
000080
000100
000100
000100
000200
000200
000200
3FFF00
180100
000000
000000
000000
000000
ENDCHAR
STARTCHAR 30B5
ENCODING 12469
SWIDTH 1200 0
DWIDTH 20 0
BBX 20 20 0 -3
BITMAP
000000
000C00
060600
030200
010200
010240
413FE0
7FE200
210200
010600
010400
030400
010400
000800
000800
001000
002000
004000
018000
000000
ENDCHAR
STARTCHAR 30B6
ENCODING 12470
SWIDTH 1200 0
DWIDTH 20 0
BBX 20 20 0 -3
BITMAP
000040
000D30
0606D0
030240
010200
010240
413FE0
7FE200
210200
010600
010400
030400
010400
000800
000800
001000
002000
004000
018000
000000
ENDCHAR
STARTCHAR 30B7
ENCODING 12471
SWIDTH 1200 0
DWIDTH 20 0
BBX 20 20 0 -3
BITMAP
000000
000000
000000
060000
018000
00C000
004000
000020
180040
060080
030100
010200
000400
000800
001000
006000
118000
0F0000
040000
000000
ENDCHAR
STARTCHAR 30B8
ENCODING 12472
SWIDTH 1200 0
DWIDTH 20 0
BBX 20 20 0 -3
BITMAP
000000
000080
000460
060320
018100
00C000
004000
000020
180040
060080
030100
010200
000400
000800
001000
006000
118000
0F0000
040000
000000
ENDCHAR
STARTCHAR 30B9
ENCODING 12473
SWIDTH 1200 0
DWIDTH 20 0
BBX 20 20 0 -3
BITMAP
000000
000000
000000
000200
0FFF00
070600
000C00
000800
001800
003000
002000
004800
008400
010200
020100
040180
0800C0
3000C0
000000
000000
ENDCHAR
STARTCHAR 30BA
ENCODING 12474
SWIDTH 1200 0
DWIDTH 20 0
BBX 20 20 0 -3
BITMAP
000040
000130
0000D0
000240
0FFF00
070600
000C00
000800
001800
003000
002000
004800
008400
010200
020100
040180
0800C0
3000C0
000000
000000
ENDCHAR
STARTCHAR 30BB
ENCODING 12475
SWIDTH 1200 0
DWIDTH 20 0
BBX 20 20 0 -3
BITMAP
000000
000000
030000
018000
010000
010000
010180
011FE0
01E0C0
7F0100
310600
010800
010000
010000
010000
010000
00C180
007F00
000000
000000
ENDCHAR
STARTCHAR 30BC
ENCODING 12476
SWIDTH 1200 0
DWIDTH 20 0
BBX 20 20 0 -3
BITMAP
000040
000030
030110
0180C0
010040
010000
010180
011FE0
01E0C0
7F0100
310600
010800
010000
010000
010000
010000
00C180
007F00
000000
000000
ENDCHAR
STARTCHAR 30BD
ENCODING 12477
SWIDTH 1200 0
DWIDTH 20 0
BBX 20 20 0 -3
BITMAP
000000
000000
000200
100100
080180
040180
020100
030300
010200
010600
000400
000800
000800
001000
002000
004000
008000
010000
060000
000000
ENDCHAR
STARTCHAR 30BE
ENCODING 12478
SWIDTH 1200 0
DWIDTH 20 0
BBX 20 20 0 -3
BITMAP
000040
000130
0004D0
200240
100300
080300
040200
060600
020400
020C00
000800
001000
001000
002000
004000
008000
010000
020000
0C0000
000000
ENDCHAR
STARTCHAR 30BF
ENCODING 12479
SWIDTH 1200 0
DWIDTH 20 0
BBX 20 20 0 -3
BITMAP
000000
00C000
006000
004080
00CFC0
00B080
010080
020180
05C100
083300
101A00
000600
000400
000800
001000
002000
00C000
030000
0C0000
000000
ENDCHAR
STARTCHAR 30C0
ENCODING 12480
SWIDTH 1200 0
DWIDTH 20 0
BBX 20 20 0 -3
BITMAP
000040
018030
00C090
008060
019FA0
016100
020100
040300
0B8200
106600
203400
000C00
000800
001000
002000
004000
018000
060000
180000
000000
ENDCHAR
STARTCHAR 30C1
ENCODING 12481
SWIDTH 1200 0
DWIDTH 20 0
BBX 20 20 0 -3
BITMAP
000000
000200
001F00
00E000
073800
001000
001000
00FF80
7F20E0
302000
002000
006000
004000
004000
008000
008000
010000
020000
040000
000000
ENDCHAR
STARTCHAR 30C2
ENCODING 12482
SWIDTH 1200 0
DWIDTH 20 0
BBX 20 20 0 -3
BITMAP
000040
000430
001E90
00E060
073820
001000
001000
00FF80
7F20E0
302000
002000
006000
004000
004000
008000
008000
010000
020000
040000
000000
ENDCHAR
STARTCHAR 30C3
ENCODING 12483
SWIDTH 1200 0
DWIDTH 20 0
BBX 20 20 0 -3
BITMAP
000000
000000
000000
000000
000000
000000
010000
008400
104300
084200
040600
040400
000800
000800
001000
002000
004000
008000
030000
000000
ENDCHAR
STARTCHAR 30C4
ENCODING 12484
SWIDTH 1200 0
DWIDTH 20 0
BBX 20 20 0 -3
BITMAP
000000
000000
008100
004080
1040C0
082080
042080
042180
040100
000300
000200
000400
000400
000800
001000
002000
004000
018000
060000
000000
ENDCHAR
STARTCHAR 30C5
ENCODING 12485
SWIDTH 1200 0
DWIDTH 20 0
BBX 20 20 0 -3
BITMAP
000040
000130
0100D0
008240
208100
104180
084100
084300
080200
000600
000400
000800
000800
001000
002000
004000
008000
030000
0C0000
000000
ENDCHAR
STARTCHAR 30C6
ENCODING 12486
SWIDTH 1200 0
DWIDTH 20 0
BBX 20 20 0 -3
BITMAP
000000
000000
000600
0FFF00
060000
000000
000000
00FF80
7F20E0
303000
002000
006000
004000
004000
008000
008000
010000
020000
040000
000000
ENDCHAR
STARTCHAR 30C7
ENCODING 12487
SWIDTH 1200 0
DWIDTH 20 0
BBX 20 20 0 -3
BITMAP
000040
000030
000C10
1FFE80
0C0060
000020
000000
01FF00
FE41C0
606000
004000
00C000
008000
008000
010000
010000
020000
040000
080000
000000
ENDCHAR
STARTCHAR 30C8
ENCODING 12488
SWIDTH 1200 0
DWIDTH 20 0
BBX 20 20 0 -3
BITMAP
018000
00C000
00C000
008000
008000
008000
008000
008000
00E000
009C00
008700
008100
008000
008000
008000
008000
018000
018000
008000
000000
ENDCHAR
STARTCHAR 30C9
ENCODING 12489
SWIDTH 1200 0
DWIDTH 20 0
BBX 20 20 0 -3
BITMAP
018000
00C080
00C060
008220
008180
008080
008000
008000
00E000
009C00
008700
008100
008000
008000
008000
008000
018000
018000
008000
000000
ENDCHAR
STARTCHAR 30CA
ENCODING 12490
SWIDTH 1200 0
DWIDTH 20 0
BBX 20 20 0 -3
BITMAP
000000
006000
003000
002000
002000
002000
00FF80
7F20E0
302000
002000
004000
004000
004000
008000
008000
010000
010000
020000
040000
000000
ENDCHAR
STARTCHAR 30CB
ENCODING 12491
SWIDTH 1200 0
DWIDTH 20 0
BBX 20 20 0 -3
BITMAP
000000
000000
000000
000000
000000
080600
0FFF00
060000
000000
000000
000000
000000
000000
000000
40FF80
3F00E0
100000
000000
000000
000000
ENDCHAR
STARTCHAR 30CC
ENCODING 12492
SWIDTH 1200 0
DWIDTH 20 0
BBX 20 20 0 -3
BITMAP
000000
000000
000100
003F80
0FC100
060200
000600
000400
00C800
003000
001800
002400
004200
008300
010180
060080
080000
300000
000000
000000
ENDCHAR
STARTCHAR 30CD
ENCODING 12493
SWIDTH 1200 0
DWIDTH 20 0
BBX 20 20 0 -3
BITMAP
00C000
003000
001000
000200
003F00
0FC600
040C00
001800
003000
006000
00DC00
012300
0221C0
0C2040
302000
002000
002000
002000
002000
000000
ENDCHAR
STARTCHAR 30CE
ENCODING 12494
SWIDTH 1200 0
DWIDTH 20 0
BBX 20 20 0 -3
BITMAP
000000
000000
000300
000180
000100
000300
000200
000600
000400
000800
000800
001000
002000
004000
008000
010000
020000
0C0000
300000
000000
ENDCHAR
STARTCHAR 30CF
ENCODING 12495
SWIDTH 1200 0
DWIDTH 20 0
BBX 20 20 0 -3
BITMAP
000000
000000
000000
000000
001000
040800
030400
020200
020100
060100
040080
0800C0
080040
100060
200020
C00020
000000
000000
000000
000000
ENDCHAR
STARTCHAR 30D0
ENCODING 12496
SWIDTH 1200 0
DWIDTH 20 0
BBX 20 20 0 -3
BITMAP
000000
000080
000460
000320
001100
040800
030400
020200
020100
060100
040080
0800C0
080040
100060
200020
C00020
000000
000000
000000
000000
ENDCHAR
STARTCHAR 30D1
ENCODING 12497
SWIDTH 1200 0
DWIDTH 20 0
BBX 20 20 0 -3
BITMAP
000000
0000C0
000120
000120
0010C0
040800
030400
020200
020100
060100
040080
0800C0
080040
100060
200020
C00020
000000
000000
000000
000000
ENDCHAR
STARTCHAR 30D2
ENCODING 12498
SWIDTH 1200 0
DWIDTH 20 0
BBX 20 20 0 -3
BITMAP
000000
180000
0C0000
0C0000
080000
080000
080200
081F00
0FE000
080000
080000
080000
080000
080000
080000
080000
060300
01FE00
000000
000000
ENDCHAR
STARTCHAR 30D3
ENCODING 12499
SWIDTH 1200 0
DWIDTH 20 0
BBX 20 20 0 -3
BITMAP
000040
180030
0C0110
0C00C0
080040
080000
080200
081F00
0FE000
080000
080000
080000
080000
080000
080000
080000
060300
01FE00
000000
000000
ENDCHAR
STARTCHAR 30D4
ENCODING 12500
SWIDTH 1200 0
DWIDTH 20 0
BBX 20 20 0 -3
BITMAP
000000
180060
0C0090
0C0090
080060
080000
080200
081F00
0FE000
080000
080000
080000
080000
080000
080000
080000
060300
01FE00
000000
000000
ENDCHAR
STARTCHAR 30D5
ENCODING 12501
SWIDTH 1200 0
DWIDTH 20 0
BBX 20 20 0 -3
BITMAP
000000
000000
000000
000040
101FE0
1FE040
0C0040
0000C0
000080
000180
000100
000300
000200
000400
000800
001000
002000
00C000
030000
000000
ENDCHAR
STARTCHAR 30D6
ENCODING 12502
SWIDTH 1200 0
DWIDTH 20 0
BBX 20 20 0 -3
BITMAP
000040
000130
0000D0
000140
203F80
3FC100
180100
000100
000300
000200
000600
000400
000800
000800
001000
002000
004000
018000
060000
000000
ENDCHAR
STARTCHAR 30D7
ENCODING 12503
SWIDTH 1200 0
DWIDTH 20 0
BBX 20 20 0 -3
BITMAP
000060
000090
000090
000160
203F80
3FC100
180100
000100
000300
000200
000600
000400
000800
000800
001000
002000
004000
018000
060000
000000
ENDCHAR
STARTCHAR 30D8
ENCODING 12504
SWIDTH 1200 0
DWIDTH 20 0
BBX 20 20 0 -3
BITMAP
000000
000000
000000
000000
010000
038000
024000
042000
081000
100800
700400
200200
000180
0000E0
000020
000000
000000
000000
000000
000000
ENDCHAR
STARTCHAR 30D9
ENCODING 12505
SWIDTH 1200 0
DWIDTH 20 0
BBX 20 20 0 -3
BITMAP
000000
000080
000060
000220
010180
038080
024000
042000
081000
100800
700400
200200
000180
0000E0
000020
000000
000000
000000
000000
000000
ENDCHAR
STARTCHAR 30DA
ENCODING 12506
SWIDTH 1200 0
DWIDTH 20 0
BBX 20 20 0 -3
BITMAP
000000
000000
000180
000240
010240
038180
024000
042000
081000
100800
700400
200200
000180
0000E0
000020
000000
000000
000000
000000
000000
ENDCHAR
STARTCHAR 30DB
ENCODING 12507
SWIDTH 1200 0
DWIDTH 20 0
BBX 20 20 0 -3
BITMAP
000000
00C000
006000
006000
004000
004000
007F00
7FC1C0
184000
004000
004400
084200
0C4100
084080
1040C0
204040
414000
00C000
008000
000000
ENDCHAR
STARTCHAR 30DC
ENCODING 12508
SWIDTH 1200 0
DWIDTH 20 0
BBX 20 20 0 -3
BITMAP
000040
00C130
0060D0
006040
004000
004000
007F00
7FC1C0
184000
004000
004400
084200
0C4100
084080
1040C0
204040
414000
00C000
008000
000000
ENDCHAR
STARTCHAR 30DD
ENCODING 12509
SWIDTH 1200 0
DWIDTH 20 0
BBX 20 20 0 -3
BITMAP
0000C0
00C120
006120
0060C0
004000
004000
007F00
7FC1C0
184000
004000
004400
084200
0C4100
084080
1040C0
204040
414000
00C000
008000
000000
ENDCHAR
STARTCHAR 30DE
ENCODING 12510
SWIDTH 1200 0
DWIDTH 20 0
BBX 20 20 0 -3
BITMAP
000000
000000
000000
000000
000040
003FE0
7FC180
180100
000200
000400
000800
033000
00C000
003000
001800
000C00
000400
000000
000000
000000
ENDCHAR
STARTCHAR 30DF
ENCODING 12511
SWIDTH 1200 0
DWIDTH 20 0
BBX 20 20 0 -3
BITMAP
000000
000000
030000
00E000
001800
000E00
000200
000000
030000
00E000
003800
000C00
000400
000000
0E0000
01C000
003000
001C00
000600
000200
ENDCHAR
STARTCHAR 30E0
ENCODING 12512
SWIDTH 1200 0
DWIDTH 20 0
BBX 20 20 0 -3
BITMAP
000000
000000
00C000
006000
004000
00C000
008000
008000
010000
010000
010800
020600
020100
040080
047FC0
7F8040
300040
000000
000000
000000
ENDCHAR
STARTCHAR 30E1
ENCODING 12513
SWIDTH 1200 0
DWIDTH 20 0
BBX 20 20 0 -3
BITMAP
000000
000000
000300
000180
000100
000300
000200
000600
018400
006C00
001800
001400
002200
004300
008100
010000
020000
0C0000
300000
000000
ENDCHAR
STARTCHAR 30E2
ENCODING 12514
SWIDTH 1200 0
DWIDTH 20 0
BBX 20 20 0 -3
BITMAP
000000
000000
000000
000600
1FFF00
0C8000
00C000
008000
008180
009FE0
7FE000
308000
008000
008000
008000
008000
0040C0
003F80
000000
000000
ENDCHAR
STARTCHAR 30E3
ENCODING 12515
SWIDTH 1200 0
DWIDTH 20 0
BBX 20 20 0 -3
BITMAP
000000
000000
000000
000000
000000
030000
018000
008000
008100
009F80
03E200
3C8400
108800
004000
004000
004000
002000
002000
002000
000000
ENDCHAR
STARTCHAR 30E4
ENCODING 12516
SWIDTH 1200 0
DWIDTH 20 0
BBX 20 20 0 -3
BITMAP
000000
030000
070000
010000
010040
0087E0
00B8C0
01C100
7E8200
304400
004800
004000
002000
002000
002000
003000
001000
001000
001000
000000
ENDCHAR
STARTCHAR 30E5
ENCODING 12517
SWIDTH 1200 0
DWIDTH 20 0
BBX 20 20 0 -3
BITMAP
000000
000000
000000
000000
000000
000000
000000
000000
000800
07FC00
020800
000800
001800
001000
001000
01FE00
1E0380
080000
000000
000000
ENDCHAR
STARTCHAR 30E6
ENCODING 12518
SWIDTH 1200 0
DWIDTH 20 0
BBX 20 20 0 -3
BITMAP
000000
000000
000000
000000
000200
0FFF00
060400
000400
000C00
000800
000800
001000
001000
01FF80
7E00E0
300000
000000
000000
000000
000000
ENDCHAR
STARTCHAR 30E7
ENCODING 12519
SWIDTH 1200 0
DWIDTH 20 0
BBX 20 20 0 -3
BITMAP
000000
000000
000000
000000
000000
000000
000200
0FFF00
060200
000200
000400
07FC00
020400
000800
000800
000800
1FFC00
0C0400
000000
000000
ENDCHAR
STARTCHAR 30E8
ENCODING 12520
SWIDTH 1200 0
DWIDTH 20 0
BBX 20 20 0 -3
BITMAP
000000
000000
000000
000080
1FFFC0
0C0080
000080
000080
000100
0FFF00
060100
000100
000200
000200
000200
3FFF00
180100
000000
000000
000000
ENDCHAR
STARTCHAR 30E9
ENCODING 12521
SWIDTH 1200 0
DWIDTH 20 0
BBX 20 20 0 -3
BITMAP
000000
000600
0FFF00
060000
000000
000080
201FC0
3FE080
180080
000180
000100
000300
000200
000400
000800
001000
002000
00C000
030000
000000
ENDCHAR
STARTCHAR 30EA
ENCODING 12522
SWIDTH 1200 0
DWIDTH 20 0
BBX 20 20 0 -3
BITMAP
000000
000600
060300
030100
010100
010100
010100
010100
010100
010200
010200
010200
000600
000400
000800
000800
001000
002000
00C000
000000
ENDCHAR
STARTCHAR 30EB
ENCODING 12523
SWIDTH 1200 0
DWIDTH 20 0
BBX 20 20 0 -3
BITMAP
000000
000000
006000
003000
0C3000
062000
062000
042000
042000
042000
0C2020
082040
082080
102100
102200
202C00
403800
801000
000000
000000
ENDCHAR
STARTCHAR 30EC
ENCODING 12524
SWIDTH 1200 0
DWIDTH 20 0
BBX 20 20 0 -3
BITMAP
000000
000000
0C0000
060000
020000
020000
020000
020000
020000
040040
040080
040100
040200
040400
041800
043000
04C000
0F8000
060000
000000
ENDCHAR
STARTCHAR 30ED
ENCODING 12525
SWIDTH 1200 0
DWIDTH 20 0
BBX 20 20 0 -3
BITMAP
000000
000000
000000
000000
200080
103FC0
1FE080
100080
100080
100080
080180
080100
080100
080100
080100
0FFF00
080100
000000
000000
000000
ENDCHAR
STARTCHAR 30EE
ENCODING 12526
SWIDTH 1200 0
DWIDTH 20 0
BBX 20 20 0 -3
BITMAP
000000
000000
000000
000000
000000
000000
080200
043F00
07C200
040200
040600
040400
000400
000800
000800
001000
002000
004000
018000
000000
ENDCHAR
STARTCHAR 30EF
ENCODING 12527
SWIDTH 1200 0
DWIDTH 20 0
BBX 20 20 0 -3
BITMAP
000000
000000
100080
083FC0
0FC080
080080
080080
080180
080100
080300
000200
000200
000400
000400
000800
001000
002000
00C000
030000
000000
ENDCHAR
STARTCHAR 30F0
ENCODING 12528
SWIDTH 1200 0
DWIDTH 20 0
BBX 20 20 0 -3
BITMAP
000000
003000
001800
001000
001000
003F00
1FD180
041000
021000
031000
021000
027FC0
7F9060
301000
001000
001000
003000
003000
001000
000000
ENDCHAR
STARTCHAR 30F1
ENCODING 12529
SWIDTH 1200 0
DWIDTH 20 0
BBX 20 20 0 -3
BITMAP
000000
000000
000000
000000
001F00
1FE380
0C0600
00C800
005000
006000
004000
004000
004000
004000
00FF80
7F00E0
300000
000000
000000
000000
ENDCHAR
STARTCHAR 30F2
ENCODING 12530
SWIDTH 1200 0
DWIDTH 20 0
BBX 20 20 0 -3
BITMAP
000000
000000
000080
001FC0
0FE080
030080
000100
000100
003F80
0FC200
030200
000400
000400
000800
001000
002000
004000
018000
060000
000000
ENDCHAR
STARTCHAR 30F3
ENCODING 12531
SWIDTH 1200 0
DWIDTH 20 0
BBX 20 20 0 -3
BITMAP
000000
000000
000000
180000
060000
030000
010040
000080
000100
000200
000400
000800
001000
002000
00C000
230000
1E0000
080000
000000
000000
ENDCHAR
STARTCHAR 30F4
ENCODING 12532
SWIDTH 1200 0
DWIDTH 20 0
BBX 20 20 0 -3
BITMAP
000040
00C130
0060D0
004040
204100
10FF80
1F0100
100100
100100
100300
100200
000200
000400
000400
000800
001000
002000
00C000
030000
000000
ENDCHAR
STARTCHAR 30F5
ENCODING 12533
SWIDTH 1200 0
DWIDTH 20 0
BBX 20 20 0 -3
BITMAP
000000
000000
000000
000000
000000
006000
003000
002000
002100
003F80
0FE100
044100
004100
008100
008200
010200
022200
041C00
080800
000000
ENDCHAR
STARTCHAR 30F6
ENCODING 12534
SWIDTH 1200 0
DWIDTH 20 0
BBX 20 20 0 -3
BITMAP
000000
000000
000000
000000
000000
010000
018000
010000
030200
023F00
07E000
083000
102000
202000
004000
004000
008000
010000
060000
000000
ENDCHAR
STARTCHAR 30FB
ENCODING 12539
SWIDTH 1200 0
DWIDTH 20 0
BBX 20 20 0 -3
BITMAP
000000
000000
000000
000000
000000
000000
000000
000000
006000
00F000
00F000
006000
000000
000000
000000
000000
000000
000000
000000
000000
ENDCHAR
STARTCHAR 30FC
ENCODING 12540
SWIDTH 1200 0
DWIDTH 20 0
BBX 20 20 0 -3
BITMAP
000000
000000
000000
000000
000000
000000
000000
000000
2001C0
37FFE0
0E0000
000000
000000
000000
000000
000000
000000
000000
000000
000000
ENDCHAR
STARTCHAR 30FD
ENCODING 12541
SWIDTH 1200 0
DWIDTH 20 0
BBX 20 20 0 -3
BITMAP
000000
000000
000000
000000
000000
000000
030000
008000
006000
001000
001800
000C00
000600
000600
000000
000000
000000
000000
000000
000000
ENDCHAR
STARTCHAR 30FE
ENCODING 12542
SWIDTH 1200 0
DWIDTH 20 0
BBX 20 20 0 -3
BITMAP
000000
000000
000000
000800
000600
002200
061800
010800
00C000
002000
003000
001800
000C00
000C00
000000
000000
000000
000000
000000
000000
ENDCHAR
STARTCHAR 4E00
ENCODING 19968
SWIDTH 1200 0
DWIDTH 20 0
BBX 20 20 0 -3
BITMAP
000000
000000
000000
000000
000000
000000
000000
000000
000020
7FFFF0
000000
000000
000000
000000
000000
000000
000000
000000
000000
000000
ENDCHAR
STARTCHAR 4E01
ENCODING 19969
SWIDTH 1200 0
DWIDTH 20 0
BBX 20 20 0 -3
BITMAP
000020
7FFFF0
002000
002000
002000
002000
002000
002000
002000
002000
002000
002000
002000
002000
002000
002000
002000
002000
01E000
004000
ENDCHAR
STARTCHAR 4E03
ENCODING 19971
SWIDTH 1200 0
DWIDTH 20 0
BBX 20 20 0 -3
BITMAP
018000
010000
010000
010000
010000
010020
0101F0
011F00
01F000
1F0000
710000
010000
010000
010000
010000
010000
010080
010080
0180C0
00FF80
ENDCHAR
STARTCHAR 4E07
ENCODING 19975
SWIDTH 1200 0
DWIDTH 20 0
BBX 20 20 0 -3
BITMAP
000000
000020
7FFFF0
008000
008000
008000
008000
008080
00FFC0
008080
018080
010080
010080
030080
020180
060100
040100
080300
101E00
200400
ENDCHAR
STARTCHAR 4E08
ENCODING 19976
SWIDTH 1200 0
DWIDTH 20 0
BBX 20 20 0 -3
BITMAP
003000
002000
002000
002020
7FFFF0
002000
042000
042000
022000
022000
012000
00A000
006000
006000
005000
008800
010600
020380
0C00F0
700020
ENDCHAR
STARTCHAR 4E09
ENCODING 19977
SWIDTH 1200 0
DWIDTH 20 0
BBX 20 20 0 -3
BITMAP
000000
000000
000080
1FFFC0
000000
000000
000000
000000
000000
000200
07FF00
000000
000000
000000
000000
000000
000020
7FFFF0
000000
000000
ENDCHAR
STARTCHAR 4E0A
ENCODING 19978
SWIDTH 1200 0
DWIDTH 20 0
BBX 20 20 0 -3
BITMAP
003000
002000
002000
002000
002000
002000
002000
002080
003FC0
002000
002000
002000
002000
002000
002000
002000
002000
002020
7FFFF0
000000
ENDCHAR
STARTCHAR 4E0B
ENCODING 19979
SWIDTH 1200 0
DWIDTH 20 0
BBX 20 20 0 -3
BITMAP
000000
000020
7FFFF0
002000
002000
002000
002000
003000
002C00
002200
002300
002100
002000
002000
002000
002000
002000
002000
002000
002000
ENDCHAR
STARTCHAR 4E0D
ENCODING 19981
SWIDTH 1200 0
DWIDTH 20 0
BBX 20 20 0 -3
BITMAP
000000
000020
7FFFF0
001800
003000
002000
007200
00A100
012080
022040
042060
182020
602020
002000
002000
002000
002000
002000
002000
002000
ENDCHAR
STARTCHAR 4E0E
ENCODING 19982
SWIDTH 1200 0
DWIDTH 20 0
BBX 20 20 0 -3
BITMAP
018000
010000
010000
010200
03FF00
020000
020000
020200
07FF00
040200
000200
000220
7FFFF0
000400
000400
000C00
000800
001800
00F000
002000
ENDCHAR
STARTCHAR 4E10
ENCODING 19984
SWIDTH 1200 0
DWIDTH 20 0
BBX 20 20 0 -3
BITMAP
000020
7FFFF0
002000
002000
002000
0C2040
083FE0
082000
082000
082040
1FFFE0
100040
100040
000040
000080
000080
000080
000300
001E00
000400
ENDCHAR
STARTCHAR 4E11
ENCODING 19985
SWIDTH 1200 0
DWIDTH 20 0
BBX 20 20 0 -3
BITMAP
000000
000200
3FFF00
008200
008200
008200
010200
010200
010220
7FFFF0
020200
020200
020200
020200
040200
040200
040200
040220
7FFFF0
000000
ENDCHAR
STARTCHAR 4E14
ENCODING 19988
SWIDTH 1200 0
DWIDTH 20 0
BBX 20 20 0 -3
BITMAP
000000
020200
03FF00
020200
020200
020200
020200
03FE00
020200
020200
020200
020200
03FE00
020200
020200
020200
020200
020220
7FFFF0
000000
ENDCHAR
STARTCHAR 4E15
ENCODING 19989
SWIDTH 1200 0
DWIDTH 20 0
BBX 20 20 0 -3
BITMAP
000000
000040
3FFFE0
003000
002000
007000
006600
00A100
012080
022040
042060
182020
602020
002000
002000
002000
002000
000020
7FFFF0
000000
ENDCHAR
STARTCHAR 4E16
ENCODING 19990
SWIDTH 1200 0
DWIDTH 20 0
BBX 20 20 0 -3
BITMAP
0C3180
082100
082100
082100
082100
082120
7FFFF0
082100
082100
082100
082100
082100
082100
083F00
082100
080000
080000
080040
0FFFE0
080000
ENDCHAR
STARTCHAR 4E17
ENCODING 19991
SWIDTH 1200 0
DWIDTH 20 0
BBX 20 20 0 -3
BITMAP
063180
042100
042100
042100
042100
042100
042100
042120
7FFFF0
042100
042100
042100
042100
042100
042100
042100
042100
042100
07FF00
040100
ENDCHAR
STARTCHAR 4E18
ENCODING 19992
SWIDTH 1200 0
DWIDTH 20 0
BBX 20 20 0 -3
BITMAP
000200
001F00
047000
078000
040000
040000
040000
040080
07FFC0
040400
040400
040400
040400
040400
040400
040400
040420
7FFFF0
000000
000000
ENDCHAR
STARTCHAR 4E19
ENCODING 19993
SWIDTH 1200 0
DWIDTH 20 0
BBX 20 20 0 -3
BITMAP
000020
7FFFF0
002000
002000
102040
1FFFE0
102040
102040
105040
104840
108440
110640
160240
100040
100040
100040
100040
100040
1003C0
100080
ENDCHAR
STARTCHAR 4E1E
ENCODING 19998
SWIDTH 1200 0
DWIDTH 20 0
BBX 20 20 0 -3
BITMAP
000200
0FFF00
000400
000800
003000
002040
012060
3FB0C0
012880
012500
022200
042100
0820C0
102070
602020
01E000
004000
000040
3FFFE0
000000
ENDCHAR
STARTCHAR 4E21
ENCODING 20001
SWIDTH 1200 0
DWIDTH 20 0
BBX 20 20 0 -3
BITMAP
000020
7FFFF0
002000
002000
002000
202020
3FFFF0
202020
202020
232320
222220
222220
222220
222220
23FE20
220220
220220
200020
2001E0
200040
ENDCHAR
STARTCHAR 4E26
ENCODING 20006
SWIDTH 1200 0
DWIDTH 20 0
BBX 20 20 0 -3
BITMAP
040200
020300
010600
010400
000840
3FFFE0
008800
008800
008840
208860
1088C0
088880
048900
048900
008A00
008800
008820
7FFFF0
000000
000000
ENDCHAR
STARTCHAR 4E2A
ENCODING 20010
SWIDTH 1200 0
DWIDTH 20 0
BBX 20 20 0 -3
BITMAP
003000
002000
005000
004800
008800
010400
020200
043100
0820C0
102070
602020
002000
002000
002000
002000
002000
002000
002000
002000
002000
ENDCHAR
STARTCHAR 4E2D
ENCODING 20013
SWIDTH 1200 0
DWIDTH 20 0
BBX 20 20 0 -3
BITMAP
003000
002000
002000
002000
002000
202020
3FFFF0
202020
202020
202020
202020
202020
3FFFE0
202020
002000
002000
002000
002000
002000
002000
ENDCHAR
STARTCHAR 4E31
ENCODING 20017
SWIDTH 1200 0
DWIDTH 20 0
BBX 20 20 0 -3
BITMAP
018600
010400
010400
310430
210420
210420
210420
210420
210420
210420
210420
210420
3F07E0
210420
020400
020400
040400
040400
080400
300400
ENDCHAR
STARTCHAR 4E32
ENCODING 20018
SWIDTH 1200 0
DWIDTH 20 0
BBX 20 20 0 -3
BITMAP
003000
002000
102040
1FFFE0
102040
102040
102040
1FFFC0
102040
002000
202020
3FFFF0
202020
202020
202020
3FFFE0
202020
002000
002000
002000
ENDCHAR
STARTCHAR 4E36
ENCODING 20022
SWIDTH 1200 0
DWIDTH 20 0
BBX 20 20 0 -3
BITMAP
000000
000000
000000
000000
0C0000
030000
00C000
002000
001000
000800
000400
000400
000200
000300
000100
000100
000000
000000
000000
000000
ENDCHAR
STARTCHAR 4E38
ENCODING 20024
SWIDTH 1200 0
DWIDTH 20 0
BBX 20 20 0 -3
BITMAP
018000
010000
010000
010000
010000
010400
7FFE00
010400
010400
010400
190400
060400
030400
028400
04C400
044420
080420
080420
100630
6003E0
ENDCHAR
STARTCHAR 4E39
ENCODING 20025
SWIDTH 1200 0
DWIDTH 20 0
BBX 20 20 0 -3
BITMAP
040100
07FF80
040100
040100
04C100
043100
041900
040900
040100
040120
7FFFF0
040100
040100
0C0100
080100
080100
100100
100100
200F00
400200
ENDCHAR
STARTCHAR 4E3B
ENCODING 20027
SWIDTH 1200 0
DWIDTH 20 0
BBX 20 20 0 -3
BITMAP
008000
006000
003000
001000
000040
3FFFE0
002000
002000
002000
002000
002100
0FFF80
002000
002000
002000
002000
002000
002020
7FFFF0
000000
ENDCHAR
STARTCHAR 4E3C
ENCODING 20028
SWIDTH 1200 0
DWIDTH 20 0
BBX 20 20 0 -3
BITMAP
030300
020200
020200
020200
020240
3FFFE0
020200
024200
022200
021200
021200
020220
7FFFF0
020200
020200
040200
040200
080200
100200
200200
ENDCHAR
STARTCHAR 4E3F
ENCODING 20031
SWIDTH 1200 0
DWIDTH 20 0
BBX 20 20 0 -3
BITMAP
003000
002000
002000
002000
002000
002000
002000
004000
004000
004000
008000
008000
008000
010000
010000
020000
040000
080000
100000
600000
ENDCHAR
STARTCHAR 4E42
ENCODING 20034
SWIDTH 1200 0
DWIDTH 20 0
BBX 20 20 0 -3
BITMAP
080100
080180
180100
140300
340200
240200
020400
020400
020800
010800
011000
009000
00A000
004000
00A000
011000
020C00
040380
1800F0
600020
ENDCHAR
STARTCHAR 4E43
ENCODING 20035
SWIDTH 1200 0
DWIDTH 20 0
BBX 20 20 0 -3
BITMAP
000200
3FFF00
010200
010200
010600
010400
010400
010420
020FF0
020820
020020
020060
040040
040040
040040
0800C0
080080
100180
200F00
400200
ENDCHAR
STARTCHAR 4E45
ENCODING 20037
SWIDTH 1200 0
DWIDTH 20 0
BBX 20 20 0 -3
BITMAP
018000
010000
010800
03FC00
020800
020800
060800
040800
081C00
081400
103400
202400
004200
004200
008100
010100
020080
0400C0
180060
600040
ENDCHAR
STARTCHAR 4E4B
ENCODING 20043
SWIDTH 1200 0
DWIDTH 20 0
BBX 20 20 0 -3
BITMAP
003000
002000
002000
002000
002040
3FFFE0
0000C0
000180
000100
000200
000400
000800
001000
062000
044000
0A8000
110000
20C000
403800
0007F0
ENDCHAR
STARTCHAR 4E4D
ENCODING 20045
SWIDTH 1200 0
DWIDTH 20 0
BBX 20 20 0 -3
BITMAP
060000
040000
040000
040020
0FFFF0
082000
182000
102000
202040
403FE0
002000
002000
002000
002040
003FE0
002000
002000
002000
002000
002000
ENDCHAR
STARTCHAR 4E4E
ENCODING 20046
SWIDTH 1200 0
DWIDTH 20 0
BBX 20 20 0 -3
BITMAP
000200
000F00
003800
01E000
1E2080
0821C0
042100
022200
022400
002020
7FFFF0
002000
002000
002000
002000
002000
002000
002000
01E000
004000
ENDCHAR
STARTCHAR 4E4F
ENCODING 20047
SWIDTH 1200 0
DWIDTH 20 0
BBX 20 20 0 -3
BITMAP
000100
000F80
00F800
1F2000
002000
002000
002000
002040
3FFFE0
000180
000300
000600
000800
081000
082000
0C4000
138000
10C000
203800
4007F0
ENDCHAR
STARTCHAR 4E55
ENCODING 20053
SWIDTH 1200 0
DWIDTH 20 0
BBX 20 20 0 -3
BITMAP
000080
0807C0
0FF800
080800
080820
0FFFF0
080800
080820
0FFFF0
080800
080800
090820
09FFF0
110820
110820
110820
210820
2109E0
410840
000800
ENDCHAR
STARTCHAR 4E56
ENCODING 20054
SWIDTH 1200 0
DWIDTH 20 0
BBX 20 20 0 -3
BITMAP
000100
000780
007C00
1FA000
002000
002020
7FFFF0
002000
032300
022220
7E2270
022380
022200
022200
0E2220
722220
222230
0221E0
002000
002000
ENDCHAR
STARTCHAR 4E57
ENCODING 20055
SWIDTH 1200 0
DWIDTH 20 0
BBX 20 20 0 -3
BITMAP
000200
003F00
0FE000
002040
3FFFE0
042100
042100
042120
7FFFF0
042100
042100
042140
3FFFE0
007000
00A800
012600
062180
1820F0
602020
002000
ENDCHAR
STARTCHAR 4E58
ENCODING 20056
SWIDTH 1200 0
DWIDTH 20 0
BBX 20 20 0 -3
BITMAP
000200
003F00
0FE000
002020
7FFFF0
002000
032320
022270
7E2380
022220
0E2220
722230
2261E0
00B000
012800
022600
042180
1820F0
602020
002000
ENDCHAR
STARTCHAR 4E59
ENCODING 20057
SWIDTH 1200 0
DWIDTH 20 0
BBX 20 20 0 -3
BITMAP
000200
3FFF00
000C00
001800
003000
004000
008000
010000
020000
040000
080000
100000
200000
200000
400000
400020
600020
380030
0FFFE0
000000
ENDCHAR
STARTCHAR 4E5D
ENCODING 20061
SWIDTH 1200 0
DWIDTH 20 0
BBX 20 20 0 -3
BITMAP
018000
010000
010000
010000
010000
010400
7FFE00
010400
010400
010400
020400
020400
020400
020400
040400
040420
080420
080420
100630
6003E0
ENDCHAR
STARTCHAR 4E5E
ENCODING 20062
SWIDTH 1200 0
DWIDTH 20 0
BBX 20 20 0 -3
BITMAP
0C0000
080000
080000
100040
1FFFE0
100000
200000
400100
07FF80
000C00
003000
00C000
030000
040000
080000
100000
100040
100040
080060
07FFC0
ENDCHAR
STARTCHAR 4E5F
ENCODING 20063
SWIDTH 1200 0
DWIDTH 20 0
BBX 20 20 0 -3
BITMAP
001800
061000
041000
041000
041040
0413E0
043C40
05D040
0E1040
741040
041040
041040
0413C0
041080
041000
041000
040020
040020
060030
03FFE0
ENDCHAR
STARTCHAR 4E62
ENCODING 20066
SWIDTH 1200 0
DWIDTH 20 0
BBX 20 20 0 -3
BITMAP
060600
040400
040400
040400
646400
444400
444400
444400
444400
444400
444400
444400
444400
444400
444400
7FC400
404420
400420
000430
0003E0
ENDCHAR
STARTCHAR 4E71
ENCODING 20081
SWIDTH 1200 0
DWIDTH 20 0
BBX 20 20 0 -3
BITMAP
008600
03C400
3E0400
040400
040400
040400
044400
7FE400
040400
040400
040400
248400
3FC400
208400
208400
208400
208420
208420
3F8430
2083E0
ENDCHAR
STARTCHAR 4E73
ENCODING 20083
SWIDTH 1200 0
DWIDTH 20 0
BBX 20 20 0 -3
BITMAP
004600
01E400
7F0400
004400
246400
124400
128400
008400
014400
3FE400
004400
008400
030400
020400
03E400
7E0400
220420
020420
1E0630
0403E0
ENDCHAR
STARTCHAR 4E7E
ENCODING 20094
SWIDTH 1200 0
DWIDTH 20 0
BBX 20 20 0 -3
BITMAP
0C0C00
080800
090800
7F8820
081FF0
081000
3F2000
212040
214FE0
3F0040
210080
210100
3F0200
290400
080800
091000
7FB020
082020
081030
080FE0
ENDCHAR
STARTCHAR 4E80
ENCODING 20096
SWIDTH 1200 0
DWIDTH 20 0
BBX 20 20 0 -3
BITMAP
038000
020400
07FE00
080800
181100
6FFF80
084100
0FFF00
084100
0FFF00
084100
104080
1FFFC0
104080
1FFF80
104080
1FFFA0
1040A0
004030
003FE0
ENDCHAR
STARTCHAR 4E82
ENCODING 20098
SWIDTH 1200 0
DWIDTH 20 0
BBX 20 20 0 -3
BITMAP
004300
03E200
3E8200
244200
224200
428200
7FC200
010200
0A0200
442200
7FF200
442200
492200
5FA200
48A200
412200
5FA220
4A2220
46E230
5941E0
ENDCHAR
STARTCHAR 4E85
ENCODING 20101
SWIDTH 1200 0
DWIDTH 20 0
BBX 20 20 0 -3
BITMAP
003000
002000
002000
002000
002000
002000
002000
002000
002000
002000
002000
002000
002000
002000
002000
002000
002000
002000
01E000
004000
ENDCHAR
STARTCHAR 4E86
ENCODING 20102
SWIDTH 1200 0
DWIDTH 20 0
BBX 20 20 0 -3
BITMAP
000100
0FFF80
000300
000600
000800
003000
002000
002000
002000
002000
002000
002000
002000
002000
002000
002000
002000
002000
01E000
004000
ENDCHAR
STARTCHAR 4E88
ENCODING 20104
SWIDTH 1200 0
DWIDTH 20 0
BBX 20 20 0 -3
BITMAP
000100
0FFF80
000300
000400
008800
005000
002000
002020
7FFFF0
002060
002040
002080
002100
002000
002000
002000
002000
002000
01E000
004000
ENDCHAR
STARTCHAR 4E89
ENCODING 20105
SWIDTH 1200 0
DWIDTH 20 0
BBX 20 20 0 -3
BITMAP
030000
020400
07FE00
080800
101000
202100
5FFF80
004100
004120
7FFFF0
004100
004100
004100
1FFF00
004100
004000
004000
004000
03C000
008000
ENDCHAR
STARTCHAR 4E8A
ENCODING 20106
SWIDTH 1200 0
DWIDTH 20 0
BBX 20 20 0 -3
BITMAP
003000
002000
002040
3FFFE0
042200
022300
022200
022480
1FFFC0
002080
0020A0
7FFFF0
002080
002080
1FFF80
002080
002000
002000
01E000
004000
ENDCHAR
STARTCHAR 4E8B
ENCODING 20107
SWIDTH 1200 0
DWIDTH 20 0
BBX 20 20 0 -3
BITMAP
003000
002000
002040
3FFFE0
002000
07FF00
042100
042100
07FF00
002000
0FFF80
0020A0
7FFFF0
002080
0FFF80
002080
002000
002000
01E000
004000
ENDCHAR
STARTCHAR 4E8C
ENCODING 20108
SWIDTH 1200 0
DWIDTH 20 0
BBX 20 20 0 -3
BITMAP
000000
000000
000000
000100
0FFF80
000000
000000
000000
000000
000000
000000
000000
000000
000000
000020
7FFFF0
000000
000000
000000
000000
ENDCHAR
STARTCHAR 4E8E
ENCODING 20110
SWIDTH 1200 0
DWIDTH 20 0
BBX 20 20 0 -3
BITMAP
000080
1FFFC0
002000
002000
002000
002000
002000
002000
002020
7FFFF0
002000
002000
002000
002000
002000
002000
002000
002000
01E000
004000
ENDCHAR
STARTCHAR 4E91
ENCODING 20113
SWIDTH 1200 0
DWIDTH 20 0
BBX 20 20 0 -3
BITMAP
000000
000100
0FFF80
000000
000000
000000
000000
000020
7FFFF0
00C000
008000
010000
010000
020600
020100
040080
083FC0
7FC060
300020
000020
ENDCHAR
STARTCHAR 4E92
ENCODING 20114
SWIDTH 1200 0
DWIDTH 20 0
BBX 20 20 0 -3
BITMAP
000040
3FFFE0
008000
008000
018000
010000
010100
03FF80
020100
020100
060300
040200
07FE00
040400
000400
000C00
000800
000820
7FFFF0
000000
ENDCHAR
STARTCHAR 4E94
ENCODING 20116
SWIDTH 1200 0
DWIDTH 20 0
BBX 20 20 0 -3
BITMAP
000000
000100
0FFF80
002000
002000
006000
004000
004000
004200
07FF00
008200
008200
008200
018200
010200
010200
010220
7FFFF0
000000
000000
ENDCHAR
STARTCHAR 4E95
ENCODING 20117
SWIDTH 1200 0
DWIDTH 20 0
BBX 20 20 0 -3
BITMAP
018600
010400
010400
010400
010440
3FFFE0
010400
010400
010400
010400
010400
010420
7FFFF0
020400
020400
020400
040400
040400
080400
100400
ENDCHAR
STARTCHAR 4E98
ENCODING 20120
SWIDTH 1200 0
DWIDTH 20 0
BBX 20 20 0 -3
BITMAP
000040
3FFFE0
000000
000000
040100
07FF80
040100
040100
040100
07FF00
040100
040100
040100
040100
07FF00
040100
000000
000020
7FFFF0
000000
ENDCHAR
STARTCHAR 4E99
ENCODING 20121
SWIDTH 1200 0
DWIDTH 20 0
BBX 20 20 0 -3
BITMAP
000040
3FFFE0
010000
010000
010100
03FF80
020100
024100
022100
021300
041200
048200
044200
042200
002600
000400
000400
000420
7FFFF0
000000
ENDCHAR
STARTCHAR 4E9B
ENCODING 20123
SWIDTH 1200 0
DWIDTH 20 0
BBX 20 20 0 -3
BITMAP
060C00
040800
040840
0488E0
27C980
240E00
240800
240800
240820
27C820
7C0830
2007E0
000000
000100
0FFF80
000000
000000
000020
7FFFF0
000000
ENDCHAR
STARTCHAR 4E9C
ENCODING 20124
SWIDTH 1200 0
DWIDTH 20 0
BBX 20 20 0 -3
BITMAP
000040
3FFFE0
010800
010800
010800
110880
1FFFC0
110880
110880
110880
110880
110880
1FFF80
110880
010800
010800
010800
010820
7FFFF0
000000
ENDCHAR
STARTCHAR 4E9E
ENCODING 20126
SWIDTH 1200 0
DWIDTH 20 0
BBX 20 20 0 -3
BITMAP
000040
3FFFE0
010400
010400
010400
210420
3F07F0
210420
200020
200020
200020
210420
3F87E0
210420
010400
010400
010400
010420
7FFFF0
000000
ENDCHAR
STARTCHAR 4E9F
ENCODING 20127
SWIDTH 1200 0
DWIDTH 20 0
BBX 20 20 0 -3
BITMAP
000040
3FFFE0
010000
010000
012000
03F000
022020
202FF0
3E2420
222420
222240
222280
3E2100
2262C0
204470
03D820
008000
000020
7FFFF0
000000
ENDCHAR
STARTCHAR 4EA0
ENCODING 20128
SWIDTH 1200 0
DWIDTH 20 0
BBX 20 20 0 -3
BITMAP
000000
000000
000000
000000
000000
000000
003000
002000
002000
002000
002020
7FFFF0
000000
000000
000000
000000
000000
000000
000000
000000
ENDCHAR
STARTCHAR 4EA1
ENCODING 20129
SWIDTH 1200 0
DWIDTH 20 0
BBX 20 20 0 -3
BITMAP
003000
002000
002000
002000
002020
7FFFF0
040000
040000
040000
040000
040000
040000
040000
040000
040000
040000
040000
060000
03FFC0
000000
ENDCHAR
STARTCHAR 4EA2
ENCODING 20130
SWIDTH 1200 0
DWIDTH 20 0
BBX 20 20 0 -3
BITMAP
003000
002000
002000
002020
7FFFF0
000000
000000
010400
01FE00
010400
010400
010400
010400
010400
020400
020400
040420
080420
100430
6003E0
ENDCHAR
STARTCHAR 4EA4
ENCODING 20132
SWIDTH 1200 0
DWIDTH 20 0
BBX 20 20 0 -3
BITMAP
003000
002000
002020
7FFFF0
020000
030600
060180
080040
100460
610620
010C00
008800
009800
007000
002000
005000
008C00
030380
0C00F0
700020
ENDCHAR
STARTCHAR 4EA5
ENCODING 20133
SWIDTH 1200 0
DWIDTH 20 0
BBX 20 20 0 -3
BITMAP
003000
002000
002000
002020
7FFFF0
004000
006200
088700
050C00
020880
0310C0
012180
00C200
010400
060800
383600
004180
018040
060060
380020
ENDCHAR
STARTCHAR 4EA6
ENCODING 20134
SWIDTH 1200 0
DWIDTH 20 0
BBX 20 20 0 -3
BITMAP
003000
002000
002000
002020
7FFFF0
008400
008400
008400
088500
0C8480
088440
108420
118430
210410
410410
010400
020400
020400
043C00
080800
ENDCHAR
STARTCHAR 4EA8
ENCODING 20136
SWIDTH 1200 0
DWIDTH 20 0
BBX 20 20 0 -3
BITMAP
003000
002000
002020
7FFFF0
000000
07FF00
040100
040100
07FF00
040100
000040
3FFFE0
000300
000C00
003000
002000
002000
002000
01E000
004000
ENDCHAR
STARTCHAR 4EAB
ENCODING 20139
SWIDTH 1200 0
DWIDTH 20 0
BBX 20 20 0 -3
BITMAP
003000
002020
7FFFF0
000000
07FF00
040100
040100
07FF00
000080
1FFFC0
000300
000C00
003000
002020
7FFFF0
002000
002000
002000
01E000
004000
ENDCHAR
STARTCHAR 4EAC
ENCODING 20140
SWIDTH 1200 0
DWIDTH 20 0
BBX 20 20 0 -3
BITMAP
003000
002000
002000
002020
7FFFF0
000000
040100
07FF80
040100
040100
040100
07FF00
042100
002000
022600
072100
0C20C0
102060
61E020
004000
ENDCHAR
STARTCHAR 4EAD
ENCODING 20141
SWIDTH 1200 0
DWIDTH 20 0
BBX 20 20 0 -3
BITMAP
003000
002000
002020
7FFFF0
000000
07FF00
040100
040100
07FF00
200020
3FFFF0
600020
400140
0FFF80
002000
002000
002000
002000
01E000
004000
ENDCHAR
STARTCHAR 4EAE
ENCODING 20142
SWIDTH 1200 0
DWIDTH 20 0
BBX 20 20 0 -3
BITMAP
003000
002000
002020
7FFFF0
000000
07FF00
040100
040100
07FF00
200020
3FFFF0
200020
618C40
410880
010800
030800
020820
040820
180C30
6007E0
ENDCHAR
STARTCHAR 4EB0
ENCODING 20144
SWIDTH 1200 0
DWIDTH 20 0
BBX 20 20 0 -3
BITMAP
003000
002000
002020
7FFFF0
000000
040100
07FF80
040100
040100
07FF00
040100
040100
07FF00
002000
042000
062700
0820C0
102060
61E020
004000
ENDCHAR
STARTCHAR 4EB3
ENCODING 20147
SWIDTH 1200 0
DWIDTH 20 0
BBX 20 20 0 -3
BITMAP
003000
002000
002040
3FFFE0
000000
07FF00
040100
07FF00
200020
3FFFF0
200020
600840
403E80
07E000
002080
003FC0
3FE000
002020
003030
001FE0
ENDCHAR
STARTCHAR 4EB6
ENCODING 20150
SWIDTH 1200 0
DWIDTH 20 0
BBX 20 20 0 -3
BITMAP
003000
002020
7FFFF0
000000
0FFF80
080080
09FC80
090480
09FC80
080080
0FFF80
000000
07FF00
040100
07FF00
040100
07FF00
000020
7FFFF0
000000
ENDCHAR
STARTCHAR 4EBA
ENCODING 20154
SWIDTH 1200 0
DWIDTH 20 0
BBX 20 20 0 -3
BITMAP
003000
002000
002000
002000
002000
002000
002000
006000
005000
005000
004800
008800
008400
010600
010200
020300
040180
0800C0
100070
600020
ENDCHAR
STARTCHAR 4EC0
ENCODING 20160
SWIDTH 1200 0
DWIDTH 20 0
BBX 20 20 0 -3
BITMAP
060600
040400
040400
0C0400
080400
180400
180420
19FFF0
280400
280400
480400
080400
080400
080400
080400
080400
080400
080400
080400
080400
ENDCHAR
STARTCHAR 4EC1
ENCODING 20161
SWIDTH 1200 0
DWIDTH 20 0
BBX 20 20 0 -3
BITMAP
030000
020000
020000
060040
047FE0
0C0000
0C0000
140000
140000
240000
440000
040000
040000
040000
040000
040020
04FFF0
040000
040000
040000
ENDCHAR
STARTCHAR 4EC2
ENCODING 20162
SWIDTH 1200 0
DWIDTH 20 0
BBX 20 20 0 -3
BITMAP
060C00
040800
040800
0C0800
080800
180820
19FFF0
180820
280820
280820
481020
081020
081020
081020
082060
082040
084040
0840C0
088780
090100
ENDCHAR
STARTCHAR 4EC4
ENCODING 20164
SWIDTH 1200 0
DWIDTH 20 0
BBX 20 20 0 -3
BITMAP
080020
0FFFF0
080000
081800
081000
081000
081000
081000
081000
081000
082800
082800
102400
104400
104200
108100
208080
2100C0
420070
0C0020
ENDCHAR
STARTCHAR 4EC6
ENCODING 20166
SWIDTH 1200 0
DWIDTH 20 0
BBX 20 20 0 -3
BITMAP
018600
010400
030400
020400
060400
040400
0C0600
0C0500
140480
240440
440420
040430
040410
040400
040400
040400
040400
040400
040400
040400
ENDCHAR
STARTCHAR 4EC7
ENCODING 20167
SWIDTH 1200 0
DWIDTH 20 0
BBX 20 20 0 -3
BITMAP
061800
041000
041000
0C1000
081000
181100
19FF80
181100
281100
281100
481100
081100
081100
082100
082100
082100
084120
084120
088130
0900E0
ENDCHAR
STARTCHAR 4ECA
ENCODING 20170
SWIDTH 1200 0
DWIDTH 20 0
BBX 20 20 0 -3
BITMAP
006000
006000
00D000
018800
030400
040200
080180
3004F0
47FE20
000000
000000
000080
0FFFC0
000100
000200
000400
000800
001000
002000
004000
ENDCHAR
STARTCHAR 4ECB
ENCODING 20171
SWIDTH 1200 0
DWIDTH 20 0
BBX 20 20 0 -3
BITMAP
003000
002000
005000
008800
010400
020200
040180
1800F0
630620
020400
020400
020400
020400
020400
020400
040400
040400
080400
100400
200400
ENDCHAR
STARTCHAR 4ECD
ENCODING 20173
SWIDTH 1200 0
DWIDTH 20 0
BBX 20 20 0 -3
BITMAP
060100
05FF80
0C2100
082100
082100
182200
182200
282220
2827F0
484420
084020
084020
084020
084020
088060
088040
088040
0900C0
090780
0A0100
ENDCHAR
STARTCHAR 4ECE
ENCODING 20174
SWIDTH 1200 0
DWIDTH 20 0
BBX 20 20 0 -3
BITMAP
060300
040200
040200
040200
040200
040200
040200
040200
040200
040200
0C0600
0A0500
090500
098500
108880
108880
201040
201060
402030
004020
ENDCHAR
STARTCHAR 4ECF
ENCODING 20175
SWIDTH 1200 0
DWIDTH 20 0
BBX 20 20 0 -3
BITMAP
030600
020400
060400
040400
0C0400
080C00
180800
180800
280800
480800
080800
081080
081040
081040
081020
082020
0821F0
083E10
09E010
088010
ENDCHAR
STARTCHAR 4ED4
ENCODING 20180
SWIDTH 1200 0
DWIDTH 20 0
BBX 20 20 0 -3
BITMAP
060040
04FFE0
040040
0C0080
080100
180600
180400
180400
280400
280420
49FFF0
080400
080400
080400
080400
080400
080400
080400
083C00
080800
ENDCHAR
STARTCHAR 4ED5
ENCODING 20181
SWIDTH 1200 0
DWIDTH 20 0
BBX 20 20 0 -3
BITMAP
060600
040400
040400
0C0400
080400
180400
180400
180420
29FFF0
280400
480400
080400
080400
080400
080400
080400
080400
080440
08FFE0
080000
ENDCHAR
STARTCHAR 4ED6
ENCODING 20182
SWIDTH 1200 0
DWIDTH 20 0
BBX 20 20 0 -3
BITMAP
030600
026400
024400
064400
0444C0
0C45E0
084E40
185440
186440
28C440
494440
084440
0845C0
084480
084400
084400
084020
084020
086030
083FE0
ENDCHAR
STARTCHAR 4ED7
ENCODING 20183
SWIDTH 1200 0
DWIDTH 20 0
BBX 20 20 0 -3
BITMAP
060600
040400
040400
0C0420
09FFF0
180400
180400
182400
282400
282400
48D400
089400
080800
080800
081400
081200
082100
0840C0
088070
0B0020
ENDCHAR
STARTCHAR 4ED8
ENCODING 20184
SWIDTH 1200 0
DWIDTH 20 0
BBX 20 20 0 -3
BITMAP
060180
040100
040100
0C0100
080120
19FFF0
180100
180100
280100
28C100
482100
083100
081100
080100
080100
080100
080100
080100
080F00
080200
ENDCHAR
STARTCHAR 4ED9
ENCODING 20185
SWIDTH 1200 0
DWIDTH 20 0
BBX 20 20 0 -3
BITMAP
060600
040400
040400
0C0400
080400
18C430
188420
188420
288420
288420
488420
088420
088420
088420
088420
088420
088420
08FFE0
088020
088000
ENDCHAR
STARTCHAR 4EDD
ENCODING 20189
SWIDTH 1200 0
DWIDTH 20 0
BBX 20 20 0 -3
BITMAP
003000
002000
005000
004800
008800
010400
020200
040100
0800C0
100470
63FE20
002000
002000
002000
002000
002000
002000
002040
3FFFE0
000000
ENDCHAR
STARTCHAR 4EDE
ENCODING 20190
SWIDTH 1200 0
DWIDTH 20 0
BBX 20 20 0 -3
BITMAP
060020
04FFF0
040420
0C0420
080420
080420
182420
182420
284420
28C420
488420
080820
080820
080860
081040
081040
0820C0
082080
084780
088100
ENDCHAR
STARTCHAR 4EDF
ENCODING 20191
SWIDTH 1200 0
DWIDTH 20 0
BBX 20 20 0 -3
BITMAP
060080
0403C0
040E00
0CF400
080400
080400
180400
180400
280420
29FFF0
480400
080400
080400
080400
080400
080400
080400
080400
080400
080400
ENDCHAR
STARTCHAR 4EE3
ENCODING 20195
SWIDTH 1200 0
DWIDTH 20 0
BBX 20 20 0 -3
BITMAP
060C00
040980
040860
0C0820
080800
180820
180FF0
18FC00
280400
280400
480600
080200
080200
080300
080120
080120
0800A0
0800E0
080070
080020
ENDCHAR
STARTCHAR 4EE4
ENCODING 20196
SWIDTH 1200 0
DWIDTH 20 0
BBX 20 20 0 -3
BITMAP
003000
002000
005000
008800
010400
020200
040580
1BFEF0
600020
000080
0FFFC0
002080
002080
002080
002080
002080
002780
002100
002000
002000
ENDCHAR
STARTCHAR 4EE5
ENCODING 20197
SWIDTH 1200 0
DWIDTH 20 0
BBX 20 20 0 -3
BITMAP
000000
0C0060
080040
080040
080040
088040
0840C0
082080
083080
081180
080100
080100
080300
080280
084440
098820
0E1020
782030
20C010
030010
ENDCHAR
STARTCHAR 4EED
ENCODING 20205
SWIDTH 1200 0
DWIDTH 20 0
BBX 20 20 0 -3
BITMAP
060040
05FFE0
040840
0C0840
080840
080840
188840
188840
295040
293040
4B1040
0A1880
081680
082180
0820F0
0820A0
084080
084180
088F00
090200
ENDCHAR
STARTCHAR 4EEE
ENCODING 20206
SWIDTH 1200 0
DWIDTH 20 0
BBX 20 20 0 -3
BITMAP
060000
044020
047FF0
0C4000
084000
084000
184040
187FE0
285040
285040
48D080
088880
088900
088500
090600
090600
0A0900
0C10C0
086070
098020
ENDCHAR
STARTCHAR 4EF0
ENCODING 20208
SWIDTH 1200 0
DWIDTH 20 0
BBX 20 20 0 -3
BITMAP
060800
041C00
04B220
0CC3F0
088220
188220
188220
188220
288220
288220
488220
088220
088220
089A20
08E220
0B82E0
090240
080200
080200
080200
ENDCHAR
STARTCHAR 4EF2
ENCODING 20210
SWIDTH 1200 0
DWIDTH 20 0
BBX 20 20 0 -3
BITMAP
060600
040400
040400
0C0400
088420
18FFF0
188420
188420
288420
288420
488420
088420
08FFE0
088420
080400
080400
080400
080400
080400
080400
ENDCHAR
STARTCHAR 4EF6
ENCODING 20214
SWIDTH 1200 0
DWIDTH 20 0
BBX 20 20 0 -3
BITMAP
060600
046400
044400
0C4400
084440
08FFE0
188400
190400
2A0400
280400
480420
09FFF0
080400
080400
080400
080400
080400
080400
080400
080400
ENDCHAR
STARTCHAR 4EF7
ENCODING 20215
SWIDTH 1200 0
DWIDTH 20 0
BBX 20 20 0 -3
BITMAP
060C00
040800
041400
0C1200
082100
082080
1840C0
188070
2B31A0
282100
482100
082100
082100
082100
082100
084100
084100
088100
088100
090100
ENDCHAR
STARTCHAR 4EFB
ENCODING 20219
SWIDTH 1200 0
DWIDTH 20 0
BBX 20 20 0 -3
BITMAP
060080
0401C0
040E00
0C7400
080400
080400
180400
180400
180400
280420
29FFF0
480400
080400
080400
080400
080400
080400
080440
08FFE0
080000
ENDCHAR
STARTCHAR 4F01
ENCODING 20225
SWIDTH 1200 0
DWIDTH 20 0
BBX 20 20 0 -3
BITMAP
003000
002000
005000
005000
008800
010400
020200
043180
1820F0
602020
062000
042100
043F80
042000
042000
042000
042000
042040
3FFFE0
000000
ENDCHAR
STARTCHAR 4F09
ENCODING 20233
SWIDTH 1200 0
DWIDTH 20 0
BBX 20 20 0 -3
BITMAP
060600
040400
040400
0C0420
09FFF0
080000
180000
182100
283F80
282100
482100
082100
082100
082100
082100
084100
084120
084120
088130
0900E0
ENDCHAR
STARTCHAR 4F0A
ENCODING 20234
SWIDTH 1200 0
DWIDTH 20 0
BBX 20 20 0 -3
BITMAP
060000
040040
04FFE0
0C0840
080840
080840
19FFF0
180840
280840
280840
480840
08FFC0
080840
080800
081000
081000
082000
082000
084000
098000
ENDCHAR
STARTCHAR 4F0D
ENCODING 20237
SWIDTH 1200 0
DWIDTH 20 0
BBX 20 20 0 -3
BITMAP
060000
040080
04FFC0
0C1000
081000
081000
181000
181000
281100
29FF80
482100
082100
082100
082100
082100
082100
082120
0BFFF0
080000
080000
ENDCHAR
STARTCHAR 4F0E
ENCODING 20238
SWIDTH 1200 0
DWIDTH 20 0
BBX 20 20 0 -3
BITMAP
060600
040400
040420
0CFFF0
080400
180400
180440
18FFE0
282040
2820C0
482080
081100
081100
080A00
080400
080A00
081100
0820C0
08C070
0B0020
ENDCHAR
STARTCHAR 4F0F
ENCODING 20239
SWIDTH 1200 0
DWIDTH 20 0
BBX 20 20 0 -3
BITMAP
030680
020440
060460
040420
0C0400
080420
19FFF0
180400
280400
480C00
080A00
080A00
080A00
081100
081100
082080
0820C0
084060
088030
090020
ENDCHAR
STARTCHAR 4F10
ENCODING 20240
SWIDTH 1200 0
DWIDTH 20 0
BBX 20 20 0 -3
BITMAP
060C00
040980
040860
0C0820
080800
180820
180FF0
19FC00
280420
280430
480460
080240
080280
080100
080100
0802A0
0804A0
080860
083070
09C020
ENDCHAR
STARTCHAR 4F11
ENCODING 20241
SWIDTH 1200 0
DWIDTH 20 0
BBX 20 20 0 -3
BITMAP
060C00
040800
040800
0C0800
080820
1BFFF0
181C00
181A00
281A00
282A00
482900
084900
084880
0888C0
088860
090830
0A0820
080800
080800
080800
ENDCHAR
STARTCHAR 4F1A
ENCODING 20250
SWIDTH 1200 0
DWIDTH 20 0
BBX 20 20 0 -3
BITMAP
003000
006000
00D000
018800
020600
040180
1804F0
67FE20
000000
000000
000040
3FFFE0
00C000
008000
010400
010200
020100
043F80
1FC080
0C0080
ENDCHAR
STARTCHAR 4F1C
ENCODING 20252
SWIDTH 1200 0
DWIDTH 20 0
BBX 20 20 0 -3
BITMAP
060C00
040800
040900
0DFF80
081100
081100
182120
182120
284130
4980E0
080C00
080800
080820
0BFFF0
080800
080800
080800
080800
080800
080800
ENDCHAR
STARTCHAR 4F1D
ENCODING 20253
SWIDTH 1200 0
DWIDTH 20 0
BBX 20 20 0 -3
BITMAP
060000
040040
047FE0
0C0000
080000
080000
180000
180020
29FFF0
280C00
480800
081800
081000
081080
082040
082020
0847E0
0BF830
098010
080010
ENDCHAR
STARTCHAR 4F2F
ENCODING 20271
SWIDTH 1200 0
DWIDTH 20 0
BBX 20 20 0 -3
BITMAP
060400
040600
040C00
0C4840
087FE0
184040
184040
184040
284040
284040
484040
087FC0
084040
084040
084040
084040
084040
084040
087FC0
084040
ENDCHAR
STARTCHAR 4F30
ENCODING 20272
SWIDTH 1200 0
DWIDTH 20 0
BBX 20 20 0 -3
BITMAP
060600
040400
040400
0C0400
080420
09FFF0
180400
180400
280400
280400
484440
087FE0
084040
084040
084040
084040
084040
084040
087FC0
084040
ENDCHAR
STARTCHAR 4F34
ENCODING 20276
SWIDTH 1200 0
DWIDTH 20 0
BBX 20 20 0 -3
BITMAP
060600
048440
044460
0C2480
082500
180400
180440
18FFE0
280400
280400
480400
080420
09FFF0
080400
080400
080400
080400
080400
080400
080400
ENDCHAR
STARTCHAR 4F36
ENCODING 20278
SWIDTH 1200 0
DWIDTH 20 0
BBX 20 20 0 -3
BITMAP
060C00
040800
041400
0C1200
082100
184080
188040
190130
2A7FA0
280000
480040
09FFE0
080840
080840
080840
080840
080BC0
080880
080800
080800
ENDCHAR
STARTCHAR 4F38
ENCODING 20280
SWIDTH 1200 0
DWIDTH 20 0
BBX 20 20 0 -3
BITMAP
060600
040400
040400
0C8420
08FFF0
188420
188420
188420
28FFE0
288420
488420
088420
088420
08FFE0
088420
080400
080400
080400
080400
080400
ENDCHAR
STARTCHAR 4F3A
ENCODING 20282
SWIDTH 1200 0
DWIDTH 20 0
BBX 20 20 0 -3
BITMAP
060020
04FFF0
040020
0C0020
080220
187F20
180020
180020
284220
287F20
484220
084220
084220
084220
087E20
084220
084020
080020
0801E0
080040
ENDCHAR
STARTCHAR 4F3C
ENCODING 20284
SWIDTH 1200 0
DWIDTH 20 0
BBX 20 20 0 -3
BITMAP
060000
040060
04C040
0C8040
088040
089040
188840
1884C0
288480
488480
088080
088100
088100
088180
089A40
08E220
0B8420
090810
081010
086010
ENDCHAR
STARTCHAR 4F3D
ENCODING 20285
SWIDTH 1200 0
DWIDTH 20 0
BBX 20 20 0 -3
BITMAP
066000
044000
044220
0C43F0
084A20
0BFE20
184A20
184A20
284A20
284A20
484A20
084A20
084A20
08CA20
088A20
088A20
088A20
0913E0
097220
0A2200
ENDCHAR
STARTCHAR 4F43
ENCODING 20291
SWIDTH 1200 0
DWIDTH 20 0
BBX 20 20 0 -3
BITMAP
060000
048020
04FFF0
0C8420
088420
188420
188420
188420
288420
288420
48FFE0
088420
088420
088420
088420
088420
088420
088420
08FFE0
088020
ENDCHAR
STARTCHAR 4F46
ENCODING 20294
SWIDTH 1200 0
DWIDTH 20 0
BBX 20 20 0 -3
BITMAP
060000
044040
047FE0
0C4040
084040
084040
184040
184040
287FC0
284040
484040
084040
084040
084040
087FC0
084040
080000
080020
09FFF0
080000
ENDCHAR
STARTCHAR 4F47
ENCODING 20295
SWIDTH 1200 0
DWIDTH 20 0
BBX 20 20 0 -3
BITMAP
060600
040400
048420
0CFFF0
098020
090040
180000
180020
29FFF0
280400
480400
080400
080400
080400
080400
080400
080400
080400
083C00
080800
ENDCHAR
STARTCHAR 4F4D
ENCODING 20301
SWIDTH 1200 0
DWIDTH 20 0
BBX 20 20 0 -3
BITMAP
060600
040400
040400
0C0400
080440
18FFE0
180000
180080
2880C0
284080
484080
082180
082100
082100
082100
080200
080200
080220
09FFF0
080000
ENDCHAR
STARTCHAR 4F4E
ENCODING 20302
SWIDTH 1200 0
DWIDTH 20 0
BBX 20 20 0 -3
BITMAP
060040
0401E0
044700
0C7900
084100
184100
184100
184120
287FF0
284100
484100
084100
084100
084100
087880
0BC0A0
0900A0
080260
09FF30
080010
ENDCHAR
STARTCHAR 4F4F
ENCODING 20303
SWIDTH 1200 0
DWIDTH 20 0
BBX 20 20 0 -3
BITMAP
060800
040400
040200
0C0200
080040
18FFE0
180400
180400
280400
280400
480480
087FC0
080400
080400
080400
080400
080400
080420
09FFF0
080000
ENDCHAR
STARTCHAR 4F50
ENCODING 20304
SWIDTH 1200 0
DWIDTH 20 0
BBX 20 20 0 -3
BITMAP
030C00
020800
060800
040800
0C0820
09FFF0
181000
181000
281000
482040
083FE0
086200
084200
088200
090200
0A0200
080200
080220
08FFF0
080000
ENDCHAR
STARTCHAR 4F51
ENCODING 20305
SWIDTH 1200 0
DWIDTH 20 0
BBX 20 20 0 -3
BITMAP
030C00
020800
060800
040800
0C0820
09FFF0
181000
181000
282000
482040
087FE0
08A040
092040
0A2040
082040
082040
082040
082040
083FC0
082040
ENDCHAR
STARTCHAR 4F53
ENCODING 20307
SWIDTH 1200 0
DWIDTH 20 0
BBX 20 20 0 -3
BITMAP
060C00
040800
040800
0C0800
080820
1BFFF0
181C00
181A00
282A00
282900
484900
084880
0888C0
090860
0A0830
0C0920
08FF80
080800
080800
080800
ENDCHAR
STARTCHAR 4F55
ENCODING 20309
SWIDTH 1200 0
DWIDTH 20 0
BBX 20 20 0 -3
BITMAP
060000
040020
04FFF0
0C0040
080040
084440
187E40
184440
284440
284440
484440
084440
087C40
084440
084040
080040
080040
080040
0803C0
080080
ENDCHAR
STARTCHAR 4F57
ENCODING 20311
SWIDTH 1200 0
DWIDTH 20 0
BBX 20 20 0 -3
BITMAP
060600
040400
040400
0C8420
08FFF0
088020
198040
190080
283000
282000
482040
0820E0
082700
083800
082000
082000
082040
082040
083060
081FC0
ENDCHAR
STARTCHAR 4F59
ENCODING 20313
SWIDTH 1200 0
DWIDTH 20 0
BBX 20 20 0 -3
BITMAP
003000
002000
005000
008800
010400
020300
0400C0
180270
67FF20
002000
002000
002040
3FFFE0
002000
042200
062100
082080
102040
61E040
004000
ENDCHAR
STARTCHAR 4F5A
ENCODING 20314
SWIDTH 1200 0
DWIDTH 20 0
BBX 20 20 0 -3
BITMAP
066600
044400
044400
0C4400
088440
08FFE0
190400
190400
2A0400
280420
49FFF0
080900
080900
081100
081080
082080
082040
084060
088030
090020
ENDCHAR
STARTCHAR 4F5B
ENCODING 20315
SWIDTH 1200 0
DWIDTH 20 0
BBX 20 20 0 -3
BITMAP
061B00
041200
041220
0DFFF0
081220
081220
189220
18FFE0
289220
289200
491220
09FFF0
091220
081220
082220
082220
0842E0
084240
088200
090200
ENDCHAR
STARTCHAR 4F5C
ENCODING 20316
SWIDTH 1200 0
DWIDTH 20 0
BBX 20 20 0 -3
BITMAP
063000
042000
042000
0C2020
087FF0
084400
18C400
188400
288440
2907E0
480400
080400
080400
080440
0807E0
080400
080400
080400
080400
080400
ENDCHAR
STARTCHAR 4F5D
ENCODING 20317
SWIDTH 1200 0
DWIDTH 20 0
BBX 20 20 0 -3
BITMAP
066000
044000
044000
0C4020
08FFF0
088020
190020
194220
2A7F20
284220
484220
084220
084220
087E60
084240
080040
0800C0
080080
080780
080100
ENDCHAR
STARTCHAR 4F5E
ENCODING 20318
SWIDTH 1200 0
DWIDTH 20 0
BBX 20 20 0 -3
BITMAP
060080
047FC0
040000
0C0000
080020
19FFF0
180000
181800
281000
281020
4BFFF0
082080
082080
084100
08FA00
088600
080980
0830C0
08C060
0B0020
ENDCHAR
STARTCHAR 4F69
ENCODING 20329
SWIDTH 1200 0
DWIDTH 20 0
BBX 20 20 0 -3
BITMAP
0D0080
09FFC0
090080
090080
190280
11FF80
311080
311080
315280
517F80
115280
115280
115280
115280
1152A0
115EA0
125460
121060
121030
141010
ENDCHAR
STARTCHAR 4F6F
ENCODING 20335
SWIDTH 1200 0
DWIDTH 20 0
BBX 20 20 0 -3
BITMAP
068100
044180
042300
0C2200
080440
09FFE0
180800
180800
280800
480880
08FFC0
080800
080800
080800
080820
0BFFF0
080800
080800
080800
080800
ENDCHAR
STARTCHAR 4F70
ENCODING 20336
SWIDTH 1200 0
DWIDTH 20 0
BBX 20 20 0 -3
BITMAP
060020
04FFF0
040600
0C0400
080400
082840
183FE0
182040
282040
282040
482040
082040
083FC0
082040
082040
082040
082040
082040
083FC0
082040
ENDCHAR
STARTCHAR 4F73
ENCODING 20339
SWIDTH 1200 0
DWIDTH 20 0
BBX 20 20 0 -3
BITMAP
060600
040400
040400
0C0440
087FE0
080400
180400
180400
280420
29FFF0
480000
080600
080400
080440
087FE0
080400
080400
080400
080420
09FFF0
ENDCHAR
STARTCHAR 4F75
ENCODING 20341
SWIDTH 1200 0
DWIDTH 20 0
BBX 20 20 0 -3
BITMAP
062080
0410C0
041180
0C1100
080240
08FFE0
181100
181100
281100
281100
481120
09FFF0
081100
081100
082100
082100
084100
084100
088100
090100
ENDCHAR
STARTCHAR 4F76
ENCODING 20342
SWIDTH 1200 0
DWIDTH 20 0
BBX 20 20 0 -3
BITMAP
060600
040400
040420
0DFFF0
080400
080400
180400
180440
28FFE0
280000
480000
084080
087FC0
084080
084080
084080
084080
084080
087F80
084080
ENDCHAR
STARTCHAR 4F7B
ENCODING 20347
SWIDTH 1200 0
DWIDTH 20 0
BBX 20 20 0 -3
BITMAP
061B00
041200
041200
0C1200
091220
089230
185240
185280
281200
281200
483280
08D240
0B9220
091220
082200
082200
084220
088220
090230
0A01E0
ENDCHAR
STARTCHAR 4F7C
ENCODING 20348
SWIDTH 1200 0
DWIDTH 20 0
BBX 20 20 0 -3
BITMAP
060600
040400
040420
0DFFF0
082000
083300
1840C0
188020
290120
482180
082100
08D200
088A00
080400
080400
080A00
081100
0820C0
08C070
0B0020
ENDCHAR
STARTCHAR 4F7F
ENCODING 20351
SWIDTH 1200 0
DWIDTH 20 0
BBX 20 20 0 -3
BITMAP
060600
040400
040420
0DFFF0
080400
188420
18FFF0
188420
288420
288420
48FFE0
080420
088400
084400
082800
081800
081400
082380
08C0F0
0B0020
ENDCHAR
STARTCHAR 4F83
ENCODING 20355
SWIDTH 1200 0
DWIDTH 20 0
BBX 20 20 0 -3
BITMAP
068040
04FFE0
048040
0C8040
088040
088040
18FFC0
188040
280000
286D80
484900
084900
084900
084900
084900
084900
088920
088920
090930
0A00E0
ENDCHAR
STARTCHAR 4F86
ENCODING 20358
SWIDTH 1200 0
DWIDTH 20 0
BBX 20 20 0 -3
BITMAP
003000
002000
002040
3FFFE0
002000
0C2180
082100
082100
142280
122240
212420
412820
006000
007000
00A800
012600
062180
1820F0
602020
002000
ENDCHAR
STARTCHAR 4F88
ENCODING 20360
SWIDTH 1200 0
DWIDTH 20 0
BBX 20 20 0 -3
BITMAP
063000
042100
043F80
0C4100
088200
0B4200
182400
182800
281600
286420
4B8FF0
080820
081040
086840
098480
080500
080200
080400
081800
08E000
ENDCHAR
STARTCHAR 4F8B
ENCODING 20363
SWIDTH 1200 0
DWIDTH 20 0
BBX 20 20 0 -3
BITMAP
0C0030
080820
09FDA0
184120
104120
108120
308920
30FD20
508920
510920
111920
12D120
145120
102120
102120
104020
104020
108020
1101E0
120040
ENDCHAR
STARTCHAR 4F8D
ENCODING 20365
SWIDTH 1200 0
DWIDTH 20 0
BBX 20 20 0 -3
BITMAP
060600
040400
040440
0C7FE0
080400
180400
180420
29FFF0
280100
480100
080120
09FFF0
080100
084100
082100
081100
081100
080100
080F00
080200
ENDCHAR
STARTCHAR 4F8F
ENCODING 20367
SWIDTH 1200 0
DWIDTH 20 0
BBX 20 20 0 -3
BITMAP
060600
046400
044400
0C4400
084440
08FFE0
188400
190400
280400
280420
49FFF0
080E00
081500
081500
082480
0824C0
084460
088430
0B0420
080400
ENDCHAR
STARTCHAR 4F91
ENCODING 20369
SWIDTH 1200 0
DWIDTH 20 0
BBX 20 20 0 -3
BITMAP
060C00
040800
040820
0DFFF0
081000
081000
182040
183FE0
286040
486040
08BFC0
092040
0A2040
082040
083FC0
082040
082040
082040
0823C0
082080
ENDCHAR
STARTCHAR 4F96
ENCODING 20374
SWIDTH 1200 0
DWIDTH 20 0
BBX 20 20 0 -3
BITMAP
003000
002000
005000
008800
010600
060180
1802F0
67FF20
000000
080080
0FFFC0
088880
088880
088880
0FFF80
088880
088880
088880
088B80
088900
ENDCHAR
STARTCHAR 4F98
ENCODING 20376
SWIDTH 1200 0
DWIDTH 20 0
BBX 20 20 0 -3
BITMAP
060600
040400
048420
0CFFF0
088020
098040
190100
180780
287C00
280800
480800
080820
080FF0
09F800
080800
080800
080840
080840
080C60
0807C0
ENDCHAR
STARTCHAR 4F9B
ENCODING 20379
SWIDTH 1200 0
DWIDTH 20 0
BBX 20 20 0 -3
BITMAP
063180
042100
042100
0C2100
082140
09FFE0
182100
182100
282100
282100
482100
082120
0BFFF0
080000
080000
082100
083080
084040
088060
0B0020
ENDCHAR
STARTCHAR 4F9D
ENCODING 20381
SWIDTH 1200 0
DWIDTH 20 0
BBX 20 20 0 -3
BITMAP
060600
040400
040400
0C0420
09FFF0
180800
180800
181420
281430
282440
486280
08A300
092200
0A2100
082100
082080
0820C0
083C60
09E030
088020
ENDCHAR
STARTCHAR 4FA0
ENCODING 20384
SWIDTH 1200 0
DWIDTH 20 0
BBX 20 20 0 -3
BITMAP
060600
040400
040440
0C7FE0
080400
088440
184460
182480
282480
482500
080420
09FFF0
080A00
080A00
081900
081080
082040
082060
084030
098020
ENDCHAR
STARTCHAR 4FA1
ENCODING 20385
SWIDTH 1200 0
DWIDTH 20 0
BBX 20 20 0 -3
BITMAP
060000
040020
05FFF0
0C1200
081200
081200
189240
18FFE0
289240
289240
489240
089240
089240
089240
089240
089240
089240
089240
08FFC0
088040
ENDCHAR
STARTCHAR 4FAB
ENCODING 20395
SWIDTH 1200 0
DWIDTH 20 0
BBX 20 20 0 -3
BITMAP
060600
040400
040420
0DFFF0
084000
184000
184000
184000
283FE0
281000
481800
081020
0BFFF0
082080
084080
08B900
098600
081980
0860E0
0B8020
ENDCHAR
STARTCHAR 4FAD
ENCODING 20397
SWIDTH 1200 0
DWIDTH 20 0
BBX 20 20 0 -3
BITMAP
064020
047FF0
044020
0C4020
084020
087FE0
184220
184200
284200
488100
088100
08B080
090C80
090240
0A0260
0A6030
0C1820
080600
080300
080100
ENDCHAR
STARTCHAR 4FAE
ENCODING 20398
SWIDTH 1200 0
DWIDTH 20 0
BBX 20 20 0 -3
BITMAP
067000
044000
044020
0CFFF0
088000
194040
1A7FE0
184440
284440
284440
484440
0BFFF0
088880
088880
088880
088880
08FFE0
088080
080780
080100
ENDCHAR
STARTCHAR 4FAF
ENCODING 20399
SWIDTH 1200 0
DWIDTH 20 0
BBX 20 20 0 -3
BITMAP
060080
047FC0
040080
0C0080
0800A0
09FFF0
182000
183000
282040
287FE0
484400
088400
080420
09FFF0
080A00
080A00
081100
0820C0
08C070
0B0020
ENDCHAR
STARTCHAR 4FB5
ENCODING 20405
SWIDTH 1200 0
DWIDTH 20 0
BBX 20 20 0 -3
BITMAP
060040
047FE0
040040
0C7FC0
080040
180040
187FC0
180040
290020
29FFF0
4B0020
0A00A0
08FFC0
084080
082100
081200
080C00
083380
08C0F0
0B0020
ENDCHAR
STARTCHAR 4FB6
ENCODING 20406
SWIDTH 1200 0
DWIDTH 20 0
BBX 20 20 0 -3
BITMAP
064040
047FE0
044040
0C4040
084040
084040
184040
187FC0
284640
480400
080800
080800
089020
08FFF0
088020
088020
088020
088020
08FFE0
088020
ENDCHAR
STARTCHAR 4FBF
ENCODING 20415
SWIDTH 1200 0
DWIDTH 20 0
BBX 20 20 0 -3
BITMAP
060020
05FFF0
040400
0C4440
087FE0
084440
184440
187FC0
284440
284440
487FC0
080440
084400
082400
081800
080C00
081200
082180
08C0F0
0B0020
ENDCHAR
STARTCHAR 4FC2
ENCODING 20418
SWIDTH 1200 0
DWIDTH 20 0
BBX 20 20 0 -3
BITMAP
060080
0407E0
04FC00
0C0800
080C00
081080
10A1C0
1C4300
282400
282840
481020
09FFD0
08C410
080400
084480
086440
088420
090410
0A0410
080400
ENDCHAR
STARTCHAR 4FC3
ENCODING 20419
SWIDTH 1200 0
DWIDTH 20 0
BBX 20 20 0 -3
BITMAP
064040
047FE0
044040
0C4040
084040
184040
184040
187FC0
284440
280400
480400
08C440
0887E0
088400
088400
088400
08C400
093400
090E00
0A01F0
ENDCHAR
STARTCHAR 4FC4
ENCODING 20420
SWIDTH 1200 0
DWIDTH 20 0
BBX 20 20 0 -3
BITMAP
062280
047240
0DC220
084220
184200
104220
13FFF0
304100
304120
504130
104120
105960
106140
13C080
1140A0
1041A0
104160
104220
11C430
109810
ENDCHAR
STARTCHAR 4FCA
ENCODING 20426
SWIDTH 1200 0
DWIDTH 20 0
BBX 20 20 0 -3
BITMAP
061000
041900
041080
0C2040
0827E0
09FA20
189200
182220
284230
4981E0
081800
081080
083FC0
084080
08A100
0B1200
080C00
081380
0860F0
0B8020
ENDCHAR
STARTCHAR 4FCE
ENCODING 20430
SWIDTH 1200 0
DWIDTH 20 0
BBX 20 20 0 -3
BITMAP
061040
041FE0
041040
0A1040
091040
111040
109040
209FC0
401040
061040
041040
041040
0A1FC0
091040
111040
109040
209040
401040
007FF0
000000
ENDCHAR
STARTCHAR 4FD0
ENCODING 20432
SWIDTH 1200 0
DWIDTH 20 0
BBX 20 20 0 -3
BITMAP
060830
043C20
05E1A0
0C2120
082120
082920
19FD20
182120
286120
487120
086920
08A520
08A520
092120
092020
0A2020
082020
082020
0820E0
082040
ENDCHAR
STARTCHAR 4FD1
ENCODING 20433
SWIDTH 1200 0
DWIDTH 20 0
BBX 20 20 0 -3
BITMAP
060040
04FFE0
040080
0C1100
080A00
088420
18FFF0
188420
288420
488420
08FFE0
088420
088420
088420
08FFE0
088420
088420
088420
0885E0
088440
ENDCHAR
STARTCHAR 4FD4
ENCODING 20436
SWIDTH 1200 0
DWIDTH 20 0
BBX 20 20 0 -3
BITMAP
064080
047FC0
044080
0C4080
087F80
084080
184080
187F80
284080
484080
084080
087F80
085280
081200
081200
082200
082220
084220
088230
0901E0
ENDCHAR
STARTCHAR 4FD7
ENCODING 20439
SWIDTH 1200 0
DWIDTH 20 0
BBX 20 20 0 -3
BITMAP
062200
043100
044080
0C40C0
088C40
090840
181400
181200
282100
2840C0
488070
0B40A0
087FC0
084080
084080
084080
084080
084080
087F80
084080
ENDCHAR
STARTCHAR 4FD8
ENCODING 20440
SWIDTH 1200 0
DWIDTH 20 0
BBX 20 20 0 -3
BITMAP
060040
0400E0
048F00
0CF0C0
088820
088410
190210
190200
2A0080
487FC0
080100
080200
080400
080420
09FFF0
080400
080400
080400
083C00
080800
ENDCHAR
STARTCHAR 4FDA
ENCODING 20442
SWIDTH 1200 0
DWIDTH 20 0
BBX 20 20 0 -3
BITMAP
064040
047FE0
044440
0C4440
084440
087FC0
184440
184440
284440
487FC0
084440
080400
080400
080440
08FFE0
080400
080400
080420
09FFF0
080000
ENDCHAR
STARTCHAR 4FDB
ENCODING 20443
SWIDTH 1200 0
DWIDTH 20 0
BBX 20 20 0 -3
BITMAP
061800
041080
043FC0
0C2100
084200
08C440
197FE0
184440
284440
484440
084840
087FC0
084A40
081200
081200
082200
082220
084220
088230
0B01E0
ENDCHAR
STARTCHAR 4FDD
ENCODING 20445
SWIDTH 1200 0
DWIDTH 20 0
BBX 20 20 0 -3
BITMAP
064040
047FE0
044040
0C4040
084040
184040
187FC0
284440
280400
480420
09FFF0
080E00
081D00
081480
0824C0
084460
088430
090420
080400
080400
ENDCHAR
STARTCHAR 4FDF
ENCODING 20447
SWIDTH 1200 0
DWIDTH 20 0
BBX 20 20 0 -3
BITMAP
061000
041800
042080
0C2040
0847E0
09F820
188020
186000
284040
48FFE0
088400
090400
080420
09FFF0
080C00
080A00
081100
0820C0
08C070
0B0020
ENDCHAR
STARTCHAR 4FE1
ENCODING 20449
SWIDTH 1200 0
DWIDTH 20 0
BBX 20 20 0 -3
BITMAP
060080
043FC0
040000
0C0020
08FFF0
180000
180080
183FC0
280000
280080
483FC0
080000
084040
087FE0
084040
084040
084040
084040
087FC0
084040
ENDCHAR
STARTCHAR 4FE3
ENCODING 20451
SWIDTH 1200 0
DWIDTH 20 0
BBX 20 20 0 -3
BITMAP
064040
047FE0
044040
0C4040
084040
087FC0
184040
180000
280040
48FFE0
080400
080400
080420
09FFF0
080A00
081200
082100
0840C0
088070
0B0020
ENDCHAR
STARTCHAR 4FE4
ENCODING 20452
SWIDTH 1200 0
DWIDTH 20 0
BBX 20 20 0 -3
BITMAP
062080
0410C0
041100
0C0220
09FFF0
080420
188420
18FFE0
288420
488400
090420
09FFF0
090C20
081420
082420
084440
0885C0
0B0480
080400
080400
ENDCHAR
STARTCHAR 4FE5
ENCODING 20453
SWIDTH 1200 0
DWIDTH 20 0
BBX 20 20 0 -3
BITMAP
060600
040400
040440
0CFFE0
080400
084440
187FE0
184440
284440
487FC0
084440
084440
087FC0
084440
080420
09FFF0
080400
080400
080400
080400
ENDCHAR
STARTCHAR 4FEE
ENCODING 20462
SWIDTH 1200 0
DWIDTH 20 0
BBX 20 20 0 -3
BITMAP
063000
042000
044020
0C7FF0
0AA080
0A9100
1B0A00
1A0400
2A0B00
2A31C0
4A4470
0B8620
0A1900
0A6180
0A0600
0A1840
0A60E0
0A0300
081C00
08E000
ENDCHAR
STARTCHAR 4FEF
ENCODING 20463
SWIDTH 1200 0
DWIDTH 20 0
BBX 20 20 0 -3
BITMAP
060600
040400
050420
0DFFF0
090000
091860
191040
191040
292FF0
292040
496040
09A440
092240
092240
092240
0A2040
0A2040
0A2040
0C23C0
082080
ENDCHAR
STARTCHAR 4FF3
ENCODING 20467
SWIDTH 1200 0
DWIDTH 20 0
BBX 20 20 0 -3
BITMAP
061980
041100
041100
0C1120
09F1F0
081100
181100
181120
29F1F0
281100
481100
081100
087120
0B91F0
091100
082100
082100
084100
088100
0B0100
ENDCHAR
STARTCHAR 4FF5
ENCODING 20469
SWIDTH 1200 0
DWIDTH 20 0
BBX 20 20 0 -3
BITMAP
060C00
040800
040840
0DFFE0
080800
080880
18FFC0
180800
280820
2BFFF0
481400
082420
084430
08C240
0B4280
084100
084080
0878C0
0BC070
090020
ENDCHAR
STARTCHAR 4FF6
ENCODING 20470
SWIDTH 1200 0
DWIDTH 20 0
BBX 20 20 0 -3
BITMAP
066000
044020
044FF0
0C4220
087A20
084220
184220
185140
2BF940
484140
084140
096080
09D080
094980
094940
0A4A40
0C4260
084420
09C830
089020
ENDCHAR
STARTCHAR 4FF8
ENCODING 20472
SWIDTH 1200 0
DWIDTH 20 0
BBX 20 20 0 -3
BITMAP
060600
040400
040440
0CFFE0
080400
087FC0
180A00
180A20
29FFF0
481100
0826C0
084470
098520
083F80
080400
080480
087FC0
080400
080400
080400
ENDCHAR
STARTCHAR 4FFA
ENCODING 20474
SWIDTH 1200 0
DWIDTH 20 0
BBX 20 20 0 -3
BITMAP
060C00
040800
040820
0DFFF0
081200
182100
184CC0
188870
2BFFA0
288880
488880
08FF80
088880
088880
08FF80
088880
080800
080820
080830
0807E0
ENDCHAR
STARTCHAR 4FFE
ENCODING 20478
SWIDTH 1200 0
DWIDTH 20 0
BBX 20 20 0 -3
BITMAP
030400
020600
024840
067FE0
044440
0C4440
0C7FC0
144440
144440
247FC0
440940
041100
042100
044120
05FFF0
040100
040100
040100
040100
040100
ENDCHAR
STARTCHAR 5005
ENCODING 20485
SWIDTH 1200 0
DWIDTH 20 0
BBX 20 20 0 -3
BITMAP
060600
040400
040400
0C0420
09FFF0
080000
186060
184040
284040
48A0A0
091110
0A1210
080000
080600
080420
09FFF0
080400
080400
080400
080400
ENDCHAR
STARTCHAR 5006
ENCODING 20486
SWIDTH 1200 0
DWIDTH 20 0
BBX 20 20 0 -3
BITMAP
0C0020
0BFFF0
080800
180800
140820
17FFF0
340820
340820
548920
17CFA0
148920
148920
154AA0
154AA0
163C60
140820
140820
140820
1409E0
140840
ENDCHAR
STARTCHAR 5009
ENCODING 20489
SWIDTH 1200 0
DWIDTH 20 0
BBX 20 20 0 -3
BITMAP
007000
006000
009000
010800
020400
05FE00
080180
13FEF0
620220
03FE00
020200
03FE00
040200
040000
09FF00
090100
110100
210100
01FF00
010100
ENDCHAR
STARTCHAR 500B
ENCODING 20491
SWIDTH 1200 0
DWIDTH 20 0
BBX 20 20 0 -3
BITMAP
068020
04FFF0
048020
0C8620
088420
0884A0
18FFE0
188420
288420
489520
089FA0
089120
089120
089120
089120
089F20
089120
088020
08FFE0
088020
ENDCHAR
STARTCHAR 500D
ENCODING 20493
SWIDTH 1200 0
DWIDTH 20 0
BBX 20 20 0 -3
BITMAP
060600
040400
040440
0CFFE0
082080
0810C0
181100
181100
280220
29FFF0
480000
080000
084040
087FE0
084040
084040
084040
084040
087FC0
084040
ENDCHAR
STARTCHAR 500F
ENCODING 20495
SWIDTH 1200 0
DWIDTH 20 0
BBX 20 20 0 -3
BITMAP
061800
041040
043FE0
0C2040
0B5080
0A8900
1A0600
1A0B80
2A30F0
2AC020
4A0680
0A0440
0A0440
0AFFF0
0A0A00
0A0900
0A1080
0820C0
084070
098020
ENDCHAR
STARTCHAR 5011
ENCODING 20497
SWIDTH 1200 0
DWIDTH 20 0
BBX 20 20 0 -3
BITMAP
0D1220
09FBF0
091220
191220
11F3E0
111220
111220
31F3E0
311220
310020
510020
110020
110020
110020
110020
110020
110020
110020
1101E0
110040
ENDCHAR
STARTCHAR 5012
ENCODING 20498
SWIDTH 1200 0
DWIDTH 20 0
BBX 20 20 0 -3
BITMAP
060830
05FC20
0461A0
044120
0C5120
088920
18BD20
1BC520
288120
283120
482120
082920
09FD20
082120
082020
082C20
087020
0BC020
0901E0
080040
ENDCHAR
STARTCHAR 5014
ENCODING 20500
SWIDTH 1200 0
DWIDTH 20 0
BBX 20 20 0 -3
BITMAP
068020
04FFF0
048020
0C8020
08FFE0
088020
188300
188200
289A60
489240
089240
089FC0
089240
088200
088200
093230
092220
092220
0A3FE0
082020
ENDCHAR
STARTCHAR 5016
ENCODING 20502
SWIDTH 1200 0
DWIDTH 20 0
BBX 20 20 0 -3
BITMAP
060600
040440
047FE0
0C0400
080400
080420
19FFF0
182080
2810C0
481100
080220
09FFF0
080400
080400
080440
08FFE0
080400
080400
080400
080400
ENDCHAR
STARTCHAR 5019
ENCODING 20505
SWIDTH 1200 0
DWIDTH 20 0
BBX 20 20 0 -3
BITMAP
060080
041FC0
058080
0D0080
0900A0
097FF0
191000
191800
291040
293FE0
492400
094400
090420
09FFF0
090A00
090900
091080
0820C0
084070
098020
ENDCHAR
STARTCHAR 501A
ENCODING 20506
SWIDTH 1200 0
DWIDTH 20 0
BBX 20 20 0 -3
BITMAP
060C00
040800
040880
0CFFC0
081200
082100
184080
198080
280020
4BFFF0
080080
088880
08FC80
088880
088880
08F880
088880
088080
080780
080100
ENDCHAR
STARTCHAR 501F
ENCODING 20511
SWIDTH 1200 0
DWIDTH 20 0
BBX 20 20 0 -3
BITMAP
063180
042100
042140
0CFFE0
082100
082100
182100
182120
29FFF0
280000
484080
087FC0
084080
084080
087F80
084080
084080
084080
087F80
084080
ENDCHAR
STARTCHAR 5021
ENCODING 20513
SWIDTH 1200 0
DWIDTH 20 0
BBX 20 20 0 -3
BITMAP
032040
023FE0
022040
062040
043FC0
0C2040
0C2040
142040
143FC0
242040
444020
047FF0
044020
044020
047FE0
044020
044020
044020
047FE0
044020
ENDCHAR
STARTCHAR 5023
ENCODING 20515
SWIDTH 1200 0
DWIDTH 20 0
BBX 20 20 0 -3
BITMAP
0C6300
084200
084200
185220
17FBF0
108220
308620
308520
30F540
509540
109940
1090C0
109080
109080
1191C0
111140
113260
122220
12E430
144820
ENDCHAR
STARTCHAR 5024
ENCODING 20516
SWIDTH 1200 0
DWIDTH 20 0
BBX 20 20 0 -3
BITMAP
060600
040400
040420
0DFFF0
080800
182840
19BFE0
192040
292040
293FC0
492040
092040
093FC0
092040
092040
093FC0
092040
090020
09FFF0
090000
ENDCHAR
STARTCHAR 5025
ENCODING 20517
SWIDTH 1200 0
DWIDTH 20 0
BBX 20 20 0 -3
BITMAP
060600
040400
040400
0D0420
09FFF0
091220
1B1240
1A2200
282240
484260
0981C0
080000
080040
08FFE0
080400
080400
080400
080420
09FFF0
080000
ENDCHAR
STARTCHAR 5026
ENCODING 20518
SWIDTH 1200 0
DWIDTH 20 0
BBX 20 20 0 -3
BITMAP
068C80
0448C0
042980
0C2900
080A40
19FFE0
181400
181420
2BFFF0
282200
484100
08FF80
090170
0E0120
087F00
084100
084040
084040
086060
083FC0
ENDCHAR
STARTCHAR 5028
ENCODING 20520
SWIDTH 1200 0
DWIDTH 20 0
BBX 20 20 0 -3
BITMAP
064020
047FF0
044020
0C4020
084020
087FE0
184220
184200
284220
487FF0
084200
088200
089240
089FE0
089040
091040
091040
091040
0A1FC0
081040
ENDCHAR
STARTCHAR 5029
ENCODING 20521
SWIDTH 1200 0
DWIDTH 20 0
BBX 20 20 0 -3
BITMAP
030600
020400
020440
06FFE0
040400
0C7FC0
0C0420
15FFF0
140000
244040
447FE0
044440
044440
044440
047FC0
044040
044040
044040
0443C0
044080
ENDCHAR
STARTCHAR 502A
ENCODING 20522
SWIDTH 1200 0
DWIDTH 20 0
BBX 20 20 0 -3
BITMAP
060400
040600
049820
0CE1F0
088020
088020
18F9E0
188020
288020
488020
08FFE0
089220
081200
081200
082200
082200
084220
088220
090230
0A01E0
ENDCHAR
STARTCHAR 502B
ENCODING 20523
SWIDTH 1200 0
DWIDTH 20 0
BBX 20 20 0 -3
BITMAP
060C00
040800
041400
0C1400
082200
184100
1880C0
290170
4EFFA0
080000
090040
09FFE0
092440
092440
09FFC0
092440
092440
092440
0925C0
090080
ENDCHAR
STARTCHAR 502C
ENCODING 20524
SWIDTH 1200 0
DWIDTH 20 0
BBX 20 20 0 -3
BITMAP
030600
020400
020440
0607E0
040400
0C4440
0C7FE0
144040
144040
247FC0
444040
044040
047FC0
044440
040400
040420
05FFF0
040400
040400
040400
ENDCHAR
STARTCHAR 502D
ENCODING 20525
SWIDTH 1200 0
DWIDTH 20 0
BBX 20 20 0 -3
BITMAP
060080
0407C0
047C00
0C0400
080420
09FFF0
180E00
181580
286470
498420
080000
081800
081020
09FFF0
082080
084100
08F200
088F00
0830C0
09C040
ENDCHAR
STARTCHAR 5036
ENCODING 20534
SWIDTH 1200 0
DWIDTH 20 0
BBX 20 20 0 -3
BITMAP
064080
047FC0
044080
0C4080
087F80
184080
184080
287F80
284080
484080
084080
087F80
084080
080020
0BFFF0
081100
081880
082040
08C060
0B0020
ENDCHAR
STARTCHAR 5039
ENCODING 20537
SWIDTH 1200 0
DWIDTH 20 0
BBX 20 20 0 -3
BITMAP
060600
040400
040A00
0C1100
0820C0
184070
198020
183FC0
280400
284440
487FE0
084440
084440
087FC0
084A40
080A00
081100
0820C0
084070
098020
ENDCHAR
STARTCHAR 5043
ENCODING 20547
SWIDTH 1200 0
DWIDTH 20 0
BBX 20 20 0 -3
BITMAP
068020
04FFF0
048000
0C9FC0
089040
189FC0
189040
189FC0
288600
288440
48BFE0
088880
089080
089F00
088280
088C40
08B040
088000
08FFF0
088000
ENDCHAR
STARTCHAR 5047
ENCODING 20551
SWIDTH 1200 0
DWIDTH 20 0
BBX 20 20 0 -3
BITMAP
061020
05FBF0
051020
0D1020
091020
191020
19F3E0
191020
290000
290020
49F7F0
090220
090220
090140
090140
09F080
0901C0
090260
090C30
093020
ENDCHAR
STARTCHAR 5048
ENCODING 20552
SWIDTH 1200 0
DWIDTH 20 0
BBX 20 20 0 -3
BITMAP
064080
047FC0
044080
0C4080
087F80
084080
184080
187F80
282080
482020
087FF0
088C20
09C820
0A9420
089220
08A220
08FFA0
088060
0803C0
080080
ENDCHAR
STARTCHAR 5049
ENCODING 20553
SWIDTH 1200 0
DWIDTH 20 0
BBX 20 20 0 -3
BITMAP
060C00
040880
047FC0
0C1080
0810A0
19FFF0
180000
184040
287FE0
284040
484040
087FC0
080200
080240
087FE0
082200
082220
09FFF0
080200
080200
ENDCHAR
STARTCHAR 504F
ENCODING 20559
SWIDTH 1200 0
DWIDTH 20 0
BBX 20 20 0 -3
BITMAP
060020
04FFF0
040000
0C4020
087FF0
084020
184020
187FE0
28C000
488020
08FFF0
08C920
094920
097FE0
0A4920
0C4920
084920
084920
0849E0
084040
ENDCHAR
STARTCHAR 5050
ENCODING 20560
SWIDTH 1200 0
DWIDTH 20 0
BBX 20 20 0 -3
BITMAP
060600
040440
04FFE0
0C2100
081980
080600
181980
1960A0
29FFF0
490100
090380
090C00
097080
0901C0
090600
0A1820
0AE0F0
0A0380
0A1C00
0CE000
ENDCHAR
STARTCHAR 5055
ENCODING 20565
SWIDTH 1200 0
DWIDTH 20 0
BBX 20 20 0 -3
BITMAP
06C300
048220
049230
0CFAC0
088300
088220
188220
18BA30
2BC1E0
490800
080C00
089040
08FFE0
088040
088040
08FFC0
088040
088040
08FFC0
088040
ENDCHAR
STARTCHAR 5056
ENCODING 20566
SWIDTH 1200 0
DWIDTH 20 0
BBX 20 20 0 -3
BITMAP
060C00
040840
040860
0CFFC0
080880
180900
180A20
2BFFF0
280A00
481100
082140
087FE0
08A040
0B2040
083FC0
082040
082040
082040
083FC0
082040
ENDCHAR
STARTCHAR 505A
ENCODING 20570
SWIDTH 1200 0
DWIDTH 20 0
BBX 20 20 0 -3
BITMAP
066300
044200
044200
0C5220
0BFBF0
184420
184420
284A20
284220
495140
09F940
091140
091080
091080
091140
09F140
091260
080420
080830
083020
ENDCHAR
STARTCHAR 505C
ENCODING 20572
SWIDTH 1200 0
DWIDTH 20 0
BBX 20 20 0 -3
BITMAP
060600
040400
040420
0DFFF0
080000
183F80
182080
282080
283F80
490020
09FFF0
0B0020
0A00A0
08FFC0
080400
080400
080400
080400
081C00
080800
ENDCHAR
STARTCHAR 5065
ENCODING 20581
SWIDTH 1200 0
DWIDTH 20 0
BBX 20 20 0 -3
BITMAP
0C4300
0BE240
085FE0
188240
108240
113FF0
314240
33E240
325FC0
504240
124200
125FE0
114200
114220
10BFF0
108200
114200
112200
121800
1407F0
ENDCHAR
STARTCHAR 506C
ENCODING 20588
SWIDTH 1200 0
DWIDTH 20 0
BBX 20 20 0 -3
BITMAP
066000
044020
04FFF0
0C8920
096920
0A1920
186620
198960
283140
28C0C0
480780
080100
080800
080440
08B220
08A210
092090
0B2080
0A20C0
081F80
ENDCHAR
STARTCHAR 5072
ENCODING 20594
SWIDTH 1200 0
DWIDTH 20 0
BBX 20 20 0 -3
BITMAP
064040
047FE0
044440
0C4440
084440
087FC0
184440
184440
284440
487FC0
084040
080800
080400
080240
08B220
08A010
0B2090
0A2080
0820C0
081F80
ENDCHAR
STARTCHAR 5074
ENCODING 20596
SWIDTH 1200 0
DWIDTH 20 0
BBX 20 20 0 -3
BITMAP
060030
048820
04FDA0
0C8920
088920
088920
18F920
188920
288920
288920
48F920
088920
088920
088920
08F920
080120
089020
08C820
0884E0
090440
ENDCHAR
STARTCHAR 5075
ENCODING 20597
SWIDTH 1200 0
DWIDTH 20 0
BBX 20 20 0 -3
BITMAP
060600
040420
0407F0
0C0400
084440
087FE0
184040
184040
287FC0
484040
084040
087FC0
084040
084040
087FC0
084040
082180
083040
08C030
0B0010
ENDCHAR
STARTCHAR 5076
ENCODING 20598
SWIDTH 1200 0
DWIDTH 20 0
BBX 20 20 0 -3
BITMAP
064040
047FE0
044440
0C4440
087FC0
084440
184440
187FC0
284440
280400
490420
09FFF0
090420
090520
0904A0
097FA0
0930A0
090020
0901E0
090040
ENDCHAR
STARTCHAR 5078
ENCODING 20600
SWIDTH 1200 0
DWIDTH 20 0
BBX 20 20 0 -3
BITMAP
060800
047C00
041200
0C2100
0840C0
088070
1B00A0
18FFC0
280000
291240
49FB60
091240
099280
095480
091900
099480
095240
091240
097120
092120
ENDCHAR
STARTCHAR 507D
ENCODING 20605
SWIDTH 1200 0
DWIDTH 20 0
BBX 20 20 0 -3
BITMAP
068C00
044800
044800
0C0A00
09FF00
082200
182200
182280
287FC0
284080
488080
0880A0
09FFF0
090020
0A0220
08A920
08A560
0B2440
0A03C0
080080
ENDCHAR
STARTCHAR 5080
ENCODING 20608
SWIDTH 1200 0
DWIDTH 20 0
BBX 20 20 0 -3
BITMAP
060800
040C00
041800
0C9080
08FFC0
088880
188880
18FF80
288880
288880
48FF80
0824C0
082480
0824A0
084510
084570
088790
088520
090630
0A03E0
ENDCHAR
STARTCHAR 5085
ENCODING 20613
SWIDTH 1200 0
DWIDTH 20 0
BBX 20 20 0 -3
BITMAP
060680
040440
040440
0DFFF0
080400
18FFE0
188420
28FFE0
288420
48FFE0
088420
088420
080180
080120
09FFF0
084100
082100
082100
080F00
080200
ENDCHAR
STARTCHAR 508D
ENCODING 20621
SWIDTH 1200 0
DWIDTH 20 0
BBX 20 20 0 -3
BITMAP
060600
040440
04FFE0
042100
0C1180
081100
190220
19FFF0
2B0020
4A0640
080420
09FFF0
081000
081040
083FE0
082040
082040
0840C0
088780
090100
ENDCHAR
STARTCHAR 5091
ENCODING 20625
SWIDTH 1200 0
DWIDTH 20 0
BBX 20 20 0 -3
BITMAP
0CC060
089040
08F840
0917F0
191240
129240
145240
302240
304FF0
518040
160C40
100800
100820
17FFF0
101C00
102A00
104980
118870
160820
100800
ENDCHAR
STARTCHAR 5098
ENCODING 20632
SWIDTH 1200 0
DWIDTH 20 0
BBX 20 20 0 -3
BITMAP
006000
00C000
01B000
060E00
1801F0
663120
042100
0A2280
112440
252940
042100
0A2280
112440
212840
002000
7FFFF0
002000
002000
002000
002000
ENDCHAR
STARTCHAR 5099
ENCODING 20633
SWIDTH 1200 0
DWIDTH 20 0
BBX 20 20 0 -3
BITMAP
061980
041120
04FFF0
0C1100
081100
189120
18FFF0
188000
28A020
28BFF0
48A220
08A220
08BFE0
08A220
08A220
09BFE0
092220
092220
0A22E0
082240
ENDCHAR
STARTCHAR 509A
ENCODING 20634
SWIDTH 1200 0
DWIDTH 20 0
BBX 20 20 0 -3
BITMAP
066300
044200
044200
0C5220
0BFBF0
180420
192620
29AA20
291220
4A1140
082140
093140
08A080
084080
084140
08A140
091260
0A1420
080830
081020
ENDCHAR
STARTCHAR 50AC
ENCODING 20652
SWIDTH 1200 0
DWIDTH 20 0
BBX 20 20 0 -3
BITMAP
060600
04C430
048420
0C8420
08FFE0
188020
182200
183380
286620
28FFF0
498400
0A8440
0CFFE0
088400
088440
08FFE0
088400
088420
08FFF0
088000
ENDCHAR
STARTCHAR 50AD
ENCODING 20653
SWIDTH 1200 0
DWIDTH 20 0
BBX 20 20 0 -3
BITMAP
060600
048420
04FFF0
0C8200
088220
08BFF0
188220
18FFF0
288220
48BFE0
088200
08A220
093FF0
092220
093FE0
092220
0A3FE0
0A2220
0C22E0
082240
ENDCHAR
STARTCHAR 50B2
ENCODING 20658
SWIDTH 1200 0
DWIDTH 20 0
BBX 20 20 0 -3
BITMAP
0C6300
084200
085200
1BFA20
1043F0
104420
305420
37FA20
504220
104940
17FD40
108140
109080
11F880
111140
111140
121260
123220
14E430
104820
ENDCHAR
STARTCHAR 50B3
ENCODING 20659
SWIDTH 1200 0
DWIDTH 20 0
BBX 20 20 0 -3
BITMAP
060600
040420
05FFF0
0C0400
08FFE0
088420
18FFE0
188420
28FFE0
280480
480440
080FE0
09F820
088080
0800A0
09FFF0
084080
082080
082780
080100
ENDCHAR
STARTCHAR 50B4
ENCODING 20660
SWIDTH 1200 0
DWIDTH 20 0
BBX 20 20 0 -3
BITMAP
050020
05FFF0
050000
0D1080
091FC0
191080
191080
291F80
291080
490000
094920
097DF0
094920
094920
0979E0
094920
090000
090020
09FFF0
090000
ENDCHAR
STARTCHAR 50B5
ENCODING 20661
SWIDTH 1200 0
DWIDTH 20 0
BBX 20 20 0 -3
BITMAP
060600
040440
04FFE0
0C0400
087FC0
080400
19FFF0
180000
287FC0
284040
487FC0
084040
087FC0
084040
087FC0
084040
081300
0838C0
08C060
0B0020
ENDCHAR
STARTCHAR 50B7
ENCODING 20663
SWIDTH 1200 0
DWIDTH 20 0
BBX 20 20 0 -3
BITMAP
066000
044040
04FFE0
0C8000
097F80
0A4080
187F80
184080
287F80
480020
0BFFF0
082000
084020
08FFF0
091120
0A2220
084420
0B8840
0833C0
08C080
ENDCHAR
STARTCHAR 50BE
ENCODING 20670
SWIDTH 1200 0
DWIDTH 20 0
BBX 20 20 0 -3
BITMAP
0C0020
081FF0
080180
1B0100
120A20
120FF0
324820
326820
328FE0
530820
520820
120FE0
120820
124820
124FE0
126020
11C440
100620
100810
103010
ENDCHAR
STARTCHAR 50C2
ENCODING 20674
SWIDTH 1200 0
DWIDTH 20 0
BBX 20 20 0 -3
BITMAP
060C00
048880
04FFC0
0C88A0
0BFFF0
088880
18FF80
188880
280800
28FF80
488880
08FF80
089080
082020
0BFFF0
084080
08F100
088E00
0831C0
09C040
ENDCHAR
STARTCHAR 50C5
ENCODING 20677
SWIDTH 1200 0
DWIDTH 20 0
BBX 20 20 0 -3
BITMAP
061980
041120
05FFF0
0C1100
081100
188020
10FFF0
388420
288420
48FFE0
088420
080400
08FFE0
080400
080480
087FC0
080400
080420
09FFF0
080000
ENDCHAR
STARTCHAR 50C9
ENCODING 20681
SWIDTH 1200 0
DWIDTH 20 0
BBX 20 20 0 -3
BITMAP
003000
002000
005000
008800
010600
060180
1802F0
67FF20
000000
088880
0FCFC0
088880
088880
0F8F80
000000
060300
040200
0B0580
108860
60B020
ENDCHAR
STARTCHAR 50CA
ENCODING 20682
SWIDTH 1200 0
DWIDTH 20 0
BBX 20 20 0 -3
BITMAP
0C0020
0BFFF0
081200
18FFC0
109240
109240
30FFC0
308840
300820
53FFF0
102200
104100
10FFC0
110170
164120
107F00
104140
104040
104060
103FC0
ENDCHAR
STARTCHAR 50CD
ENCODING 20685
SWIDTH 1200 0
DWIDTH 20 0
BBX 20 20 0 -3
BITMAP
0C1180
087900
0BC100
184100
17F920
1047F0
33F920
324920
33F920
524920
124920
13F920
124920
104320
13FA20
104220
107A20
178420
1205C0
100880
ENDCHAR
STARTCHAR 50CF
ENCODING 20687
SWIDTH 1200 0
DWIDTH 20 0
BBX 20 20 0 -3
BITMAP
061800
041100
043F80
0C4300
08C440
1B7FE0
104440
3C4440
287FC0
484840
081820
082430
08CA40
0B1280
086700
0B8A80
0812C0
086270
0B8E20
080400
ENDCHAR
STARTCHAR 50D1
ENCODING 20689
SWIDTH 1200 0
DWIDTH 20 0
BBX 20 20 0 -3
BITMAP
060080
0407C0
047C00
0C0820
09FFF0
081100
1820C0
187FF0
29A0A0
483F80
088020
08FFF0
088020
089F20
089120
089120
089F20
088020
0881E0
088040
ENDCHAR
STARTCHAR 50D5
ENCODING 20693
SWIDTH 1200 0
DWIDTH 20 0
BBX 20 20 0 -3
BITMAP
0519A0
049130
045140
0C5180
081120
19FFF0
182080
1810C0
281100
28FFE0
480400
087FC0
080420
09FFF0
080A00
080A00
081100
0820C0
08C070
0B0020
ENDCHAR
STARTCHAR 50D6
ENCODING 20694
SWIDTH 1200 0
DWIDTH 20 0
BBX 20 20 0 -3
BITMAP
060600
040420
05FFF0
0C0400
08FFE0
080000
187FC0
184040
284040
287FC0
482100
081180
081220
09FFF0
080000
087FC0
084040
084040
087FC0
084040
ENDCHAR
STARTCHAR 50DA
ENCODING 20698
SWIDTH 1200 0
DWIDTH 20 0
BBX 20 20 0 -3
BITMAP
0C0C00
080800
080820
0FFFF0
1A1220
112140
10C080
31FFC0
3280B0
54FFA0
108080
108080
10FF80
100880
108800
10C900
1188C0
120860
143820
101000
ENDCHAR
STARTCHAR 50DE
ENCODING 20702
SWIDTH 1200 0
DWIDTH 20 0
BBX 20 20 0 -3
BITMAP
0C0180
0887C0
08F900
189080
130840
128840
30FF00
308100
308100
50FF80
110080
1100A0
11FFF0
120020
120220
12A920
14A560
11A440
1103C0
100080
ENDCHAR
STARTCHAR 50E3
ENCODING 20707
SWIDTH 1200 0
DWIDTH 20 0
BBX 20 20 0 -3
BITMAP
0C60C0
084080
0840A0
19F3F0
104080
1040A0
13F7F0
30C140
30A120
311210
521410
104040
107FE0
104040
104040
107FC0
104040
104040
107FC0
104040
ENDCHAR
STARTCHAR 50E5
ENCODING 20709
SWIDTH 1200 0
DWIDTH 20 0
BBX 20 20 0 -3
BITMAP
060600
040480
047FC0
0C0400
08FFE0
080000
1860C0
1840A0
29F3F0
284080
4878A0
0BC7F0
090000
080020
09FFF0
081100
081120
082120
084130
0980E0
ENDCHAR
STARTCHAR 50E7
ENCODING 20711
SWIDTH 1200 0
DWIDTH 20 0
BBX 20 20 0 -3
BITMAP
062080
0410C0
041100
0C8220
08FFF0
088420
18FFE0
188420
288420
28FFE0
480000
084040
087FE0
084040
084040
087FC0
084040
084040
087FC0
084040
ENDCHAR
STARTCHAR 50ED
ENCODING 20717
SWIDTH 1200 0
DWIDTH 20 0
BBX 20 20 0 -3
BITMAP
0C30C0
082080
0BF7E0
18A280
112480
13F7F0
106180
30A9A0
3172B0
322460
500000
108040
10FFE0
108040
108040
10FFC0
108040
108040
10FFC0
108040
ENDCHAR
STARTCHAR 50EE
ENCODING 20718
SWIDTH 1200 0
DWIDTH 20 0
BBX 20 20 0 -3
BITMAP
060600
040440
04FFE0
0C2100
081180
081220
19FFF0
180000
284040
487FE0
084440
087FC0
084440
087FC0
084440
080400
087FC0
080400
09FFF0
080000
ENDCHAR
STARTCHAR 50F5
ENCODING 20725
SWIDTH 1200 0
DWIDTH 20 0
BBX 20 20 0 -3
BITMAP
060020
05FFF0
040000
0C7FC0
084440
087FC0
184440
187FC0
280000
480040
08FFE0
080000
087FC0
084440
087FC0
084440
087FC0
080020
09FFF0
080000
ENDCHAR
STARTCHAR 50F9
ENCODING 20729
SWIDTH 1200 0
DWIDTH 20 0
BBX 20 20 0 -3
BITMAP
0C0020
0BFFF0
081200
191220
11FFF0
111220
31FFE0
310020
308040
50FFE0
108040
10FFC0
108040
10FFC0
108040
10FFC0
102000
1073C0
10C070
130010
ENDCHAR
STARTCHAR 50FB
ENCODING 20731
SWIDTH 1200 0
DWIDTH 20 0
BBX 20 20 0 -3
BITMAP
0690C0
04F880
049080
0C90A0
0897F0
189020
189230
18F120
289140
2887F0
488080
091080
09F8A0
0997F0
0A9080
0A9080
0C9080
089080
08F080
089080
ENDCHAR
STARTCHAR 5100
ENCODING 20736
SWIDTH 1200 0
DWIDTH 20 0
BBX 20 20 0 -3
BITMAP
064200
042300
042440
0DFFE0
080800
08FFC0
180800
1BFFF0
282040
287320
4BC220
084200
0BFFF0
084240
087260
0BC280
094120
0842A0
09C470
089830
ENDCHAR
STARTCHAR 5101
ENCODING 20737
SWIDTH 1200 0
DWIDTH 20 0
BBX 20 20 0 -3
BITMAP
064200
046300
044440
0CFFE0
088400
09FFC0
1A8400
18FFC0
288400
28FFE0
488000
091220
09FBF0
091220
091220
091E20
091220
090020
0901E0
090040
ENDCHAR
STARTCHAR 5102
ENCODING 20738
SWIDTH 1200 0
DWIDTH 20 0
BBX 20 20 0 -3
BITMAP
061B00
049240
04FFE0
0C9240
08FFC0
089240
18FFC0
188040
290020
29FFF0
490000
093FE0
090000
09FFF0
092420
092470
0A2280
0A3900
0CE0F0
084020
ENDCHAR
STARTCHAR 5104
ENCODING 20740
SWIDTH 1200 0
DWIDTH 20 0
BBX 20 20 0 -3
BITMAP
060600
040400
040440
0CFFE0
082100
181180
181220
29FFF0
280000
487FC0
084040
087FC0
084040
087FC0
084040
080800
08A460
08A510
0B2190
0A1F00
ENDCHAR
STARTCHAR 5109
ENCODING 20745
SWIDTH 1200 0
DWIDTH 20 0
BBX 20 20 0 -3
BITMAP
060C00
040800
041400
0C2300
0840C0
088170
1B7FA0
180000
291220
29FBF0
491220
091220
09F3E0
091220
084080
0860C0
084080
08A140
091220
0A1420
ENDCHAR
STARTCHAR 5112
ENCODING 20754
SWIDTH 1200 0
DWIDTH 20 0
BBX 20 20 0 -3
BITMAP
060080
04FFC0
040800
0D0820
09FFF0
0B0820
1AEBA0
180800
28EB80
280020
49FFF0
080C00
088820
08FFF0
089220
089220
089220
089220
0892E0
089240
ENDCHAR
STARTCHAR 5114
ENCODING 20756
SWIDTH 1200 0
DWIDTH 20 0
BBX 20 20 0 -3
BITMAP
0C0C00
080840
0BFFE0
180800
11FFC0
100020
17FFF0
300020
31FFA0
300800
53FFE0
100000
17FFF0
100040
13EFF0
122040
122840
122440
13E1C0
122080
ENDCHAR
STARTCHAR 5115
ENCODING 20757
SWIDTH 1200 0
DWIDTH 20 0
BBX 20 20 0 -3
BITMAP
0C0C00
080820
0BFFF0
182220
101270
17D5C0
114940
314940
324930
34C9A0
500A00
10C060
108040
10FFC0
108040
108040
11FFC0
110040
120040
140040
ENDCHAR
STARTCHAR 5116
ENCODING 20758
SWIDTH 1200 0
DWIDTH 20 0
BBX 20 20 0 -3
BITMAP
0D1180
09F900
094120
1953F0
11F200
111200
111400
31F000
314040
3141E0
51F800
110000
108040
10FFE0
109240
109240
109240
109240
13FFF0
100000
ENDCHAR
STARTCHAR 5118
ENCODING 20760
SWIDTH 1200 0
DWIDTH 20 0
BBX 20 20 0 -3
BITMAP
060C00
040840
04FFE0
0C0840
0BFFF0
080840
18FFC0
180840
280800
4BFFF0
092240
099120
0A1120
088040
08FFE0
089240
089240
089240
0BFFF0
080000
ENDCHAR
STARTCHAR 511A
ENCODING 20762
SWIDTH 1200 0
DWIDTH 20 0
BBX 20 20 0 -3
BITMAP
061980
041120
05FFF0
0C1100
088040
08FFE0
189240
189240
28FFC0
290020
49FFF0
0B3020
0A2120
087F80
08A100
0B1200
081400
080800
083000
09C000
ENDCHAR
STARTCHAR 511F
ENCODING 20767
SWIDTH 1200 0
DWIDTH 20 0
BBX 20 20 0 -3
BITMAP
062680
0414C0
049520
0CFFF0
098020
193FA0
182080
183F80
280000
287FC0
484040
087FC0
084040
087FC0
084040
087FC0
081000
081980
086060
098020
ENDCHAR
STARTCHAR 5121
ENCODING 20769
SWIDTH 1200 0
DWIDTH 20 0
BBX 20 20 0 -3
BITMAP
0C8080
08FFC0
088880
188880
10FF80
108880
108880
30FF80
308080
300000
522420
13F7F0
12A520
12A520
13E7E0
12A520
12A520
12A520
13E7E0
122420
ENDCHAR
STARTCHAR 512A
ENCODING 20778
SWIDTH 1200 0
DWIDTH 20 0
BBX 20 20 0 -3
BITMAP
0DFFE0
081000
087F80
184080
107F80
104080
307F80
3240A0
33FFF0
520820
14A4A0
10A140
111F40
100000
102080
107FC0
10A100
131E00
1031E0
13C040
ENDCHAR
STARTCHAR 5132
ENCODING 20786
SWIDTH 1200 0
DWIDTH 20 0
BBX 20 20 0 -3
BITMAP
0C4180
0BE120
080130
1827E0
17F140
100140
3041A0
33EFF0
300100
504240
13E7E0
100C40
101440
13E440
1227C0
122440
122440
122440
13E7C0
122440
ENDCHAR
STARTCHAR 5137
ENCODING 20791
SWIDTH 1200 0
DWIDTH 20 0
BBX 20 20 0 -3
BITMAP
0C0020
0BF7F0
080000
19F3E0
111220
1152A0
1152A0
300C00
300820
31FFF0
511200
11FFE0
111220
11FFE0
124240
127AE0
144300
147A20
1BC230
1101E0
ENDCHAR
STARTCHAR 513A
ENCODING 20794
SWIDTH 1200 0
DWIDTH 20 0
BBX 20 20 0 -3
BITMAP
0D9920
0911B0
0FFD60
191340
11F2A0
1043F0
11F640
315640
315A40
31F3F0
515240
104240
13FA40
1043F0
13FA40
10A240
10A240
111240
1113F0
120200
ENDCHAR
STARTCHAR 513B
ENCODING 20795
SWIDTH 1200 0
DWIDTH 20 0
BBX 20 20 0 -3
BITMAP
064680
0424C0
052520
0DFFF0
090020
093FA0
182080
183F80
288020
28FFF0
48A4A0
089520
08FFE0
080400
08FFE0
080400
0BFFF0
085240
098920
090920
ENDCHAR
STARTCHAR 513C
ENCODING 20796
SWIDTH 1200 0
DWIDTH 20 0
BBX 20 20 0 -3
BITMAP
0D1220
09FBF0
091220
19F3E0
120000
13FFF0
120000
321180
32F900
322120
53FBF0
129220
129520
16F140
149140
14F080
149140
18F160
139230
111420
ENDCHAR
STARTCHAR 513F
ENCODING 20799
SWIDTH 1200 0
DWIDTH 20 0
BBX 20 20 0 -3
BITMAP
018600
010400
010400
010400
010400
010400
010400
010400
010400
010400
010400
020400
020400
020400
040400
040400
080420
100420
200430
4003E0
ENDCHAR
STARTCHAR 5140
ENCODING 20800
SWIDTH 1200 0
DWIDTH 20 0
BBX 20 20 0 -3
BITMAP
000000
000020
7FFFF0
010400
010400
010400
010400
010400
010400
010400
010400
020400
020400
020400
040400
040400
080420
080420
100430
6003E0
ENDCHAR
STARTCHAR 5141
ENCODING 20801
SWIDTH 1200 0
DWIDTH 20 0
BBX 20 20 0 -3
BITMAP
010000
018000
030200
020100
040080
040040
087FC0
7FC860
310840
010800
010800
010800
020800
020800
040800
040800
080820
080820
100C30
2007E0
ENDCHAR
STARTCHAR 5143
ENCODING 20803
SWIDTH 1200 0
DWIDTH 20 0
BBX 20 20 0 -3
BITMAP
000100
0FFF80
000000
000000
000000
000000
000000
000020
7FFFF0
010800
010800
010800
010800
030800
020800
060800
040820
080820
100830
6007E0
ENDCHAR
STARTCHAR 5144
ENCODING 20804
SWIDTH 1200 0
DWIDTH 20 0
BBX 20 20 0 -3
BITMAP
080100
0FFF80
080100
080100
080100
080100
080100
080100
080100
0FFF00
090900
010800
010800
020800
020800
040800
040820
080820
100C30
6007E0
ENDCHAR
STARTCHAR 5145
ENCODING 20805
SWIDTH 1200 0
DWIDTH 20 0
BBX 20 20 0 -3
BITMAP
003000
002000
002020
7FFFF0
018000
010400
020200
023F00
1FC880
090880
010800
010800
010800
020800
020800
040800
040820
080820
100C30
6007E0
ENDCHAR
STARTCHAR 5146
ENCODING 20806
SWIDTH 1200 0
DWIDTH 20 0
BBX 20 20 0 -3
BITMAP
00CC00
008800
008800
008800
208840
1888E0
0C8B00
048C00
008800
008800
038B00
0C8880
7088C0
218840
010800
030800
060820
0C0820
100830
6007E0
ENDCHAR
STARTCHAR 5147
ENCODING 20807
SWIDTH 1200 0
DWIDTH 20 0
BBX 20 20 0 -3
BITMAP
000400
180660
100C40
130840
10D040
103040
104840
108440
110440
160040
100040
1FFFC0
110440
010400
010400
020400
020420
040420
080630
3003E0
ENDCHAR
STARTCHAR 5148
ENCODING 20808
SWIDTH 1200 0
DWIDTH 20 0
BBX 20 20 0 -3
BITMAP
003000
062000
042000
042080
0FFFC0
082000
102000
202000
002020
7FFFF0
010800
010800
010800
020800
020800
040800
040820
080820
100830
6007E0
ENDCHAR
STARTCHAR 5149
ENCODING 20809
SWIDTH 1200 0
DWIDTH 20 0
BBX 20 20 0 -3
BITMAP
003000
002040
3020E0
082080
042100
062200
022400
002000
002020
7FFFF0
010800
010800
010800
020800
020800
040800
040820
080820
100830
6007E0
ENDCHAR
STARTCHAR 514B
ENCODING 20811
SWIDTH 1200 0
DWIDTH 20 0
BBX 20 20 0 -3
BITMAP
003000
002000
002020
7FFFF0
002000
042100
07FF80
040100
040100
040100
040100
07FF00
048900
008800
010800
010800
020820
040820
180830
6007E0
ENDCHAR
STARTCHAR 514C
ENCODING 20812
SWIDTH 1200 0
DWIDTH 20 0
BBX 20 20 0 -3
BITMAP
020400
037E00
020400
060200
040200
0C0100
17FFC0
240170
440120
040100
040100
07FF00
048900
008800
010800
010800
020820
040820
180830
6007E0
ENDCHAR
STARTCHAR 514D
ENCODING 20813
SWIDTH 1200 0
DWIDTH 20 0
BBX 20 20 0 -3
BITMAP
018000
010200
03FF00
020400
040800
081000
102080
6FFFC0
082080
082080
082080
082080
0FFF80
088880
008800
010800
020820
040820
180830
6007E0
ENDCHAR
STARTCHAR 514E
ENCODING 20814
SWIDTH 1200 0
DWIDTH 20 0
BBX 20 20 0 -3
BITMAP
000200
000F00
007800
0FA000
002000
102040
1FFFE0
102040
102040
102040
102040
1FFFC0
110840
010A00
010900
020880
0208A0
040820
180830
6007E0
ENDCHAR
STARTCHAR 5150
ENCODING 20816
SWIDTH 1200 0
DWIDTH 20 0
BBX 20 20 0 -3
BITMAP
0C4080
087FC0
084080
084080
084080
087F80
084080
084080
084080
087F80
084080
080000
018C00
010800
010800
020800
020820
040820
180830
6007E0
ENDCHAR
STARTCHAR 5152
ENCODING 20818
SWIDTH 1200 0
DWIDTH 20 0
BBX 20 20 0 -3
BITMAP
004000
08E000
0F0080
080FC0
080080
080080
080080
0F8F80
080080
080080
080080
0FFF80
090880
010800
020800
020800
040820
080820
100830
6007E0
ENDCHAR
STARTCHAR 5154
ENCODING 20820
SWIDTH 1200 0
DWIDTH 20 0
BBX 20 20 0 -3
BITMAP
018000
010200
03FF00
020600
040800
081000
102080
6FFFC0
082080
082080
084080
0FFF80
088880
008A00
010900
010880
0208A0
040820
180830
6007E0
ENDCHAR
STARTCHAR 515A
ENCODING 20826
SWIDTH 1200 0
DWIDTH 20 0
BBX 20 20 0 -3
BITMAP
083100
042180
022200
222420
3FFFF0
600020
440240
07FF00
040200
040200
040200
07FE00
049200
009000
011000
011000
021020
041020
181030
600FE0
ENDCHAR
STARTCHAR 515C
ENCODING 20828
SWIDTH 1200 0
DWIDTH 20 0
BBX 20 20 0 -3
BITMAP
041000
063820
2841F0
31FC20
210420
210420
21FC20
210420
210420
21FC20
3D05E0
200020
018C00
010800
030800
020800
060820
0C0820
100830
6007E0
ENDCHAR
STARTCHAR 5162
ENCODING 20834
SWIDTH 1200 0
DWIDTH 20 0
BBX 20 20 0 -3
BITMAP
060300
040200
048220
7FDFF0
040200
040200
249240
3FDFE0
209040
209040
209040
3F9FC0
2A9540
0A0500
0A2500
124500
128920
270920
221130
4060E0
ENDCHAR
STARTCHAR 5165
ENCODING 20837
SWIDTH 1200 0
DWIDTH 20 0
BBX 20 20 0 -3
BITMAP
002000
0FF000
002000
002000
002000
002000
006000
005000
005000
00D000
008800
018800
010400
030400
020200
040100
080180
1000C0
200070
400020
ENDCHAR
ENDFONT
